<?xml version="1.0" encoding="UTF-8"?>
<svg xmlns="http://www.w3.org/2000/svg" xmlns:xlink="http://www.w3.org/1999/xlink" width="345pt" height="337pt" viewBox="0 0 345 337" version="1.1">
<defs>
<clipPath id="clip1">
  <path d="M 0 0.554688 L 344.9375 0.554688 L 344.9375 337 L 0 337 Z M 0 0.554688 "/>
</clipPath>
</defs>
<g id="surface1">
<g clip-path="url(#clip1)" clip-rule="nonzero">
<path style=" stroke:none;fill-rule:nonzero;fill:rgb(13.729858%,12.159729%,12.548828%);fill-opacity:1;" d="M 337.394531 141.121094 L 337.65625 140.929688 L 338.859375 140.03125 C 339.476562 139.539062 339.976562 138.878906 340.273438 138.136719 C 340.886719 136.671875 340.660156 134.890625 339.707031 133.613281 L 338.199219 134.722656 L 339.707031 133.613281 L 332.917969 124.410156 L 332.542969 123.910156 L 332.546875 123.90625 L 281.90625 55.21875 L 256.535156 20.851562 C 247.660156 9.363281 234.128906 0.488281 218.6875 0.605469 C 214.269531 0.34375 209.78125 1.164062 205.777344 3.070312 C 204.542969 3.648438 203.363281 4.34375 202.230469 5.09375 C 201.050781 5.914062 200.171875 6.558594 199.050781 7.433594 C 197.105469 8.972656 195.390625 10.804688 193.949219 12.824219 L 68.277344 12.824219 C 62.632812 8.402344 55.507812 5.882812 48.332031 5.925781 C 39.851562 5.878906 31.417969 9.378906 25.449219 15.402344 C 19.898438 20.898438 16.53125 28.492188 16.0625 36.285156 L 15.023438 36.285156 C 14.214844 36.28125 13.300781 36.335938 12.453125 36.472656 C 9.011719 37.019531 5.785156 38.828125 3.542969 41.492188 C 1.269531 44.128906 -0.0078125 47.609375 0.00390625 51.085938 L 0.00390625 69.335938 C -0.0820312 72.730469 1.121094 76.296875 3.328125 78.972656 C 5.523438 81.671875 8.691406 83.570312 12.128906 84.183594 C 12.714844 84.285156 13.304688 84.347656 13.894531 84.386719 L 79.726562 163.730469 C 77.445312 170.121094 76.28125 176.910156 76.28125 183.6875 C 76.28125 191.453125 77.804688 199.230469 80.789062 206.410156 C 82.386719 210.273438 84.414062 213.949219 86.789062 217.386719 L 86.460938 217.386719 L 86.460938 239.300781 L 63.535156 239.300781 L 43.359375 253.433594 C 41.097656 254.003906 38.859375 254.714844 36.683594 255.617188 C 33.367188 257.003906 30.175781 258.84375 27.390625 261.257812 C 24.601562 263.652344 22.28125 266.671875 20.730469 270.042969 C 19.160156 273.410156 18.382812 277.085938 18.179688 280.707031 C 18.085938 282.558594 18.132812 284.246094 18.121094 285.96875 L 18.121094 313.640625 L 30.722656 313.640625 C 31.160156 319.605469 33.773438 325.402344 38.027344 329.613281 C 42.679688 334.308594 49.257812 337.035156 55.867188 337 C 62.480469 337.035156 69.054688 334.304688 73.707031 329.609375 C 77.960938 325.394531 80.574219 319.605469 81.007812 313.640625 L 189.65625 313.640625 C 190.09375 319.605469 192.707031 325.402344 196.960938 329.613281 C 201.613281 334.308594 208.191406 337.035156 214.800781 337 C 221.414062 337.035156 227.992188 334.304688 232.640625 329.609375 C 236.890625 325.394531 239.507812 319.605469 239.941406 313.640625 L 262.15625 313.640625 L 262.15625 285.96875 C 262.144531 284.246094 262.1875 282.558594 262.097656 280.707031 C 261.894531 277.085938 261.121094 273.410156 259.546875 270.042969 C 257.996094 266.671875 255.675781 263.652344 252.886719 261.257812 C 250.105469 258.84375 246.914062 257.003906 243.59375 255.617188 C 240.269531 254.230469 236.808594 253.269531 233.308594 252.640625 C 231.558594 252.324219 229.796875 252.089844 228.015625 251.941406 C 227.742188 251.914062 227.464844 251.898438 227.191406 251.882812 L 207.136719 237.832031 L 184.207031 237.832031 L 184.207031 217.777344 C 186.699219 214.226562 188.820312 210.421875 190.480469 206.410156 C 193.464844 199.230469 194.992188 191.457031 194.988281 183.691406 C 194.992188 175.925781 193.464844 168.152344 190.480469 160.972656 C 187.507812 153.792969 183.101562 147.21875 177.605469 141.722656 C 174.269531 138.382812 170.527344 135.453125 166.492188 132.992188 L 107.320312 83.273438 C 109.464844 82.378906 111.398438 80.996094 112.894531 79.222656 C 115.167969 76.582031 116.445312 73.101562 116.433594 69.625 L 116.433594 51.375 C 116.515625 47.980469 115.316406 44.414062 113.109375 41.742188 C 112.636719 41.160156 112.109375 40.625 111.550781 40.121094 C 111.738281 39.25 112.242188 38.523438 113.105469 37.890625 C 114.199219 37.089844 115.730469 36.550781 117.25 36.277344 L 117.59375 36.21875 L 190.195312 36.21875 C 191.078125 39.050781 192.410156 41.742188 194.179688 44.121094 L 212.234375 68.613281 L 216.75 74.734375 L 219.003906 77.800781 C 219.8125 78.871094 220.691406 79.933594 221.648438 80.898438 C 225.488281 84.785156 230.566406 87.40625 235.9375 88.335938 C 241.304688 89.289062 246.972656 88.558594 251.902344 86.207031 C 253.136719 85.628906 254.316406 84.9375 255.449219 84.183594 C 255.5 84.144531 255.542969 84.117188 255.59375 84.082031 L 262.339844 93.230469 L 271.757812 86.292969 L 308.363281 135.9375 L 307.046875 136.90625 L 305.84375 137.804688 C 305.226562 138.292969 304.722656 138.953125 304.429688 139.695312 C 303.808594 141.160156 304.046875 142.949219 304.996094 144.222656 L 311.78125 153.425781 L 312.246094 154.046875 C 312.488281 154.359375 312.78125 154.636719 313.097656 154.878906 C 313.734375 155.359375 314.488281 155.675781 315.277344 155.78125 C 316.058594 155.886719 316.878906 155.800781 317.617188 155.503906 C 317.992188 155.359375 318.335938 155.160156 318.664062 154.933594 L 319.246094 154.503906 L 320.007812 153.941406 L 344.9375 169.554688 Z M 238.222656 9.632812 C 244.183594 12.992188 249.347656 17.710938 253.589844 23.15625 L 278.894531 57.441406 L 326.835938 122.46875 C 326.5625 122.597656 326.285156 122.734375 326.039062 122.90625 L 325.453125 123.335938 L 322.65625 125.394531 L 263.5 45.15625 L 245.445312 20.664062 L 240.929688 14.546875 L 238.675781 11.480469 C 237.914062 10.472656 237.085938 9.476562 236.191406 8.558594 C 236.875 8.902344 237.558594 9.253906 238.222656 9.632812 M 28.097656 18.046875 C 33.386719 12.714844 40.820312 9.628906 48.332031 9.667969 C 54.808594 9.632812 61.222656 11.933594 66.257812 15.984375 C 66.257812 15.984375 68.050781 17.527344 68.566406 18.046875 C 73.429688 22.863281 76.394531 29.46875 76.859375 36.285156 L 19.808594 36.285156 C 20.269531 29.46875 23.234375 22.863281 28.097656 18.046875 M 18.796875 84.429688 L 81.058594 84.429688 L 121.289062 126.089844 C 118.4375 126.796875 115.632812 127.714844 112.917969 128.847656 C 105.738281 131.816406 99.160156 136.226562 93.664062 141.722656 C 88.480469 146.90625 84.277344 153.070312 81.316406 159.785156 Z M 64.714844 243.046875 L 86.460938 243.046875 L 86.460938 251.792969 L 57.570312 251.792969 L 54.984375 251.796875 C 54.023438 251.808594 53.160156 251.867188 52.261719 251.941406 C 52.164062 251.949219 52.070312 251.964844 51.972656 251.96875 Z M 71.0625 326.964844 C 67.089844 330.96875 61.507812 333.28125 55.867188 333.257812 C 50.226562 333.28125 44.648438 330.972656 40.671875 326.964844 C 36.667969 322.992188 34.355469 317.414062 34.378906 311.769531 C 34.351562 306.132812 36.667969 300.550781 40.671875 296.578125 C 44.648438 292.574219 50.222656 290.257812 55.863281 290.28125 C 61.507812 290.257812 67.085938 292.570312 71.058594 296.578125 C 75.066406 300.550781 77.378906 306.128906 77.351562 311.769531 C 77.378906 317.414062 75.066406 322.992188 71.0625 326.964844 M 152.445312 298.796875 L 152.445312 309.898438 L 109.675781 309.898438 L 109.675781 298.171875 C 109.679688 297.96875 109.679688 297.914062 109.699219 297.78125 C 109.796875 296.867188 110.53125 296.046875 111.425781 295.84375 C 111.535156 295.8125 111.652344 295.804688 111.765625 295.789062 C 111.871094 295.785156 111.988281 295.773438 112.230469 295.777344 L 149.890625 295.777344 C 150.132812 295.773438 150.25 295.785156 150.355469 295.789062 C 150.46875 295.804688 150.585938 295.8125 150.695312 295.84375 C 151.59375 296.046875 152.324219 296.863281 152.421875 297.78125 C 152.4375 297.914062 152.4375 297.96875 152.445312 298.171875 Z M 229.996094 326.964844 C 226.023438 330.96875 220.445312 333.28125 214.800781 333.257812 C 209.160156 333.28125 203.582031 330.96875 199.609375 326.964844 C 195.605469 322.992188 193.289062 317.414062 193.3125 311.769531 C 193.285156 306.132812 195.601562 300.550781 199.605469 296.578125 C 203.578125 292.574219 209.160156 290.257812 214.800781 290.28125 C 220.441406 290.257812 226.019531 292.570312 229.992188 296.578125 C 233.996094 300.550781 236.3125 306.128906 236.289062 311.769531 C 236.3125 317.414062 234 322.992188 229.996094 326.964844 M 242.148438 259.070312 C 248.199219 261.550781 253.523438 265.796875 256.152344 271.617188 C 257.492188 274.492188 258.175781 277.675781 258.359375 280.910156 C 258.441406 282.496094 258.40625 284.25 258.414062 285.96875 L 258.414062 309.898438 L 239.941406 309.898438 C 239.507812 303.933594 236.890625 298.144531 232.640625 293.929688 C 227.984375 289.238281 221.410156 286.507812 214.800781 286.539062 C 208.1875 286.507812 201.613281 289.238281 196.957031 293.929688 C 192.707031 298.144531 190.09375 303.933594 189.65625 309.898438 L 156.1875 309.898438 L 156.1875 298.171875 C 156.183594 297.957031 156.175781 297.589844 156.136719 297.308594 C 155.859375 294.878906 153.960938 292.757812 151.574219 292.210938 C 151.28125 292.128906 150.976562 292.09375 150.675781 292.058594 C 150.363281 292.039062 150.0625 292.035156 149.890625 292.035156 L 112.230469 292.035156 C 112.058594 292.035156 111.757812 292.039062 111.445312 292.058594 C 111.144531 292.09375 110.839844 292.128906 110.546875 292.210938 C 108.160156 292.757812 106.261719 294.875 105.984375 297.308594 C 105.941406 297.589844 105.9375 297.957031 105.929688 298.171875 L 105.929688 309.898438 L 81.007812 309.898438 C 80.574219 303.933594 77.957031 298.144531 73.707031 293.929688 C 69.054688 289.238281 62.476562 286.507812 55.863281 286.539062 C 49.253906 286.507812 42.675781 289.238281 38.027344 293.929688 C 33.773438 298.144531 31.160156 303.933594 30.722656 309.898438 L 21.863281 309.898438 L 21.863281 285.96875 C 21.871094 284.25 21.832031 282.496094 21.917969 280.910156 C 22.101562 277.675781 22.78125 274.492188 24.125 271.617188 C 26.753906 265.796875 32.078125 261.550781 38.128906 259.070312 C 44.214844 256.59375 50.898438 255.378906 57.570312 255.539062 L 222.703125 255.539062 C 229.378906 255.378906 236.066406 256.59375 242.148438 259.070312 M 90.203125 251.792969 L 90.203125 221.867188 C 91.304688 223.179688 92.453125 224.449219 93.664062 225.660156 C 99.15625 231.15625 105.734375 235.566406 112.917969 238.539062 C 120.09375 241.523438 127.871094 243.050781 135.636719 243.046875 C 143.402344 243.050781 151.175781 241.523438 158.355469 238.539062 C 165.535156 235.566406 172.113281 231.15625 177.605469 225.660156 C 178.601562 224.667969 179.542969 223.628906 180.464844 222.566406 L 180.464844 251.792969 Z M 205.957031 241.574219 L 220.546875 251.792969 L 184.207031 251.792969 L 184.207031 241.574219 Z M 174.957031 223.015625 C 165.128906 232.933594 151.457031 238.84375 137.507812 239.261719 L 137.507812 219.203125 L 138.105469 219.167969 C 138.941406 219.105469 139.777344 219.015625 140.609375 218.894531 C 143.933594 218.40625 147.203125 217.375 150.195312 215.816406 C 156.226562 212.722656 160.976562 207.703125 164.484375 202.175781 C 166.246094 199.398438 167.730469 196.472656 168.988281 193.460938 C 169.613281 191.953125 170.183594 190.421875 170.691406 188.867188 C 170.945312 188.097656 171.183594 187.3125 171.410156 186.523438 L 171.671875 185.5625 L 191.207031 185.5625 C 190.789062 199.511719 184.875 213.183594 174.957031 223.015625 M 174.957031 144.367188 C 184.878906 154.199219 190.789062 167.871094 191.207031 181.820312 L 168.675781 181.820312 C 168.507812 182.601562 168.351562 183.421875 168.164062 184.167969 L 167.804688 185.511719 C 167.597656 186.242188 167.375 186.976562 167.136719 187.707031 C 166.65625 189.164062 166.121094 190.605469 165.53125 192.019531 C 164.351562 194.855469 162.957031 197.59375 161.324219 200.164062 C 158.070312 205.296875 153.773438 209.777344 148.480469 212.492188 C 145.851562 213.859375 143 214.757812 140.058594 215.191406 C 139.324219 215.304688 138.585938 215.378906 137.839844 215.4375 L 136.0625 215.507812 C 135.304688 215.5625 134.410156 215.484375 133.765625 215.640625 L 133.765625 239.261719 C 119.816406 238.84375 106.144531 232.933594 96.3125 223.015625 C 85.953125 212.742188 79.949219 198.28125 80.027344 183.6875 C 79.949219 169.101562 85.953125 154.636719 96.3125 144.367188 C 106.585938 134.007812 121.046875 128.003906 135.636719 128.082031 C 150.230469 128.003906 164.6875 134.007812 174.957031 144.367188 M 153.742188 127.171875 C 147.898438 125.300781 141.769531 124.335938 135.636719 124.335938 C 132.285156 124.335938 128.9375 124.636719 125.632812 125.199219 L 86.261719 84.429688 L 101.414062 84.429688 C 101.855469 84.429688 102.332031 84.410156 102.804688 84.375 Z M 112.691406 51.375 L 112.691406 69.625 C 112.695312 72.230469 111.75 74.816406 110.046875 76.792969 C 108.367188 78.789062 105.957031 80.136719 103.390625 80.546875 C 102.734375 80.648438 102.128906 80.683594 101.414062 80.6875 L 17.015625 80.6875 L 14.746094 80.683594 C 14.09375 80.683594 13.441406 80.617188 12.804688 80.5 C 10.242188 80.046875 7.875 78.625 6.230469 76.605469 C 4.578125 74.566406 3.683594 72.03125 3.746094 69.335938 L 3.746094 51.089844 C 3.742188 48.480469 4.6875 45.898438 6.386719 43.921875 C 8.070312 41.925781 10.480469 40.574219 13.046875 40.167969 C 13.703125 40.066406 14.308594 40.027344 15.023438 40.027344 L 101.691406 40.027344 C 102.34375 40.027344 102.992188 40.09375 103.636719 40.210938 C 106.195312 40.664062 108.5625 42.085938 110.207031 44.109375 C 111.859375 46.144531 112.75 48.683594 112.691406 51.375 M 148.921875 32.476562 L 117.570312 32.476562 C 117.050781 32.488281 116.847656 32.554688 116.597656 32.589844 C 114.628906 32.960938 112.703125 33.578125 110.898438 34.863281 C 110.015625 35.511719 109.167969 36.363281 108.585938 37.4375 C 108.496094 37.589844 108.433594 37.753906 108.359375 37.914062 C 107.085938 37.261719 105.722656 36.78125 104.308594 36.53125 C 103.449219 36.375 102.582031 36.285156 101.714844 36.285156 L 80.601562 36.285156 C 80.464844 34.046875 80.101562 31.828125 79.5 29.671875 L 189.035156 29.671875 C 189.078125 30.609375 189.171875 31.546875 189.316406 32.476562 Z M 189.109375 25.925781 L 78.238281 25.925781 C 76.820312 22.488281 74.785156 19.316406 72.277344 16.566406 L 191.703125 16.566406 C 190.277344 19.496094 189.398438 22.679688 189.109375 25.925781 M 253.355469 81.082031 C 252.378906 81.726562 251.367188 82.324219 250.304688 82.820312 C 246.070312 84.839844 241.203125 85.46875 236.582031 84.652344 C 231.960938 83.847656 227.601562 81.601562 224.308594 78.261719 C 223.476562 77.425781 222.734375 76.53125 222.015625 75.578125 L 219.761719 72.515625 L 215.246094 66.390625 L 197.191406 41.898438 C 194.390625 38.125 192.8125 33.484375 192.730469 28.792969 C 192.628906 24.105469 193.984375 19.386719 196.621094 15.503906 C 197.910156 13.59375 199.492188 11.875 201.296875 10.4375 L 206.109375 16.957031 C 203.726562 19.230469 202.09375 22.300781 201.621094 25.558594 C 201.015625 29.433594 202.027344 33.535156 204.371094 36.683594 C 206.683594 39.851562 210.304688 42.035156 214.183594 42.601562 C 217.4375 43.105469 220.847656 42.457031 223.726562 40.855469 L 230.976562 50.695312 C 228.59375 52.96875 226.964844 56.035156 226.488281 59.292969 C 225.886719 63.167969 226.902344 67.273438 229.246094 70.417969 C 231.554688 73.582031 235.175781 75.769531 239.058594 76.335938 C 242.3125 76.84375 245.722656 76.195312 248.597656 74.59375 L 253.375 81.070312 C 253.371094 81.074219 253.363281 81.078125 253.355469 81.082031 M 209.761719 18.757812 C 212.128906 16.996094 215.183594 16.242188 218.101562 16.691406 C 221.019531 17.125 223.722656 18.75 225.460938 21.132812 C 227.21875 23.5 227.976562 26.558594 227.527344 29.476562 C 227.09375 32.394531 225.464844 35.09375 223.085938 36.835938 C 220.71875 38.59375 217.660156 39.347656 214.742188 38.898438 C 211.824219 38.46875 209.125 36.84375 207.386719 34.460938 C 205.625 32.09375 204.871094 29.035156 205.320312 26.121094 C 205.75 23.199219 207.375 20.5 209.761719 18.757812 M 234.628906 52.492188 C 236.996094 50.734375 240.054688 49.976562 242.972656 50.429688 C 245.890625 50.859375 248.589844 52.488281 250.328125 54.867188 C 252.09375 57.234375 252.847656 60.296875 252.394531 63.210938 C 251.96875 66.128906 250.339844 68.828125 247.960938 70.570312 C 245.59375 72.332031 242.53125 73.085938 239.613281 72.636719 C 236.695312 72.203125 234 70.578125 232.257812 68.195312 C 230.496094 65.828125 229.742188 62.769531 230.191406 59.851562 C 230.621094 56.933594 232.246094 54.234375 234.628906 52.492188 M 256.382812 78.84375 L 251.605469 72.367188 C 253.992188 70.097656 255.621094 67.03125 256.09375 63.769531 C 256.703125 59.898438 255.6875 55.792969 253.34375 52.648438 C 251.03125 49.480469 247.410156 47.296875 243.535156 46.730469 C 240.277344 46.222656 236.863281 46.871094 233.992188 48.476562 L 226.738281 38.632812 C 229.125 36.359375 230.75 33.292969 231.222656 30.03125 C 231.832031 26.160156 230.816406 22.054688 228.472656 18.910156 L 226.964844 20.023438 L 228.472656 18.910156 C 226.160156 15.746094 222.542969 13.5625 218.664062 12.992188 C 215.40625 12.484375 211.996094 13.136719 209.121094 14.738281 L 204.304688 8.207031 C 204.316406 8.203125 204.316406 8.199219 204.324219 8.199219 C 205.300781 7.550781 206.3125 6.953125 207.375 6.457031 C 211.609375 4.4375 216.476562 3.808594 221.097656 4.628906 C 225.71875 5.429688 230.078125 7.675781 233.371094 11.019531 C 234.203125 11.855469 234.941406 12.746094 235.660156 13.703125 L 242.433594 22.890625 L 260.492188 47.378906 C 263.292969 51.152344 264.867188 55.792969 264.953125 60.484375 C 265.054688 65.171875 263.695312 69.894531 261.0625 73.773438 C 259.769531 75.6875 258.191406 77.402344 256.382812 78.84375 M 272.550781 81.058594 L 263.132812 87.996094 L 258.605469 81.863281 C 258.613281 81.855469 258.621094 81.851562 258.632812 81.84375 C 260.769531 80.152344 262.640625 78.121094 264.167969 75.863281 C 267.234375 71.339844 268.808594 65.855469 268.691406 60.40625 C 268.683594 59.71875 268.640625 59.03125 268.574219 58.34375 L 319.644531 127.617188 L 311.648438 133.511719 L 311.375 133.71875 Z M 317.03125 151.488281 L 316.460938 151.902344 C 316.390625 151.945312 316.328125 151.992188 316.253906 152.015625 C 316.109375 152.078125 315.945312 152.089844 315.785156 152.070312 C 315.625 152.050781 315.476562 151.988281 315.355469 151.894531 C 315.296875 151.84375 315.230469 151.796875 315.1875 151.726562 L 314.796875 151.203125 L 308.007812 142 C 307.820312 141.738281 307.773438 141.398438 307.898438 141.097656 C 307.957031 140.953125 308.050781 140.828125 308.175781 140.730469 L 309.269531 139.921875 L 323.074219 129.738281 L 327.675781 126.347656 L 328.242188 125.929688 C 328.3125 125.890625 328.378906 125.835938 328.449219 125.816406 C 328.59375 125.753906 328.757812 125.742188 328.917969 125.761719 C 329.070312 125.785156 329.222656 125.847656 329.347656 125.941406 C 329.402344 125.988281 329.464844 126.035156 329.515625 126.101562 L 329.902344 126.628906 L 336.6875 135.832031 C 336.878906 136.09375 336.925781 136.4375 336.800781 136.734375 C 336.742188 136.882812 336.648438 137.007812 336.523438 137.109375 L 335.4375 137.917969 L 330.832031 141.308594 L 321.628906 148.097656 Z M 323.847656 151.109375 L 333.050781 144.320312 L 334.15625 143.511719 L 338.890625 161.347656 L 323.25 151.554688 L 323.847656 151.109375 "/>
</g>
<path style=" stroke:none;fill-rule:nonzero;fill:rgb(13.729858%,12.159729%,12.548828%);fill-opacity:1;" d="M 218.28125 36.8125 C 215.042969 36.8125 212.410156 34.1875 212.410156 30.945312 C 212.410156 28.238281 214.242188 25.960938 216.730469 25.28125 L 216.730469 31.769531 L 219.835938 31.769531 L 219.835938 25.28125 C 222.324219 25.960938 224.152344 28.238281 224.152344 30.945312 C 224.152344 34.1875 221.527344 36.8125 218.28125 36.8125 "/>
<path style=" stroke:none;fill-rule:nonzero;fill:rgb(13.729858%,12.159729%,12.548828%);fill-opacity:1;" d="M 243.160156 70.382812 C 239.917969 70.382812 237.289062 67.757812 237.289062 64.515625 C 237.289062 61.808594 239.121094 59.53125 241.609375 58.851562 L 241.609375 65.339844 L 244.710938 65.339844 L 244.710938 58.851562 C 247.203125 59.53125 249.03125 61.808594 249.03125 64.515625 C 249.03125 67.757812 246.402344 70.382812 243.160156 70.382812 "/>
</g>
</svg>
