<?xml version="1.0" encoding="UTF-8"?>
<svg xmlns="http://www.w3.org/2000/svg" xmlns:xlink="http://www.w3.org/1999/xlink" width="348pt" height="356pt" viewBox="0 0 348 356" version="1.1">
<defs>
<clipPath id="clip1">
  <path d="M 0 32 L 347.945312 32 L 347.945312 356 L 0 356 Z M 0 32 "/>
</clipPath>
<clipPath id="clip2">
  <path d="M 126 0.101562 L 290 0.101562 L 290 76 L 126 76 Z M 126 0.101562 "/>
</clipPath>
</defs>
<g id="surface1">
<path style=" stroke:none;fill-rule:nonzero;fill:rgb(13.729858%,12.159729%,12.548828%);fill-opacity:1;" d="M 183.28125 79.09375 C 187.128906 79.117188 190.960938 77.527344 193.664062 74.796875 C 196.394531 72.09375 197.984375 68.261719 197.960938 64.417969 C 197.984375 60.574219 196.394531 56.738281 193.664062 54.035156 C 190.960938 51.304688 187.128906 49.714844 183.289062 49.738281 C 179.441406 49.714844 175.605469 51.304688 172.90625 54.035156 C 170.175781 56.738281 168.585938 60.570312 168.605469 64.414062 C 168.582031 68.261719 170.175781 72.09375 172.902344 74.792969 C 175.605469 77.527344 179.441406 79.113281 183.28125 79.09375 M 175.777344 56.910156 C 177.746094 54.929688 180.496094 53.785156 183.289062 53.800781 C 186.074219 53.785156 188.824219 54.929688 190.789062 56.910156 C 192.769531 58.875 193.914062 61.625 193.898438 64.417969 C 193.914062 67.203125 192.769531 69.957031 190.789062 71.921875 C 188.824219 73.902344 186.074219 75.042969 183.28125 75.03125 C 180.496094 75.042969 177.742188 73.902344 175.777344 71.921875 C 173.796875 69.953125 172.65625 67.203125 172.667969 64.414062 C 172.65625 61.625 173.796875 58.875 175.777344 56.910156 "/>
<path style=" stroke:none;fill-rule:nonzero;fill:rgb(13.729858%,12.159729%,12.548828%);fill-opacity:1;" d="M 183.289062 71.132812 C 187.0625 71.132812 190.125 68.070312 190.125 64.296875 C 190.125 61.144531 187.992188 58.488281 185.089844 57.695312 L 185.089844 65.257812 L 181.476562 65.257812 L 181.476562 57.695312 C 178.578125 58.488281 176.445312 61.144531 176.445312 64.296875 C 176.445312 68.070312 179.507812 71.132812 183.289062 71.132812 "/>
<path style=" stroke:none;fill-rule:nonzero;fill:rgb(13.729858%,12.159729%,12.548828%);fill-opacity:1;" d="M 130.851562 58.898438 L 134.53125 65.664062 C 134.730469 66.027344 135.1875 66.160156 135.546875 65.964844 C 135.910156 65.765625 136.046875 65.3125 135.847656 64.949219 L 132.164062 58.179688 L 134.054688 57.152344 L 139.007812 60.175781 L 138.859375 65.976562 L 133.765625 68.75 L 128.816406 65.726562 L 128.960938 59.925781 L 130.851562 58.898438 "/>
<path style=" stroke:none;fill-rule:nonzero;fill:rgb(13.729858%,12.159729%,12.548828%);fill-opacity:1;" d="M 122.433594 69.480469 C 120.769531 66.453125 120.375 62.742188 121.371094 59.433594 C 122.332031 56.117188 124.675781 53.214844 127.71875 51.574219 C 130.746094 49.910156 134.457031 49.519531 137.761719 50.511719 C 141.082031 51.472656 143.980469 53.8125 145.621094 56.859375 C 147.289062 59.886719 147.679688 63.59375 146.6875 66.90625 C 145.726562 70.222656 143.378906 73.128906 140.339844 74.761719 C 137.3125 76.429688 133.597656 76.820312 130.296875 75.828125 C 126.972656 74.863281 124.074219 72.519531 122.433594 69.480469 M 138.371094 71.148438 C 140.472656 70.019531 142.074219 68.035156 142.742188 65.738281 C 143.425781 63.449219 143.15625 60.917969 142.007812 58.824219 C 140.871094 56.726562 138.894531 55.125 136.597656 54.457031 C 134.3125 53.773438 131.777344 54.039062 129.683594 55.191406 C 127.582031 56.324219 125.984375 58.304688 125.316406 60.597656 C 124.632812 62.886719 124.898438 65.417969 126.050781 67.511719 C 127.183594 69.617188 129.164062 71.210938 131.457031 71.882812 C 133.746094 72.566406 136.277344 72.300781 138.371094 71.148438 "/>
<path style=" stroke:none;fill-rule:nonzero;fill:rgb(13.729858%,12.159729%,12.548828%);fill-opacity:1;" d="M 230.21875 59.257812 L 233.902344 66.023438 C 234.105469 66.386719 234.558594 66.519531 234.914062 66.324219 C 235.28125 66.128906 235.414062 65.671875 235.21875 65.308594 L 231.53125 58.539062 L 233.425781 57.511719 L 238.375 60.535156 L 238.226562 66.339844 L 233.136719 69.109375 L 228.183594 66.085938 L 228.332031 60.285156 L 230.21875 59.257812 "/>
<path style=" stroke:none;fill-rule:nonzero;fill:rgb(13.729858%,12.159729%,12.548828%);fill-opacity:1;" d="M 227.085938 51.9375 C 230.113281 50.269531 233.824219 49.875 237.132812 50.871094 C 240.449219 51.828125 243.355469 54.175781 244.988281 57.21875 C 246.65625 60.246094 247.050781 63.953125 246.054688 67.265625 C 245.09375 70.582031 242.75 73.484375 239.707031 75.121094 C 236.683594 76.789062 232.96875 77.179688 229.664062 76.1875 C 226.347656 75.226562 223.441406 72.882812 221.804688 69.839844 C 220.140625 66.8125 219.746094 63.101562 220.738281 59.796875 C 221.699219 56.476562 224.046875 53.574219 227.085938 51.9375 M 225.417969 67.871094 C 226.550781 69.976562 228.535156 71.574219 230.828125 72.242188 C 233.117188 72.929688 235.648438 72.65625 237.742188 71.507812 C 239.847656 70.375 241.4375 68.390625 242.109375 66.101562 C 242.796875 63.808594 242.527344 61.277344 241.378906 59.1875 C 240.246094 57.082031 238.261719 55.480469 235.972656 54.816406 C 233.679688 54.132812 231.148438 54.398438 229.054688 55.550781 C 226.953125 56.683594 225.355469 58.664062 224.683594 60.957031 C 224 63.246094 224.269531 65.777344 225.417969 67.871094 "/>
<g clip-path="url(#clip1)" clip-rule="nonzero">
<path style=" stroke:none;fill-rule:nonzero;fill:rgb(13.729858%,12.159729%,12.548828%);fill-opacity:1;" d="M 228.050781 206.785156 L 214.296875 206.785156 C 214.1875 204.007812 213.789062 201.246094 213.113281 198.550781 Z M 186.265625 169.425781 C 182.015625 167.980469 177.53125 167.214844 173.035156 167.238281 C 169.210938 167.21875 165.394531 167.773438 161.722656 168.824219 L 129.425781 132.949219 L 118.417969 120.726562 L 134.839844 120.960938 Z M 134.957031 117.460938 L 119.363281 117.238281 L 182.769531 67.679688 C 185.410156 70.160156 188.722656 71.898438 192.253906 72.691406 Z M 196.695312 69.691406 C 192.253906 69.710938 187.867188 67.894531 184.738281 64.742188 C 181.589844 61.617188 179.769531 57.230469 179.785156 52.789062 C 179.769531 48.351562 181.589844 43.960938 184.738281 40.835938 C 187.867188 37.683594 192.253906 35.863281 196.691406 35.882812 M 176.34375 51.589844 C 176.316406 51.988281 176.285156 52.386719 176.285156 52.789062 C 176.265625 57.1875 177.773438 61.558594 180.417969 65.066406 L 114.617188 116.503906 L 112.941406 114.640625 L 110.882812 112.355469 C 110.238281 111.632812 109.421875 110.707031 108.511719 109.984375 C 106.6875 108.515625 104.511719 107.5 102.230469 107.042969 C 101.632812 106.921875 101.03125 106.839844 100.425781 106.796875 Z M 89.621094 127.820312 C 89.609375 127.804688 89.59375 127.785156 89.582031 127.765625 C 88.625 126.28125 88.027344 124.5625 87.863281 122.789062 C 87.511719 119.234375 88.929688 115.554688 91.59375 113.183594 C 94.226562 110.785156 98.039062 109.757812 101.535156 110.480469 C 103.28125 110.824219 104.929688 111.597656 106.304688 112.707031 C 106.527344 112.890625 106.753906 113.117188 106.980469 113.335938 C 105.621094 112.878906 104.191406 112.621094 102.757812 112.632812 C 99.277344 112.613281 95.808594 114.050781 93.363281 116.519531 C 90.890625 118.96875 89.453125 122.4375 89.472656 125.914062 C 89.46875 126.554688 89.53125 127.1875 89.621094 127.820312 M 92.976562 125.914062 C 92.964844 123.347656 94.015625 120.808594 95.839844 118.996094 C 97.652344 117.175781 100.1875 116.125 102.757812 116.132812 C 105.328125 116.125 107.863281 117.175781 109.671875 118.996094 C 109.929688 119.25 110.167969 119.523438 110.390625 119.804688 L 110.976562 120.617188 C 111.984375 122.1875 112.546875 124.039062 112.539062 125.914062 C 112.550781 128.484375 111.496094 131.019531 109.671875 132.832031 C 107.863281 134.65625 105.328125 135.707031 102.757812 135.699219 C 100.1875 135.707031 97.652344 134.65625 95.839844 132.832031 C 94.015625 131.019531 92.964844 128.484375 92.976562 125.914062 M 109.898438 150.53125 L 99.265625 138.71875 C 100.402344 139.03125 101.578125 139.207031 102.757812 139.199219 C 106.234375 139.21875 109.703125 137.78125 112.152344 135.308594 C 114.621094 132.863281 116.058594 129.394531 116.042969 125.914062 C 116.046875 124.910156 115.917969 123.90625 115.6875 122.929688 L 126.824219 135.296875 L 158.109375 170.042969 C 152.777344 172.113281 147.863281 175.269531 143.839844 179.335938 C 142.414062 180.746094 141.105469 182.261719 139.910156 183.867188 Z M 140.632812 189.167969 L 142.335938 186.554688 C 143.535156 184.875 144.84375 183.269531 146.3125 181.8125 C 153.292969 174.769531 163.121094 170.691406 173.035156 170.742188 C 182.953125 170.691406 192.78125 174.769531 199.761719 181.8125 C 206.386719 188.382812 210.34375 197.472656 210.75 206.785156 L 135.324219 206.785156 C 135.59375 200.578125 137.453125 194.492188 140.632812 189.167969 M 132.859375 199.003906 C 132.25 201.554688 131.882812 204.164062 131.777344 206.785156 L 120.902344 206.785156 Z M 112.136719 222.09375 C 111.144531 221.535156 110.320312 220.667969 109.808594 219.648438 C 109.546875 219.140625 109.367188 218.59375 109.269531 218.03125 C 109.21875 217.753906 109.191406 217.464844 109.1875 217.179688 L 109.183594 216.109375 C 109.148438 213.808594 110.636719 211.589844 112.769531 210.730469 C 113.863281 210.253906 114.851562 210.273438 116.480469 210.289062 L 232.941406 210.289062 C 233.089844 210.292969 233.230469 210.289062 233.371094 210.304688 C 233.660156 210.320312 233.941406 210.371094 234.222656 210.429688 C 234.6875 210.535156 235.140625 210.710938 235.570312 210.929688 L 235.96875 211.148438 C 236.890625 211.710938 237.65625 212.527344 238.140625 213.488281 C 238.402344 213.996094 238.582031 214.542969 238.679688 215.105469 C 238.730469 215.386719 238.757812 215.671875 238.761719 215.957031 L 238.765625 217.027344 C 238.796875 219.332031 237.3125 221.546875 235.175781 222.40625 C 234.085938 222.886719 233.097656 222.867188 231.464844 222.851562 L 115.003906 222.851562 C 114.859375 222.84375 114.714844 222.847656 114.574219 222.832031 C 114.289062 222.8125 114.003906 222.769531 113.730469 222.710938 C 113.171875 222.585938 112.632812 222.378906 112.136719 222.09375 M 231.195312 226.351562 L 231.195312 235.472656 L 116.753906 235.472656 L 116.753906 226.351562 Z M 75.082031 238.972656 L 271.929688 238.972656 L 299.304688 252.769531 C 298.300781 252.714844 297.292969 252.679688 296.289062 252.679688 L 51.660156 252.679688 C 50.277344 252.679688 48.890625 252.757812 47.515625 252.867188 Z M 339.871094 324.847656 C 336.441406 332.152344 331.125 338.558594 324.59375 343.300781 C 318.074219 348.0625 310.339844 351.136719 302.328125 352.121094 C 300.324219 352.367188 298.304688 352.492188 296.289062 352.496094 L 51.65625 352.496094 C 43.582031 352.511719 35.523438 350.457031 28.457031 346.546875 C 21.386719 342.65625 15.316406 336.960938 10.992188 330.144531 C 6.65625 323.335938 4.082031 315.421875 3.597656 307.363281 C 3.089844 299.304688 4.621094 291.128906 8.078125 283.835938 C 11.507812 276.523438 16.824219 270.121094 23.355469 265.378906 C 29.875 260.617188 37.609375 257.542969 45.621094 256.558594 C 47.625 256.3125 49.640625 256.183594 51.660156 256.179688 L 296.289062 256.179688 C 300.96875 256.171875 305.640625 256.882812 310.113281 258.222656 L 311.683594 259.011719 L 311.8125 258.757812 C 314.460938 259.65625 317.039062 260.773438 319.492188 262.132812 C 326.5625 266.023438 332.632812 271.71875 336.957031 278.535156 C 341.292969 285.34375 343.863281 293.257812 344.347656 301.3125 C 344.859375 309.378906 343.324219 317.550781 339.871094 324.847656 M 196.695312 32.382812 L 196.691406 32.382812 C 191.34375 32.355469 186.027344 34.5625 182.261719 38.359375 C 179.960938 40.644531 178.25 43.503906 177.261719 46.59375 L 92.003906 108.59375 L 92.023438 108.613281 C 91.027344 109.15625 90.09375 109.8125 89.246094 110.578125 C 85.757812 113.6875 83.914062 118.480469 84.375 123.117188 C 84.589844 125.433594 85.371094 127.707031 86.644531 129.671875 C 87.269531 130.65625 88.101562 131.5625 88.753906 132.277344 L 90.8125 134.566406 L 107.296875 152.875 L 137.894531 186.859375 C 136.546875 189.050781 135.40625 191.363281 134.488281 193.761719 L 114.445312 206.8125 C 114.324219 206.816406 114.210938 206.820312 114.082031 206.832031 C 113.171875 206.921875 112.273438 207.144531 111.425781 207.496094 C 108.007812 208.867188 105.628906 212.425781 105.679688 216.109375 L 105.683594 217.269531 C 105.695312 217.722656 105.742188 218.179688 105.820312 218.628906 C 105.976562 219.53125 106.265625 220.414062 106.679688 221.230469 C 107.503906 222.867188 108.816406 224.242188 110.410156 225.144531 C 111.207031 225.597656 112.070312 225.929688 112.964844 226.125 C 113.058594 226.148438 113.15625 226.152344 113.253906 226.171875 L 113.253906 235.472656 L 74.25 235.472656 L 33.75 255.882812 L 33.753906 255.894531 C 29.324219 257.535156 25.109375 259.757812 21.296875 262.542969 C 14.289062 267.628906 8.589844 274.5 4.910156 282.339844 C 1.203125 290.167969 -0.445312 298.949219 0.101562 307.582031 C 0.621094 316.222656 3.382812 324.722656 8.035156 332.023438 C 12.675781 339.335938 19.183594 345.441406 26.765625 349.617188 C 34.34375 353.8125 43.003906 356.015625 51.65625 356 L 296.289062 356 C 298.449219 355.996094 300.613281 355.859375 302.761719 355.59375 C 311.355469 354.539062 319.664062 351.238281 326.652344 346.136719 C 333.65625 341.046875 339.355469 334.179688 343.039062 326.34375 C 346.746094 318.511719 348.390625 309.730469 347.84375 301.097656 C 347.328125 292.457031 344.566406 283.957031 339.910156 276.65625 C 335.273438 269.34375 328.765625 263.238281 321.179688 259.066406 C 318.085938 257.351562 314.804688 255.988281 311.417969 254.953125 L 272.761719 235.472656 L 234.695312 235.472656 L 234.695312 226.160156 C 235.320312 226.042969 235.933594 225.882812 236.519531 225.640625 C 239.9375 224.269531 242.316406 220.714844 242.269531 217.027344 L 242.265625 215.871094 C 242.253906 215.414062 242.207031 214.960938 242.132812 214.507812 C 241.972656 213.601562 241.683594 212.722656 241.269531 211.90625 C 240.5 210.386719 239.300781 209.109375 237.855469 208.210938 L 237.867188 208.195312 L 237.695312 208.101562 C 237.640625 208.070312 237.59375 208.027344 237.535156 207.996094 C 237.460938 207.953125 237.375 207.921875 237.296875 207.882812 L 211.566406 193.699219 C 209.492188 188.332031 206.328125 183.386719 202.234375 179.335938 C 200.859375 177.945312 199.375 176.660156 197.808594 175.488281 L 138.230469 119.347656 L 197.296875 73.195312 "/>
</g>
<path style=" stroke:none;fill-rule:nonzero;fill:rgb(13.729858%,12.159729%,12.548828%);fill-opacity:1;" d="M 54.597656 269.519531 C 45.472656 269.46875 36.398438 273.234375 29.976562 279.71875 C 23.492188 286.136719 19.726562 295.210938 19.78125 304.339844 C 19.726562 313.46875 23.492188 322.542969 29.976562 328.964844 C 36.402344 335.445312 45.472656 339.210938 54.601562 339.160156 C 63.726562 339.210938 72.800781 335.445312 79.226562 328.964844 C 85.707031 322.539062 89.472656 313.464844 89.425781 304.339844 C 89.472656 295.210938 85.707031 286.136719 79.226562 279.714844 C 72.800781 273.234375 63.726562 269.46875 54.597656 269.519531 M 76.75 326.484375 C 70.960938 332.320312 62.824219 335.703125 54.601562 335.660156 C 46.382812 335.703125 38.242188 332.320312 32.453125 326.488281 C 26.617188 320.703125 23.238281 312.558594 23.28125 304.339844 C 23.238281 296.117188 26.617188 287.980469 32.453125 282.191406 C 38.238281 276.355469 46.382812 272.976562 54.597656 273.019531 C 62.820312 272.976562 70.960938 276.355469 76.75 282.191406 C 82.585938 287.976562 85.964844 296.117188 85.921875 304.339844 C 85.964844 312.558594 82.585938 320.699219 76.75 326.484375 "/>
<path style=" stroke:none;fill-rule:nonzero;fill:rgb(13.729858%,12.159729%,12.548828%);fill-opacity:1;" d="M 173.972656 269.519531 C 164.84375 269.46875 155.769531 273.234375 149.351562 279.71875 C 142.867188 286.136719 139.101562 295.210938 139.152344 304.339844 C 139.101562 313.46875 142.867188 322.542969 149.351562 328.964844 C 155.773438 335.445312 164.847656 339.210938 173.972656 339.160156 C 183.101562 339.210938 192.175781 335.445312 198.597656 328.964844 C 205.082031 322.539062 208.847656 313.464844 208.796875 304.339844 C 208.847656 295.210938 205.082031 286.136719 198.597656 279.714844 C 192.175781 273.234375 183.101562 269.46875 173.972656 269.519531 M 196.121094 326.484375 C 190.335938 332.320312 182.195312 335.703125 173.972656 335.660156 C 165.753906 335.703125 157.613281 332.320312 151.828125 326.488281 C 145.988281 320.699219 142.613281 312.558594 142.652344 304.339844 C 142.613281 296.117188 145.988281 287.980469 151.824219 282.191406 C 157.613281 276.355469 165.753906 272.976562 173.972656 273.019531 C 182.195312 272.976562 190.335938 276.355469 196.121094 282.191406 C 201.957031 287.976562 205.335938 296.117188 205.292969 304.339844 C 205.335938 312.558594 201.957031 320.699219 196.121094 326.484375 "/>
<path style=" stroke:none;fill-rule:nonzero;fill:rgb(13.729858%,12.159729%,12.548828%);fill-opacity:1;" d="M 292.941406 269.519531 C 283.8125 269.46875 274.738281 273.234375 268.316406 279.71875 C 261.835938 286.136719 258.066406 295.210938 258.117188 304.339844 C 258.066406 313.46875 261.835938 322.542969 268.316406 328.964844 C 274.742188 335.445312 283.816406 339.210938 292.941406 339.160156 C 302.070312 339.210938 311.144531 335.445312 317.566406 328.964844 C 324.050781 322.539062 327.816406 313.464844 327.761719 304.339844 C 327.816406 295.210938 324.050781 286.136719 317.566406 279.714844 C 311.144531 273.234375 302.070312 269.46875 292.941406 269.519531 M 315.089844 326.484375 C 309.300781 332.320312 301.164062 335.703125 292.941406 335.660156 C 284.722656 335.703125 276.582031 332.320312 270.796875 326.488281 C 264.957031 320.699219 261.578125 312.558594 261.621094 304.339844 C 261.578125 296.117188 264.957031 287.980469 270.792969 282.191406 C 276.582031 276.355469 284.71875 272.976562 292.941406 273.019531 C 301.160156 272.976562 309.300781 276.355469 315.089844 282.191406 C 320.925781 287.976562 324.304688 296.117188 324.261719 304.339844 C 324.304688 312.558594 320.925781 320.699219 315.089844 326.484375 "/>
<path style=" stroke:none;fill-rule:nonzero;fill:rgb(100%,100%,100%);fill-opacity:1;" d="M 154.039062 1.851562 C 154.039062 1.851562 127.933594 1.851562 127.933594 27.960938 L 127.933594 48.050781 C 127.933594 48.050781 127.933594 74.15625 154.039062 74.15625 L 261.546875 74.15625 C 261.546875 74.15625 287.652344 74.15625 287.652344 48.050781 L 287.652344 27.960938 C 287.652344 27.960938 287.652344 1.851562 261.546875 1.851562 L 154.039062 1.851562 "/>
<g clip-path="url(#clip2)" clip-rule="nonzero">
<path style=" stroke:none;fill-rule:nonzero;fill:rgb(13.729858%,12.159729%,12.548828%);fill-opacity:1;" d="M 129.632812 61.886719 C 126.171875 54.9375 126.191406 48.195312 126.183594 48.050781 L 126.183594 27.960938 C 126.121094 14.285156 133.242188 6.953125 140.203125 3.550781 C 147.148438 0.0898438 153.890625 0.113281 154.039062 0.101562 L 154.039062 3.601562 C 154.035156 3.605469 153.707031 3.601562 153.042969 3.648438 C 152.375 3.695312 151.40625 3.792969 150.246094 3.988281 C 147.921875 4.371094 144.820312 5.152344 141.765625 6.679688 C 135.671875 9.804688 129.742188 15.523438 129.683594 27.960938 L 129.683594 48.050781 C 129.683594 48.050781 129.679688 48.378906 129.730469 49.046875 C 129.773438 49.714844 129.871094 50.679688 130.066406 51.839844 C 130.453125 54.164062 131.230469 57.265625 132.757812 60.320312 C 135.882812 66.414062 141.605469 72.34375 154.039062 72.40625 L 261.542969 72.40625 C 261.542969 72.402344 261.875 72.40625 262.542969 72.359375 C 263.207031 72.3125 264.175781 72.214844 265.335938 72.019531 C 267.660156 71.636719 270.761719 70.855469 273.816406 69.328125 C 279.910156 66.203125 285.839844 60.480469 285.898438 48.050781 L 285.898438 27.960938 C 285.898438 27.957031 285.902344 27.628906 285.851562 26.960938 C 285.808594 26.292969 285.710938 25.328125 285.515625 24.164062 C 285.128906 21.84375 284.351562 18.742188 282.824219 15.6875 C 279.699219 9.59375 273.980469 3.660156 261.542969 3.601562 L 154.039062 3.601562 L 154.039062 0.101562 L 261.542969 0.101562 C 275.214844 0.0390625 282.550781 7.164062 285.953125 14.121094 C 289.414062 21.070312 289.390625 27.8125 289.402344 27.960938 L 289.402344 48.050781 C 289.460938 61.722656 282.339844 69.054688 275.378906 72.457031 C 268.433594 75.914062 261.691406 75.894531 261.542969 75.90625 L 154.039062 75.90625 C 153.980469 75.90625 153.921875 75.90625 153.863281 75.90625 C 140.304688 75.90625 133.019531 68.8125 129.632812 61.886719 "/>
</g>
<path style=" stroke:none;fill-rule:nonzero;fill:rgb(100%,100%,100%);fill-opacity:1;" d="M 171.441406 64.300781 C 185.738281 64.300781 197.328125 52.710938 197.328125 38.414062 C 197.328125 24.117188 185.738281 12.527344 171.441406 12.527344 C 157.144531 12.527344 145.554688 24.117188 145.554688 38.414062 C 145.554688 52.710938 157.144531 64.300781 171.441406 64.300781 "/>
<path style=" stroke:none;fill-rule:nonzero;fill:rgb(13.729858%,12.159729%,12.548828%);fill-opacity:1;" d="M 143.800781 38.414062 C 143.804688 23.148438 156.175781 10.777344 171.441406 10.777344 C 186.703125 10.777344 199.074219 23.148438 199.078125 38.414062 C 199.074219 53.679688 186.703125 66.050781 171.441406 66.050781 L 171.441406 62.550781 C 184.769531 62.527344 195.550781 51.742188 195.574219 38.414062 C 195.550781 25.085938 184.769531 14.300781 171.441406 14.277344 C 158.109375 14.300781 147.328125 25.085938 147.300781 38.414062 C 147.328125 51.742188 158.109375 62.527344 171.441406 62.550781 L 171.441406 66.050781 C 156.175781 66.050781 143.804688 53.679688 143.800781 38.414062 "/>
<path style=" stroke:none;fill-rule:nonzero;fill:rgb(13.729858%,12.159729%,12.548828%);fill-opacity:1;" d="M 164.953125 50.832031 C 161.511719 50.855469 158.078125 49.429688 155.660156 46.984375 C 153.214844 44.566406 151.792969 41.136719 151.8125 37.695312 C 151.792969 34.253906 153.214844 30.824219 155.660156 28.402344 C 158.078125 25.960938 161.511719 24.53125 164.949219 24.554688 C 168.390625 24.53125 171.824219 25.957031 174.242188 28.402344 C 176.6875 30.820312 178.109375 34.253906 178.089844 37.695312 C 178.113281 41.132812 176.6875 44.566406 174.246094 46.984375 C 171.824219 49.429688 168.394531 50.855469 164.953125 50.832031 M 171.671875 30.976562 C 169.910156 29.203125 167.449219 28.179688 164.949219 28.191406 C 162.453125 28.179688 159.992188 29.203125 158.230469 30.976562 C 156.460938 32.734375 155.4375 35.195312 155.449219 37.695312 C 155.4375 40.191406 156.460938 42.652344 158.230469 44.414062 C 159.992188 46.1875 162.457031 47.207031 164.953125 47.195312 C 167.449219 47.207031 169.910156 46.1875 171.671875 44.414062 C 173.445312 42.652344 174.46875 40.191406 174.453125 37.695312 C 174.464844 35.195312 173.445312 32.734375 171.671875 30.976562 "/>
<path style=" stroke:none;fill-rule:nonzero;fill:rgb(13.729858%,12.159729%,12.548828%);fill-opacity:1;" d="M 164.953125 43.707031 C 161.570312 43.707031 158.828125 40.96875 158.828125 37.585938 C 158.828125 34.765625 160.738281 32.390625 163.335938 31.679688 L 163.335938 38.449219 L 166.570312 38.449219 L 166.570312 31.679688 C 169.164062 32.390625 171.074219 34.765625 171.074219 37.585938 C 171.074219 40.96875 168.332031 43.707031 164.953125 43.707031 "/>
<path style=" stroke:none;fill-rule:nonzero;fill:rgb(100%,100%,100%);fill-opacity:1;" d="M 245.277344 64.300781 C 259.574219 64.300781 271.167969 52.710938 271.167969 38.414062 C 271.167969 24.117188 259.574219 12.527344 245.277344 12.527344 C 230.980469 12.527344 219.390625 24.117188 219.390625 38.414062 C 219.390625 52.710938 230.980469 64.300781 245.277344 64.300781 "/>
<path style=" stroke:none;fill-rule:nonzero;fill:rgb(13.729858%,12.159729%,12.548828%);fill-opacity:1;" d="M 217.640625 38.414062 C 217.640625 23.148438 230.011719 10.777344 245.277344 10.777344 C 260.542969 10.777344 272.914062 23.148438 272.914062 38.414062 C 272.914062 53.675781 260.542969 66.050781 245.277344 66.050781 L 245.277344 62.550781 C 258.605469 62.527344 269.390625 51.742188 269.414062 38.414062 C 269.390625 25.082031 258.605469 14.300781 245.277344 14.277344 C 231.945312 14.300781 221.164062 25.082031 221.140625 38.414062 C 221.164062 51.742188 231.945312 62.527344 245.277344 62.550781 L 245.277344 66.050781 C 230.011719 66.050781 217.640625 53.675781 217.640625 38.414062 "/>
<path style=" stroke:none;fill-rule:nonzero;fill:rgb(13.729858%,12.159729%,12.548828%);fill-opacity:1;" d="M 238.789062 50.832031 C 235.351562 50.855469 231.917969 49.429688 229.5 46.984375 C 227.054688 44.566406 225.628906 41.136719 225.652344 37.695312 C 225.628906 34.253906 227.054688 30.824219 229.496094 28.402344 C 231.917969 25.960938 235.351562 24.53125 238.789062 24.554688 C 242.230469 24.53125 245.664062 25.957031 248.082031 28.402344 C 250.527344 30.820312 251.949219 34.253906 251.929688 37.695312 C 251.949219 41.132812 250.527344 44.566406 248.082031 46.984375 C 245.664062 49.429688 242.234375 50.855469 238.789062 50.832031 M 245.511719 30.976562 C 243.75 29.203125 241.289062 28.179688 238.789062 28.191406 C 236.292969 28.179688 233.832031 29.203125 232.070312 30.976562 C 230.296875 32.734375 229.277344 35.195312 229.289062 37.695312 C 229.277344 40.191406 230.296875 42.652344 232.070312 44.414062 C 233.832031 46.1875 236.292969 47.207031 238.789062 47.195312 C 241.289062 47.207031 243.75 46.1875 245.511719 44.414062 C 247.28125 42.652344 248.304688 40.191406 248.292969 37.695312 C 248.304688 35.195312 247.28125 32.734375 245.511719 30.976562 "/>
<path style=" stroke:none;fill-rule:nonzero;fill:rgb(13.729858%,12.159729%,12.548828%);fill-opacity:1;" d="M 238.789062 43.707031 C 235.410156 43.707031 232.667969 40.96875 232.667969 37.585938 C 232.667969 34.765625 234.578125 32.390625 237.171875 31.679688 L 237.171875 38.449219 L 240.40625 38.449219 L 240.40625 31.679688 C 243.003906 32.390625 244.914062 34.765625 244.914062 37.585938 C 244.914062 40.96875 242.171875 43.707031 238.789062 43.707031 "/>
<path style=" stroke:none;fill-rule:nonzero;fill:rgb(13.729858%,12.159729%,12.548828%);fill-opacity:1;" d="M 206.304688 75.367188 L 206.304688 1.65625 L 209.808594 1.65625 L 209.808594 75.367188 L 206.304688 75.367188 "/>
</g>
</svg>
