<?xml version="1.0" encoding="UTF-8"?>
<svg xmlns="http://www.w3.org/2000/svg" xmlns:xlink="http://www.w3.org/1999/xlink" width="321pt" height="300pt" viewBox="0 0 321 300" version="1.1">
<defs>
<clipPath id="clip1">
  <path d="M 0 0.300781 L 320.730469 0.300781 L 320.730469 300 L 0 300 Z M 0 0.300781 "/>
</clipPath>
</defs>
<g id="surface1">
<path style=" stroke:none;fill-rule:nonzero;fill:rgb(13.729858%,12.159729%,12.548828%);fill-opacity:1;" d="M 107.152344 150.230469 C 104.839844 147.914062 102.066406 146.058594 99.035156 144.800781 C 96.011719 143.542969 92.726562 142.898438 89.460938 142.902344 C 86.191406 142.898438 82.90625 143.542969 79.878906 144.800781 C 76.851562 146.058594 74.078125 147.914062 71.765625 150.230469 C 69.449219 152.546875 67.589844 155.316406 66.339844 158.34375 C 65.082031 161.375 64.433594 164.652344 64.4375 167.925781 C 64.433594 171.195312 65.082031 174.476562 66.339844 177.507812 C 67.59375 180.535156 69.449219 183.300781 71.765625 185.617188 C 74.078125 187.933594 76.851562 189.792969 79.882812 191.050781 C 82.90625 192.304688 86.191406 192.949219 89.460938 192.949219 C 92.726562 192.949219 96.011719 192.304688 99.035156 191.050781 C 102.066406 189.792969 104.839844 187.933594 107.152344 185.617188 C 109.46875 183.300781 111.328125 180.535156 112.582031 177.507812 C 113.839844 174.476562 114.484375 171.195312 114.484375 167.925781 C 114.484375 164.652344 113.839844 161.375 112.582031 158.34375 C 111.328125 155.316406 109.46875 152.546875 107.152344 150.230469 M 104.445312 182.910156 C 100.527344 186.863281 95.023438 189.148438 89.460938 189.121094 C 83.894531 189.148438 78.390625 186.863281 74.472656 182.910156 C 70.523438 178.996094 68.234375 173.488281 68.261719 167.925781 C 68.234375 162.355469 70.519531 156.851562 74.472656 152.9375 C 78.390625 148.984375 83.894531 146.699219 89.460938 146.726562 C 95.023438 146.699219 100.527344 148.984375 104.445312 152.9375 C 108.398438 156.851562 110.683594 162.355469 110.65625 167.925781 C 110.683594 173.488281 108.398438 178.996094 104.445312 182.910156 "/>
<g clip-path="url(#clip1)" clip-rule="nonzero">
<path style=" stroke:none;fill-rule:nonzero;fill:rgb(13.729858%,12.159729%,12.548828%);fill-opacity:1;" d="M 317.859375 10.535156 C 317.011719 10.046875 315.957031 9.800781 315.042969 9.816406 L 291.203125 9.816406 C 290.851562 8.015625 290.078125 6.273438 288.9375 4.835938 C 287.324219 2.757812 284.992188 1.238281 282.417969 0.628906 C 281.777344 0.476562 281.121094 0.375 280.46875 0.332031 C 280.152344 0.308594 279.777344 0.304688 279.507812 0.300781 L 265.429688 0.300781 C 264.875 0.308594 264.363281 0.292969 263.660156 0.320312 C 263.007812 0.359375 262.355469 0.460938 261.707031 0.605469 C 259.128906 1.1875 256.777344 2.683594 255.144531 4.75 C 254.660156 5.347656 254.253906 6.003906 253.898438 6.6875 L 198.410156 6.6875 L 197.042969 3.933594 L 136.492188 34.070312 L 136.515625 34.117188 L 61.328125 34.117188 C 60.328125 34.117188 59.285156 34.144531 58.269531 34.21875 C 56.222656 34.378906 54.1875 34.691406 52.195312 35.1875 C 44.207031 37.128906 36.957031 41.84375 31.90625 48.316406 C 30.148438 50.535156 28.667969 52.972656 27.472656 55.542969 L 27.367188 55.386719 C 17.136719 62.554688 9.0625 72.753906 4.480469 84.390625 C -0.136719 96.007812 -1.199219 108.96875 1.355469 121.195312 C 3.882812 133.441406 10.132812 144.863281 19.019531 153.636719 C 27.523438 162.101562 38.449219 168.089844 50.164062 170.699219 C 50.460938 174.921875 51.425781 179.09375 53.046875 183.007812 C 54.789062 187.207031 57.269531 191.09375 60.324219 194.453125 L 60.324219 263.5 L 50.007812 263.5 C 49.132812 263.503906 48.21875 263.519531 47.324219 263.59375 C 40.128906 264.066406 33.121094 266.910156 27.605469 271.546875 C 22.070312 276.160156 18.03125 282.542969 16.265625 289.539062 C 15.820312 291.285156 15.511719 293.066406 15.347656 294.859375 L 15.289062 295.527344 L 15.238281 296.433594 C 15.207031 297.277344 15.195312 298.113281 15.1875 298.960938 L 15.171875 299.589844 L 15.167969 299.90625 C 15.148438 299.984375 15.21875 299.964844 15.273438 299.96875 L 15.429688 299.96875 L 16.691406 299.980469 L 19.148438 300 L 159.539062 300 L 161.777344 299.984375 L 163.042969 299.972656 L 163.675781 299.964844 C 163.738281 299.984375 163.761719 299.953125 163.75 299.882812 L 163.738281 299.726562 L 163.738281 299.402344 L 163.695312 296.886719 C 163.695312 296.675781 163.683594 296.460938 163.671875 296.257812 L 163.644531 295.769531 C 163.632812 295.542969 163.613281 295.320312 163.597656 295.09375 C 163.523438 294.199219 163.40625 293.300781 163.253906 292.410156 C 162.96875 290.640625 162.53125 288.886719 161.964844 287.171875 C 159.699219 280.320312 155.222656 274.246094 149.371094 270.035156 C 143.546875 265.796875 136.339844 263.480469 129.136719 263.5 L 118.59375 263.5 L 118.59375 204.339844 L 169.445312 204.339844 L 173.246094 204.335938 C 174.558594 204.3125 175.878906 204.238281 177.203125 204.082031 C 179.835938 203.773438 182.484375 203.152344 185 202.09375 C 187.519531 201.042969 189.886719 199.53125 191.859375 197.597656 C 193.847656 195.664062 195.421875 193.351562 196.558594 190.882812 C 197.699219 188.414062 198.429688 185.792969 198.824219 183.148438 C 199.019531 181.828125 199.140625 180.5 199.167969 179.15625 C 199.171875 178.816406 199.179688 178.476562 199.167969 178.136719 L 199.152344 177.609375 L 199.148438 177.472656 C 199.144531 177.414062 199.144531 177.457031 199.144531 177.441406 L 199.144531 33.296875 L 209.175781 28.300781 L 207.121094 24.183594 L 253.898438 24.183594 C 254.230469 24.835938 254.621094 25.460938 255.082031 26.035156 C 256.691406 28.113281 259.027344 29.628906 261.597656 30.242188 C 262.242188 30.394531 262.894531 30.496094 263.554688 30.535156 C 263.871094 30.5625 264.238281 30.5625 264.511719 30.566406 L 278.589844 30.566406 C 279.148438 30.5625 279.648438 30.578125 280.355469 30.542969 C 281.011719 30.507812 281.664062 30.410156 282.3125 30.265625 C 284.886719 29.679688 287.234375 28.1875 288.871094 26.117188 C 290.046875 24.660156 290.84375 22.894531 291.203125 21.054688 L 315.042969 21.054688 C 315.957031 21.070312 317.011719 20.820312 317.859375 20.332031 C 319.605469 19.378906 320.753906 17.425781 320.730469 15.433594 C 320.753906 13.441406 319.605469 11.492188 317.859375 10.535156 M 34.914062 50.675781 C 39.445312 44.871094 45.957031 40.644531 53.109375 38.902344 C 54.894531 38.460938 56.71875 38.179688 58.550781 38.035156 C 59.476562 37.96875 60.378906 37.945312 61.328125 37.941406 L 137.210938 37.941406 C 138.15625 37.945312 139.058594 37.96875 139.980469 38.035156 C 141.816406 38.179688 143.644531 38.460938 145.429688 38.902344 C 152.578125 40.644531 159.089844 44.871094 163.625 50.675781 C 168.191406 56.460938 170.710938 63.789062 170.691406 71.160156 C 170.710938 78.535156 168.191406 85.859375 163.621094 91.648438 C 159.089844 97.449219 152.578125 101.679688 145.425781 103.417969 C 143.640625 103.859375 141.816406 104.140625 139.980469 104.285156 C 139.058594 104.355469 138.15625 104.378906 137.207031 104.378906 L 61.328125 104.378906 C 60.375 104.378906 59.476562 104.355469 58.550781 104.285156 C 56.71875 104.140625 54.894531 103.859375 53.109375 103.417969 C 45.957031 101.679688 39.445312 97.449219 34.914062 91.648438 C 30.34375 85.859375 27.824219 78.535156 27.847656 71.160156 C 27.824219 63.789062 30.34375 56.460938 34.914062 50.675781 M 184.875 172.070312 C 184.671875 176.21875 183.445312 180.386719 180.96875 183.53125 C 179.738281 185.105469 178.199219 186.40625 176.441406 187.378906 C 174.6875 188.347656 172.726562 188.996094 170.679688 189.371094 C 169.65625 189.566406 168.613281 189.6875 167.558594 189.757812 C 166.503906 189.828125 165.464844 189.824219 164.316406 189.820312 L 122.21875 189.820312 C 123.652344 187.679688 124.882812 185.390625 125.871094 183.007812 C 127.605469 178.832031 128.597656 174.351562 128.8125 169.835938 L 154.695312 169.835938 L 154.695312 103.957031 C 159.3125 101.523438 163.417969 98.121094 166.636719 94.007812 C 171.726562 87.5625 174.539062 79.363281 174.515625 71.160156 C 174.539062 63.308594 171.957031 55.464844 167.269531 49.160156 L 184.871094 40.402344 L 184.871094 145.1875 Z M 50.085938 166.761719 C 39.421875 164.207031 29.492188 158.660156 21.714844 150.925781 C 13.355469 142.664062 7.472656 131.921875 5.101562 120.414062 C 2.695312 108.921875 3.699219 96.710938 8.039062 85.792969 C 11.667969 76.578125 17.640625 68.316406 25.191406 61.910156 C 24.414062 64.929688 24.007812 68.042969 24.019531 71.160156 C 23.996094 79.363281 26.8125 87.5625 31.898438 94.007812 C 36.957031 100.476562 44.207031 105.191406 52.195312 107.132812 C 54.1875 107.628906 56.222656 107.941406 58.269531 108.101562 C 59.285156 108.175781 60.328125 108.207031 61.328125 108.207031 L 137.207031 108.207031 C 138.207031 108.207031 139.25 108.175781 140.265625 108.101562 C 142.3125 107.941406 144.347656 107.628906 146.339844 107.132812 C 147.882812 106.757812 149.394531 106.277344 150.871094 105.703125 L 150.871094 166.011719 L 128.8125 166.011719 C 128.597656 161.496094 127.605469 157.019531 125.871094 152.84375 C 123.894531 148.070312 120.96875 143.710938 117.320312 140.0625 C 113.675781 136.414062 109.308594 133.488281 104.539062 131.515625 C 99.773438 129.53125 94.613281 128.519531 89.460938 128.519531 C 84.304688 128.519531 79.144531 129.53125 74.378906 131.515625 C 69.609375 133.488281 65.242188 136.414062 61.597656 140.0625 C 57.949219 143.710938 55.027344 148.070312 53.046875 152.84375 C 51.21875 157.25 50.222656 162 50.085938 166.761719 M 129.136719 267.328125 C 135.554688 267.3125 141.941406 269.367188 147.128906 273.136719 C 152.335938 276.886719 156.324219 282.296875 158.335938 288.378906 C 158.835938 289.898438 159.226562 291.457031 159.484375 293.039062 C 159.613281 293.828125 159.71875 294.621094 159.785156 295.425781 L 159.835938 296.175781 L 19.082031 296.175781 L 19.101562 295.808594 L 19.152344 295.210938 C 19.300781 293.613281 19.574219 292.035156 19.96875 290.476562 C 21.535156 284.269531 25.132812 278.585938 30.058594 274.484375 C 34.96875 270.359375 41.191406 267.832031 47.589844 267.410156 C 48.398438 267.34375 49.179688 267.332031 50.007812 267.328125 Z M 64.152344 263.5 L 64.152344 198.117188 C 67.222656 200.6875 70.675781 202.804688 74.378906 204.335938 C 79.144531 206.3125 84.304688 207.328125 89.460938 207.328125 C 94.613281 207.328125 99.773438 206.3125 104.539062 204.335938 C 108.238281 202.796875 111.695312 200.6875 114.765625 198.117188 L 114.765625 263.5 Z M 117.484375 189.820312 L 117.113281 189.820312 L 117.113281 190.296875 C 116.328125 191.265625 115.5 192.199219 114.617188 193.082031 C 111.324219 196.375 107.375 199.019531 103.074219 200.800781 C 98.777344 202.589844 94.121094 203.503906 89.460938 203.503906 C 84.796875 203.503906 80.140625 202.589844 75.84375 200.800781 C 71.539062 199.019531 67.59375 196.375 64.300781 193.082031 C 61.011719 189.785156 58.363281 185.839844 56.582031 181.539062 C 54.792969 177.242188 53.882812 172.589844 53.882812 167.921875 C 53.882812 163.261719 54.792969 158.605469 56.582031 154.308594 C 58.363281 150.007812 61.011719 146.058594 64.300781 142.765625 C 67.59375 139.476562 71.539062 136.828125 75.84375 135.050781 C 80.140625 133.261719 84.796875 132.347656 89.460938 132.347656 C 94.121094 132.347656 98.777344 133.261719 103.074219 135.050781 C 107.375 136.828125 111.324219 139.476562 114.617188 142.765625 C 117.910156 146.058594 120.554688 150.007812 122.335938 154.308594 C 124.125 158.605469 125.035156 163.261719 125.035156 167.921875 C 125.035156 172.589844 124.125 177.242188 122.335938 181.539062 C 121.105469 184.503906 119.464844 187.296875 117.484375 189.820312 M 195.347656 179.074219 C 195.316406 180.242188 195.210938 181.417969 195.039062 182.585938 C 194.347656 187.230469 192.457031 191.695312 189.195312 194.851562 C 185.953125 198.046875 181.449219 199.757812 176.753906 200.277344 C 175.578125 200.421875 174.386719 200.488281 173.191406 200.507812 L 169.445312 200.511719 L 118.59375 200.511719 L 118.59375 194.453125 C 118.832031 194.191406 119.054688 193.921875 119.289062 193.648438 L 164.316406 193.648438 C 165.414062 193.648438 166.621094 193.65625 167.808594 193.570312 C 168.996094 193.5 170.1875 193.359375 171.382812 193.140625 C 173.75 192.695312 176.117188 191.929688 178.300781 190.726562 C 180.480469 189.523438 182.4375 187.867188 183.980469 185.894531 C 185.523438 183.929688 186.652344 181.6875 187.40625 179.371094 C 188.171875 177.050781 188.578125 174.65625 188.695312 172.242188 L 188.695312 38.496094 L 195.316406 35.203125 L 195.316406 177.492188 C 195.3125 177.558594 195.324219 177.679688 195.324219 177.699219 L 195.332031 177.796875 L 195.347656 178.210938 C 195.355469 178.496094 195.347656 178.785156 195.347656 179.074219 M 164.777344 46.128906 C 159.878906 40.789062 153.394531 36.902344 146.339844 35.1875 C 145.523438 34.984375 144.699219 34.820312 143.871094 34.675781 L 195.324219 9.066406 L 204.042969 26.585938 Z M 252.695312 20.355469 L 205.21875 20.355469 L 200.316406 10.511719 L 252.699219 10.511719 C 252.632812 11.03125 252.585938 11.554688 252.585938 12.074219 L 252.585938 18.699219 C 252.574219 19.253906 252.628906 19.804688 252.695312 20.355469 M 256.410156 18.699219 L 256.410156 12.074219 C 256.410156 11.550781 256.472656 11.023438 256.574219 10.511719 L 280.40625 10.511719 C 281.476562 10.503906 282.050781 10.492188 282.730469 10.695312 C 284.058594 11.0625 285.210938 12.027344 285.8125 13.269531 C 286.425781 14.492188 286.476562 16.007812 285.957031 17.269531 C 285.457031 18.554688 284.367188 19.59375 283.074219 20.0625 C 282.753906 20.175781 282.417969 20.261719 282.078125 20.308594 C 281.726562 20.355469 281.441406 20.355469 280.910156 20.355469 L 256.574219 20.355469 C 256.464844 19.816406 256.40625 19.261719 256.410156 18.699219 M 285.878906 23.734375 C 284.769531 25.136719 283.179688 26.148438 281.449219 26.535156 C 280.558594 26.753906 279.785156 26.746094 278.589844 26.738281 L 264.511719 26.738281 C 264.230469 26.738281 264.046875 26.738281 263.8125 26.722656 C 263.367188 26.695312 262.925781 26.628906 262.496094 26.519531 C 260.976562 26.160156 259.578125 25.332031 258.519531 24.183594 L 280.910156 24.183594 C 281.328125 24.183594 282.007812 24.1875 282.601562 24.097656 C 283.203125 24.015625 283.804688 23.867188 284.378906 23.65625 C 285.242188 23.347656 286.054688 22.894531 286.769531 22.332031 C 286.523438 22.828125 286.230469 23.300781 285.878906 23.734375 M 283.769531 7.015625 C 283.179688 6.851562 282.574219 6.746094 281.96875 6.703125 C 281.292969 6.671875 280.910156 6.695312 280.40625 6.6875 L 258.523438 6.6875 C 259.601562 5.519531 261.027344 4.683594 262.566406 4.335938 C 263.464844 4.117188 264.234375 4.117188 265.429688 4.128906 L 279.507812 4.128906 C 279.792969 4.132812 279.972656 4.128906 280.207031 4.148438 C 280.652344 4.175781 281.089844 4.246094 281.523438 4.347656 C 283.253906 4.757812 284.835938 5.78125 285.925781 7.1875 C 286.261719 7.617188 286.539062 8.078125 286.78125 8.558594 C 285.890625 7.855469 284.867188 7.320312 283.769531 7.015625 M 315.984375 17 C 315.695312 17.152344 315.4375 17.234375 315.042969 17.226562 L 291.433594 17.226562 L 291.433594 13.644531 L 315.042969 13.644531 C 315.4375 13.640625 315.695312 13.71875 315.984375 13.871094 C 316.546875 14.183594 316.914062 14.796875 316.90625 15.433594 C 316.914062 16.074219 316.546875 16.6875 315.984375 17 "/>
</g>
<path style=" stroke:none;fill-rule:nonzero;fill:rgb(100%,100%,100%);fill-opacity:1;" d="M 67.9375 96.558594 C 54.261719 96.558594 43.171875 85.472656 43.171875 71.792969 C 43.171875 58.117188 54.261719 47.035156 67.9375 47.035156 C 81.613281 47.035156 92.699219 58.117188 92.699219 71.792969 C 92.699219 85.472656 81.613281 96.558594 67.9375 96.558594 "/>
<path style=" stroke:none;fill-rule:nonzero;fill:rgb(13.729858%,12.159729%,12.548828%);fill-opacity:1;" d="M 41.421875 71.796875 C 41.425781 57.148438 53.292969 45.285156 67.9375 45.285156 C 82.578125 45.285156 94.449219 57.148438 94.449219 71.796875 C 94.449219 86.4375 82.578125 98.308594 67.9375 98.308594 L 67.9375 94.804688 C 80.644531 94.785156 90.925781 84.507812 90.949219 71.796875 C 90.925781 59.085938 80.644531 48.808594 67.9375 48.785156 C 55.226562 48.808594 44.945312 59.085938 44.925781 71.796875 C 44.945312 84.507812 55.226562 94.785156 67.9375 94.804688 L 67.9375 98.308594 C 53.292969 98.308594 41.425781 86.4375 41.421875 71.796875 "/>
<path style=" stroke:none;fill-rule:nonzero;fill:rgb(13.729858%,12.159729%,12.548828%);fill-opacity:1;" d="M 67.9375 85.296875 C 71.46875 85.320312 75 83.855469 77.480469 81.34375 C 79.996094 78.855469 81.457031 75.335938 81.4375 71.796875 C 81.457031 68.261719 79.996094 64.734375 77.488281 62.25 C 75 59.734375 71.46875 58.273438 67.9375 58.296875 C 64.402344 58.273438 60.875 59.734375 58.390625 62.246094 C 55.875 64.730469 54.414062 68.257812 54.433594 71.792969 C 54.414062 75.328125 55.875 78.855469 58.386719 81.339844 C 60.875 83.855469 64.402344 85.316406 67.9375 85.296875 M 61.03125 64.890625 C 62.84375 63.070312 65.371094 62.019531 67.9375 62.03125 C 70.503906 62.019531 73.035156 63.070312 74.84375 64.890625 C 76.664062 66.699219 77.710938 69.230469 77.699219 71.796875 C 77.710938 74.363281 76.664062 76.890625 74.84375 78.699219 C 73.035156 80.519531 70.503906 81.570312 67.9375 81.558594 C 65.367188 81.570312 62.839844 80.519531 61.03125 78.699219 C 59.210938 76.890625 58.160156 74.363281 58.171875 71.792969 C 58.160156 69.226562 59.210938 66.699219 61.03125 64.890625 "/>
<path style=" stroke:none;fill-rule:nonzero;fill:rgb(13.729858%,12.159729%,12.548828%);fill-opacity:1;" d="M 67.9375 77.972656 C 71.410156 77.972656 74.226562 75.15625 74.226562 71.683594 C 74.226562 68.785156 72.265625 66.34375 69.601562 65.613281 L 69.601562 72.570312 L 66.277344 72.570312 L 66.277344 65.613281 C 63.605469 66.34375 61.648438 68.785156 61.648438 71.683594 C 61.648438 75.15625 64.464844 77.972656 67.9375 77.972656 "/>
<path style=" stroke:none;fill-rule:nonzero;fill:rgb(100%,100%,100%);fill-opacity:1;" d="M 130.703125 96.558594 C 117.027344 96.558594 105.9375 85.472656 105.9375 71.792969 C 105.9375 58.117188 117.027344 47.035156 130.703125 47.035156 C 144.375 47.035156 155.464844 58.117188 155.464844 71.792969 C 155.464844 85.472656 144.375 96.558594 130.703125 96.558594 "/>
<path style=" stroke:none;fill-rule:nonzero;fill:rgb(13.729858%,12.159729%,12.548828%);fill-opacity:1;" d="M 104.1875 71.792969 C 104.1875 57.152344 116.058594 45.285156 130.703125 45.285156 C 145.34375 45.285156 157.210938 57.152344 157.210938 71.792969 C 157.210938 86.441406 145.34375 98.308594 130.703125 98.308594 L 130.703125 94.808594 C 143.40625 94.785156 153.691406 84.503906 153.714844 71.792969 C 153.691406 59.085938 143.40625 48.808594 130.703125 48.785156 C 117.992188 48.808594 107.710938 59.085938 107.6875 71.792969 C 107.710938 84.503906 117.992188 94.785156 130.703125 94.808594 L 130.703125 98.308594 C 116.058594 98.308594 104.1875 86.441406 104.1875 71.792969 "/>
<path style=" stroke:none;fill-rule:nonzero;fill:rgb(13.729858%,12.159729%,12.548828%);fill-opacity:1;" d="M 130.703125 85.296875 C 134.234375 85.320312 137.761719 83.855469 140.246094 81.34375 C 142.757812 78.855469 144.222656 75.335938 144.203125 71.796875 C 144.222656 68.261719 142.757812 64.734375 140.25 62.25 C 137.761719 59.734375 134.234375 58.273438 130.703125 58.296875 C 127.164062 58.273438 123.636719 59.734375 121.15625 62.246094 C 118.640625 64.730469 117.179688 68.257812 117.199219 71.792969 C 117.179688 75.328125 118.640625 78.855469 121.152344 81.339844 C 123.636719 83.855469 127.164062 85.316406 130.703125 85.296875 M 123.796875 64.890625 C 125.609375 63.070312 128.136719 62.019531 130.703125 62.03125 C 133.269531 62.019531 135.796875 63.070312 137.605469 64.890625 C 139.429688 66.699219 140.476562 69.230469 140.464844 71.796875 C 140.476562 74.363281 139.429688 76.890625 137.605469 78.699219 C 135.796875 80.519531 133.269531 81.570312 130.703125 81.558594 C 128.132812 81.570312 125.605469 80.519531 123.796875 78.699219 C 121.976562 76.890625 120.925781 74.363281 120.9375 71.792969 C 120.925781 69.226562 121.976562 66.699219 123.796875 64.890625 "/>
<path style=" stroke:none;fill-rule:nonzero;fill:rgb(13.729858%,12.159729%,12.548828%);fill-opacity:1;" d="M 130.703125 77.972656 C 134.175781 77.972656 136.992188 75.15625 136.992188 71.683594 C 136.992188 68.785156 135.03125 66.34375 132.363281 65.613281 L 132.363281 72.570312 L 129.039062 72.570312 L 129.039062 65.613281 C 126.367188 66.34375 124.410156 68.785156 124.410156 71.683594 C 124.410156 75.15625 127.230469 77.972656 130.703125 77.972656 "/>
</g>
</svg>
