<?xml version="1.0" encoding="UTF-8"?>
<svg xmlns="http://www.w3.org/2000/svg" xmlns:xlink="http://www.w3.org/1999/xlink" width="349pt" height="314pt" viewBox="0 0 349 314" version="1.1">
<defs>
<clipPath id="clip1">
  <path d="M 0 0.117188 L 348.273438 0.117188 L 348.273438 314 L 0 314 Z M 0 0.117188 "/>
</clipPath>
</defs>
<g id="surface1">
<path style=" stroke:none;fill-rule:nonzero;fill:rgb(13.729858%,12.159729%,12.548828%);fill-opacity:1;" d="M 147.777344 154.894531 C 145.320312 152.4375 142.371094 150.460938 139.15625 149.128906 C 135.9375 147.792969 132.453125 147.109375 128.980469 147.109375 C 125.507812 147.109375 122.023438 147.792969 118.804688 149.128906 C 115.589844 150.460938 112.640625 152.433594 110.183594 154.894531 C 107.722656 157.351562 105.75 160.300781 104.417969 163.515625 C 103.082031 166.730469 102.394531 170.21875 102.398438 173.691406 C 102.394531 177.164062 103.082031 180.652344 104.417969 183.867188 C 105.746094 187.082031 107.722656 190.027344 110.183594 192.484375 C 112.640625 194.949219 115.589844 196.921875 118.804688 198.253906 C 122.023438 199.59375 125.507812 200.273438 128.980469 200.273438 C 132.453125 200.273438 135.9375 199.59375 139.152344 198.253906 C 142.371094 196.921875 145.316406 194.949219 147.773438 192.484375 C 150.234375 190.027344 152.210938 187.082031 153.542969 183.867188 C 154.878906 180.652344 155.5625 177.164062 155.5625 173.691406 C 155.5625 170.21875 154.878906 166.730469 153.542969 163.515625 C 152.210938 160.300781 150.238281 157.351562 147.777344 154.894531 M 144.902344 189.613281 C 140.738281 193.808594 134.894531 196.238281 128.980469 196.210938 C 123.066406 196.238281 117.21875 193.808594 113.058594 189.613281 C 108.859375 185.453125 106.429688 179.605469 106.464844 173.691406 C 106.433594 167.777344 108.859375 161.929688 113.058594 157.765625 C 117.222656 153.570312 123.066406 151.140625 128.980469 151.171875 C 134.894531 151.140625 140.738281 153.570312 144.902344 157.765625 C 149.101562 161.929688 151.527344 167.78125 151.496094 173.691406 C 151.527344 179.605469 149.101562 185.453125 144.902344 189.613281 "/>
<g clip-path="url(#clip1)" clip-rule="nonzero">
<path style=" stroke:none;fill-rule:nonzero;fill:rgb(13.729858%,12.159729%,12.548828%);fill-opacity:1;" d="M 338.78125 77.117188 L 307.03125 77.117188 L 291.15625 49.621094 L 307.03125 22.128906 L 338.78125 22.128906 L 344.75 32.472656 L 348.273438 30.441406 L 341.125 18.0625 L 304.683594 18.0625 L 287.636719 47.589844 L 277.316406 47.589844 C 277.316406 47.492188 277.332031 47.390625 277.328125 47.285156 C 277.347656 43.570312 275.8125 39.863281 273.171875 37.25 C 270.558594 34.609375 266.851562 33.070312 263.132812 33.09375 C 259.664062 33.074219 256.21875 34.421875 253.648438 36.746094 L 234.699219 16.734375 L 228.703125 16.734375 L 228.703125 0.117188 L 107.890625 0.117188 L 107.890625 73.699219 L 0 125.648438 L 19.03125 165.171875 C 18.539062 166.382812 18.113281 167.558594 17.699219 168.773438 C 17.191406 170.265625 16.722656 171.769531 16.292969 173.285156 C 15.441406 176.316406 14.738281 179.382812 14.195312 182.488281 C 13.117188 188.695312 12.683594 195.050781 13.183594 201.398438 C 13.675781 207.730469 15.144531 214.058594 17.828125 219.910156 C 20.492188 225.761719 24.382812 231.054688 29.101562 235.390625 C 33.820312 239.738281 39.289062 243.15625 45.035156 245.800781 C 50.785156 248.445312 56.816406 250.355469 62.921875 251.765625 C 74.488281 254.40625 86.292969 255.355469 98.035156 255.464844 L 98.035156 275.222656 L 87.074219 275.222656 C 86.144531 275.226562 85.164062 275.242188 84.21875 275.316406 C 76.578125 275.828125 69.128906 278.847656 63.269531 283.769531 C 57.390625 288.671875 53.097656 295.449219 51.21875 302.878906 C 50.753906 304.734375 50.421875 306.628906 50.25 308.53125 L 50.1875 309.25 L 50.132812 310.210938 C 50.101562 311.105469 50.085938 311.992188 50.078125 312.894531 L 50.066406 313.566406 L 50.0625 313.902344 C 50.039062 313.980469 50.117188 313.960938 50.167969 313.964844 L 50.335938 313.964844 L 51.679688 313.976562 L 54.292969 314 L 203.425781 314 L 205.804688 313.980469 L 207.148438 313.96875 L 207.820312 313.964844 C 207.894531 313.980469 207.910156 313.941406 207.898438 313.875 L 207.894531 313.703125 L 207.890625 313.367188 L 207.84375 310.6875 C 207.84375 310.464844 207.828125 310.238281 207.816406 310.019531 L 207.789062 309.503906 C 207.773438 309.261719 207.757812 309.027344 207.734375 308.785156 C 207.652344 307.832031 207.535156 306.882812 207.375 305.941406 C 207.066406 304.050781 206.605469 302.1875 206.003906 300.371094 C 203.597656 293.09375 198.839844 286.640625 192.625 282.164062 C 186.433594 277.660156 178.78125 275.199219 171.128906 275.222656 L 159.925781 275.222656 L 159.925781 201.871094 C 163.175781 198.304688 165.8125 194.175781 167.65625 189.714844 C 169.765625 184.648438 170.839844 179.164062 170.839844 173.691406 C 170.839844 168.214844 169.765625 162.734375 167.65625 157.671875 C 165.5625 152.605469 162.453125 147.96875 158.578125 144.089844 C 157.953125 143.46875 157.300781 142.871094 156.636719 142.285156 L 206.167969 118.433594 L 178.84375 61.683594 L 228.703125 40.445312 L 228.703125 20.796875 L 232.953125 20.796875 L 251.03125 39.894531 C 249.679688 42.113281 248.921875 44.695312 248.9375 47.289062 C 248.914062 51.003906 250.457031 54.710938 253.097656 57.324219 C 255.707031 59.96875 259.417969 61.503906 263.132812 61.484375 C 266.851562 61.503906 270.558594 59.96875 273.171875 57.324219 C 274.757812 55.753906 275.9375 53.78125 276.628906 51.65625 L 287.636719 51.65625 L 304.683594 81.179688 L 341.125 81.179688 L 348.273438 68.800781 L 344.75 66.769531 Z M 111.953125 4.183594 L 119.1875 4.183594 L 119.1875 62.875 L 143.070312 49.839844 L 143.070312 56.757812 L 111.953125 71.738281 Z M 161.617188 52.335938 L 190.347656 112.285156 L 145.042969 135.035156 C 145.03125 135.027344 145.015625 135.019531 145 135.011719 C 139.9375 132.90625 134.453125 131.828125 128.980469 131.832031 C 123.503906 131.828125 118.019531 132.90625 112.957031 135.011719 C 107.890625 137.109375 103.253906 140.21875 99.382812 144.089844 C 95.507812 147.96875 92.398438 152.605469 90.300781 157.671875 C 88.515625 161.964844 87.476562 166.570312 87.203125 171.207031 L 53.011719 187.671875 L 33.40625 150.066406 L 110.015625 113.449219 L 95.894531 83.984375 Z M 98.035156 201.871094 L 98.035156 241.363281 C 89.105469 241.273438 80.1875 240.617188 71.488281 238.941406 C 62.167969 237.121094 52.988281 234.117188 45.230469 228.902344 C 41.371094 226.304688 37.917969 223.144531 35.164062 219.453125 C 32.402344 215.773438 30.367188 211.570312 29.121094 207.121094 C 27.871094 202.675781 27.390625 198 27.546875 193.332031 C 27.625 190.996094 27.859375 188.664062 28.238281 186.359375 C 28.320312 185.859375 28.414062 185.359375 28.511719 184.863281 L 35.988281 200.382812 L 87.171875 175.738281 C 87.402344 180.523438 88.460938 185.28125 90.300781 189.714844 C 92.152344 194.175781 94.785156 198.304688 98.035156 201.871094 M 5.425781 127.550781 L 92.234375 85.746094 L 104.59375 111.535156 L 27.855469 148.214844 L 49.347656 189.4375 L 37.882812 194.957031 Z M 63.835938 247.800781 C 57.945312 246.445312 52.175781 244.609375 46.738281 242.109375 C 41.300781 239.609375 36.203125 236.410156 31.859375 232.398438 C 27.511719 228.402344 23.964844 223.578125 21.523438 218.214844 C 19.066406 212.859375 17.695312 207.007812 17.230469 201.074219 C 16.765625 195.136719 17.167969 189.105469 18.199219 183.183594 C 18.714844 180.226562 19.390625 177.285156 20.207031 174.390625 C 20.597656 173.003906 21.027344 171.628906 21.484375 170.265625 L 25.742188 179.109375 C 25.4375 180.09375 25.199219 181.019531 24.964844 181.996094 C 24.679688 183.222656 24.433594 184.460938 24.226562 185.695312 C 23.820312 188.179688 23.566406 190.683594 23.484375 193.199219 C 23.316406 198.226562 23.828125 203.320312 25.207031 208.222656 C 26.578125 213.121094 28.84375 217.796875 31.910156 221.882812 C 34.964844 225.980469 38.773438 229.460938 42.957031 232.277344 C 47.148438 235.097656 51.695312 237.289062 56.371094 239.011719 C 61.050781 240.730469 65.863281 241.988281 70.714844 242.929688 C 79.753906 244.671875 88.914062 245.335938 98.035156 245.429688 L 98.035156 251.402344 C 86.511719 251.292969 74.984375 250.355469 63.835938 247.800781 M 171.128906 279.289062 C 177.949219 279.269531 184.730469 281.453125 190.242188 285.460938 C 195.773438 289.441406 200.007812 295.191406 202.144531 301.652344 C 202.679688 303.265625 203.097656 304.921875 203.367188 306.601562 C 203.503906 307.441406 203.617188 308.285156 203.6875 309.136719 L 203.742188 309.933594 L 54.214844 309.933594 L 54.21875 309.933594 L 54.242188 309.542969 L 54.292969 308.910156 C 54.449219 307.210938 54.746094 305.53125 55.160156 303.886719 C 56.828125 297.28125 60.644531 291.25 65.878906 286.890625 C 71.097656 282.511719 77.707031 279.828125 84.503906 279.371094 C 85.359375 279.304688 86.191406 279.289062 87.074219 279.289062 Z M 102.097656 275.222656 L 102.097656 205.765625 C 104.980469 208.179688 108.183594 210.207031 111.605469 211.769531 L 111.605469 275.222656 Z M 115.671875 275.222656 L 115.671875 213.375 C 119.308594 214.59375 123.117188 215.316406 126.945312 215.5 L 126.945312 275.222656 Z M 131.011719 275.222656 L 131.011719 215.5 C 135.117188 215.300781 139.199219 214.496094 143.070312 213.117188 L 143.070312 275.222656 Z M 147.136719 275.222656 L 147.136719 211.40625 C 150.265625 209.902344 153.203125 207.996094 155.863281 205.765625 L 155.863281 275.222656 Z M 163.902344 159.226562 C 165.804688 163.796875 166.773438 168.738281 166.773438 173.691406 C 166.773438 178.644531 165.804688 183.589844 163.902344 188.15625 C 162.011719 192.730469 159.203125 196.917969 155.703125 200.417969 C 152.207031 203.917969 148.015625 206.722656 143.445312 208.617188 C 138.878906 210.515625 133.933594 211.484375 128.980469 211.484375 C 124.027344 211.484375 119.082031 210.515625 114.515625 208.617188 C 109.945312 206.722656 105.753906 203.917969 102.257812 200.417969 C 98.753906 196.917969 95.949219 192.730469 94.054688 188.15625 C 92.15625 183.589844 91.183594 178.644531 91.1875 173.691406 C 91.183594 168.738281 92.15625 163.796875 94.054688 159.226562 C 95.949219 154.65625 98.753906 150.46875 102.257812 146.96875 C 105.753906 143.464844 109.945312 140.660156 114.515625 138.769531 C 119.082031 136.867188 124.027344 135.898438 128.980469 135.898438 C 133.933594 135.898438 138.878906 136.867188 143.445312 138.769531 C 148.015625 140.660156 152.207031 143.464844 155.703125 146.96875 C 159.203125 150.46875 162.011719 154.65625 163.902344 159.226562 M 200.742188 116.535156 L 153.085938 139.484375 C 151.96875 138.695312 150.808594 137.960938 149.617188 137.285156 L 195.738281 114.128906 L 165.28125 50.574219 L 168.28125 49.125 Z M 224.636719 37.757812 L 177.074219 58.015625 L 170.179688 43.703125 L 147.136719 54.796875 L 147.136719 42.992188 L 123.253906 56.027344 L 123.253906 4.183594 L 224.636719 4.183594 Z M 270.296875 54.453125 C 268.421875 56.339844 265.796875 57.433594 263.132812 57.417969 C 260.46875 57.433594 257.847656 56.339844 255.96875 54.453125 C 254.082031 52.578125 252.988281 49.953125 253 47.289062 C 252.992188 45.800781 253.339844 44.332031 253.96875 42.996094 L 256.949219 46.148438 C 256.847656 46.703125 256.8125 47.273438 256.863281 47.839844 C 257 49.476562 257.824219 51.0625 259.089844 52.113281 C 260.339844 53.171875 262.046875 53.710938 263.683594 53.554688 C 265.179688 53.4375 266.621094 52.734375 267.660156 51.65625 L 272.265625 51.65625 C 271.769531 52.6875 271.113281 53.640625 270.296875 54.453125 M 261.886719 45.449219 C 262.199219 45.238281 262.554688 45.101562 262.9375 45.066406 C 263.527344 45.015625 264.113281 45.199219 264.5625 45.578125 C 265.019531 45.960938 265.300781 46.503906 265.351562 47.089844 C 265.367188 47.261719 265.359375 47.425781 265.335938 47.589844 L 263.914062 47.589844 Z M 273.25 47.589844 L 269.414062 47.589844 C 269.425781 47.304688 269.429688 47.019531 269.402344 46.734375 C 269.269531 45.097656 268.441406 43.515625 267.175781 42.464844 C 265.925781 41.402344 264.21875 40.867188 262.582031 41.019531 C 261.300781 41.125 260.058594 41.65625 259.078125 42.480469 L 256.441406 39.695312 C 258.273438 38.074219 260.683594 37.144531 263.132812 37.15625 C 265.796875 37.144531 268.421875 38.234375 270.296875 40.121094 C 272.1875 42 273.277344 44.621094 273.265625 47.285156 C 273.265625 47.390625 273.253906 47.492188 273.25 47.589844 "/>
</g>
<path style=" stroke:none;fill-rule:nonzero;fill:rgb(13.729858%,12.159729%,12.548828%);fill-opacity:1;" d="M 203.453125 37.210938 C 207.300781 37.234375 211.132812 35.644531 213.835938 32.910156 C 216.566406 30.210938 218.15625 26.375 218.132812 22.535156 C 218.15625 18.691406 216.566406 14.855469 213.835938 12.152344 C 211.132812 9.421875 207.300781 7.828125 203.460938 7.851562 C 199.613281 7.828125 195.777344 9.417969 193.078125 12.152344 C 190.347656 14.851562 188.757812 18.6875 188.777344 22.53125 C 188.753906 26.375 190.347656 30.210938 193.074219 32.910156 C 195.777344 35.644531 199.613281 37.230469 203.453125 37.210938 M 195.949219 15.023438 C 197.917969 13.042969 200.667969 11.902344 203.460938 11.914062 C 206.246094 11.902344 208.996094 13.042969 210.960938 15.023438 C 212.941406 16.992188 214.085938 19.742188 214.070312 22.535156 C 214.085938 25.320312 212.941406 28.070312 210.960938 30.039062 C 208.996094 32.019531 206.246094 33.160156 203.453125 33.144531 C 200.667969 33.160156 197.914062 32.019531 195.949219 30.039062 C 193.96875 28.070312 192.828125 25.320312 192.839844 22.53125 C 192.828125 19.742188 193.96875 16.992188 195.949219 15.023438 "/>
<path style=" stroke:none;fill-rule:nonzero;fill:rgb(13.729858%,12.159729%,12.548828%);fill-opacity:1;" d="M 203.460938 29.246094 C 207.234375 29.246094 210.296875 26.1875 210.296875 22.410156 C 210.296875 19.257812 208.164062 16.605469 205.261719 15.8125 L 205.261719 23.375 L 201.648438 23.375 L 201.648438 15.8125 C 198.75 16.605469 196.617188 19.257812 196.617188 22.410156 C 196.617188 26.1875 199.679688 29.246094 203.460938 29.246094 "/>
</g>
</svg>
