<?xml version="1.0" encoding="UTF-8"?>
<svg xmlns="http://www.w3.org/2000/svg" xmlns:xlink="http://www.w3.org/1999/xlink" width="305pt" height="308pt" viewBox="0 0 305 308" version="1.1">
<defs>
<clipPath id="clip1">
  <path d="M 0 0.0585938 L 304.886719 0.0585938 L 304.886719 308 L 0 308 Z M 0 0.0585938 "/>
</clipPath>
</defs>
<g id="surface1">
<path style=" stroke:none;fill-rule:nonzero;fill:rgb(13.729858%,12.159729%,12.548828%);fill-opacity:1;" d="M 173.664062 151.878906 C 171.253906 149.464844 168.363281 147.527344 165.199219 146.222656 C 162.050781 144.90625 158.628906 144.238281 155.222656 144.238281 C 151.808594 144.238281 148.394531 144.90625 145.234375 146.222656 C 142.078125 147.527344 139.1875 149.464844 136.78125 151.878906 C 134.363281 154.292969 132.429688 157.183594 131.117188 160.339844 C 129.808594 163.496094 129.132812 166.914062 129.136719 170.324219 C 129.132812 173.730469 129.808594 177.152344 131.117188 180.308594 C 132.429688 183.464844 134.363281 186.355469 136.78125 188.773438 C 139.1875 191.179688 142.078125 193.125 145.234375 194.425781 C 148.394531 195.738281 151.808594 196.414062 155.222656 196.402344 C 158.628906 196.414062 162.050781 195.738281 165.199219 194.425781 C 168.363281 193.125 171.253906 191.179688 173.664062 188.765625 C 176.078125 186.355469 178.015625 183.464844 179.324219 180.308594 C 180.632812 177.152344 181.304688 173.730469 181.304688 170.324219 C 181.304688 166.914062 180.632812 163.496094 179.324219 160.339844 C 178.015625 157.183594 176.078125 154.292969 173.664062 151.878906 M 170.84375 185.945312 C 166.761719 190.0625 161.019531 192.453125 155.222656 192.417969 C 149.417969 192.453125 143.683594 190.0625 139.597656 185.945312 C 135.476562 181.863281 133.097656 176.128906 133.121094 170.324219 C 133.097656 164.519531 135.476562 158.78125 139.597656 154.699219 C 143.683594 150.578125 149.417969 148.195312 155.222656 148.226562 C 161.019531 148.195312 166.761719 150.578125 170.84375 154.699219 C 174.960938 158.78125 177.347656 164.519531 177.316406 170.324219 C 177.347656 176.128906 174.960938 181.863281 170.84375 185.945312 "/>
<g clip-path="url(#clip1)" clip-rule="nonzero">
<path style=" stroke:none;fill-rule:nonzero;fill:rgb(13.729858%,12.159729%,12.548828%);fill-opacity:1;" d="M 295.570312 76.414062 L 264.421875 76.414062 L 248.84375 49.433594 L 264.421875 22.453125 L 295.570312 22.453125 L 301.433594 32.609375 L 304.886719 30.613281 L 297.871094 18.46875 L 262.117188 18.46875 L 251.347656 37.117188 L 173.464844 37.117188 L 173.464844 0.0585938 L 72.34375 0.0585938 C 71.277344 0.0546875 70.152344 0.0703125 69.054688 0.125 C 64.640625 0.328125 60.191406 1.0625 55.953125 2.578125 C 51.710938 4.082031 47.707031 6.386719 44.339844 9.425781 C 40.960938 12.445312 38.238281 16.136719 36.1875 20.105469 C 34.128906 24.082031 32.714844 28.324219 31.78125 32.636719 C 31.324219 34.796875 30.980469 36.976562 30.753906 39.167969 C 30.53125 41.367188 30.40625 43.53125 30.460938 45.828125 L 30.464844 58.546875 L 30.464844 82.132812 L 0 82.132812 L 0 115.695312 L 0.00390625 131.519531 C 0.0703125 134.566406 0.988281 137.367188 2.167969 139.910156 C 3.363281 142.460938 4.847656 144.785156 6.457031 146.984375 C 9.699219 151.371094 13.425781 155.261719 17.347656 158.902344 C 19.3125 160.71875 21.332031 162.472656 23.402344 164.15625 L 24.976562 165.410156 L 25.773438 166.027344 L 26.546875 166.609375 L 26.746094 166.753906 C 26.816406 166.796875 26.871094 166.871094 26.960938 166.855469 L 27.449219 166.855469 L 31.777344 166.859375 L 62.414062 166.859375 L 124.855469 242.109375 L 124.855469 269.957031 L 114.09375 269.957031 C 113.183594 269.957031 112.230469 269.972656 111.296875 270.046875 C 103.804688 270.539062 96.492188 273.511719 90.746094 278.34375 C 84.976562 283.148438 80.761719 289.800781 78.917969 297.09375 C 78.460938 298.914062 78.136719 300.769531 77.964844 302.640625 L 77.90625 303.34375 L 77.851562 304.289062 C 77.820312 305.164062 77.808594 306.039062 77.792969 306.921875 L 77.785156 307.574219 L 77.78125 307.90625 C 77.761719 307.984375 77.832031 307.960938 77.890625 307.96875 L 78.054688 307.96875 L 79.371094 307.976562 L 81.933594 308 L 228.273438 308 L 230.601562 307.984375 L 231.925781 307.972656 L 232.582031 307.96875 C 232.652344 307.984375 232.671875 307.949219 232.652344 307.878906 L 232.652344 307.710938 L 232.648438 307.382812 L 232.605469 304.753906 C 232.605469 304.53125 232.589844 304.3125 232.578125 304.097656 L 232.554688 303.589844 C 232.539062 303.351562 232.523438 303.121094 232.503906 302.890625 C 232.421875 301.953125 232.300781 301.019531 232.152344 300.089844 C 231.847656 298.242188 231.390625 296.410156 230.796875 294.632812 C 228.4375 287.488281 223.765625 281.15625 217.671875 276.765625 C 211.597656 272.34375 204.089844 269.929688 196.578125 269.957031 L 185.589844 269.957031 L 185.589844 243.386719 L 235.246094 243.386719 L 235.246094 196.667969 L 173.464844 101.851562 L 173.464844 61.753906 L 251.347656 61.753906 L 262.117188 80.40625 L 297.871094 80.40625 L 304.886719 68.257812 L 301.433594 66.265625 Z M 151.765625 65 L 151.765625 4.046875 L 169.476562 4.046875 L 169.476562 95.730469 L 160.613281 82.132812 L 151.765625 82.132812 Z M 56.128906 6.777344 C 56.515625 6.621094 56.898438 6.472656 57.289062 6.335938 C 61.082031 4.976562 65.140625 4.296875 69.238281 4.105469 C 70.273438 4.054688 71.273438 4.046875 72.34375 4.046875 L 147.78125 4.046875 L 147.78125 20.601562 C 146.914062 20.222656 145.929688 20.023438 145.054688 20.039062 L 59.109375 20.039062 C 58.816406 20.039062 58.191406 20.039062 57.703125 20.128906 C 57.160156 20.214844 56.632812 20.375 56.128906 20.597656 Z M 56.128906 63.660156 L 56.128906 26.671875 C 56.125 25.835938 56.535156 25.03125 57.214844 24.539062 C 57.542969 24.289062 57.933594 24.128906 58.34375 24.0625 C 58.613281 24.003906 59.496094 24.042969 60.191406 24.03125 L 145.054688 24.03125 C 145.550781 24.019531 145.902344 24.113281 146.289062 24.289062 C 147.035156 24.648438 147.597656 25.382812 147.738281 26.191406 C 147.753906 26.292969 147.769531 26.398438 147.773438 26.5 C 147.78125 26.554688 147.777344 26.605469 147.78125 26.65625 L 147.78125 65 C 147.785156 65.828125 147.378906 66.636719 146.695312 67.125 C 146.359375 67.375 145.976562 67.539062 145.566406 67.601562 C 145.296875 67.664062 144.414062 67.628906 143.71875 67.636719 L 58.855469 67.636719 C 58.363281 67.644531 58.007812 67.554688 57.621094 67.375 C 56.871094 67.019531 56.3125 66.28125 56.175781 65.472656 C 56.15625 65.371094 56.148438 65.273438 56.136719 65.167969 C 56.132812 65.117188 56.132812 65.0625 56.132812 65.011719 L 56.128906 64.746094 Z M 56.128906 71.070312 C 56.992188 71.441406 57.980469 71.644531 58.855469 71.625 L 144.804688 71.625 C 145.09375 71.628906 145.722656 71.628906 146.214844 71.539062 C 146.746094 71.449219 147.277344 71.289062 147.78125 71.074219 L 147.78125 82.132812 L 56.128906 82.132812 Z M 34.722656 39.570312 C 34.933594 37.527344 35.25 35.484375 35.683594 33.476562 C 36.550781 29.457031 37.863281 25.539062 39.726562 21.9375 C 41.585938 18.339844 44.019531 15.058594 46.996094 12.390625 C 48.574219 10.976562 50.300781 9.746094 52.144531 8.699219 L 52.144531 82.132812 L 34.457031 82.132812 L 34.457031 58.546875 L 34.445312 45.6875 C 34.394531 43.714844 34.511719 41.613281 34.722656 39.570312 M 12.085938 147.683594 C 11.246094 146.683594 10.445312 145.667969 9.671875 144.625 C 8.941406 143.632812 8.257812 142.621094 7.613281 141.585938 L 60.472656 141.585938 L 65.460938 147.683594 Z M 64.289062 162.871094 L 28.214844 162.871094 L 27.429688 162.265625 L 25.917969 161.066406 C 23.914062 159.429688 21.953125 157.730469 20.054688 155.972656 C 18.550781 154.578125 17.085938 153.144531 15.671875 151.671875 L 68.71875 151.671875 L 124.855469 220.339844 L 124.855469 235.859375 Z M 196.578125 273.941406 C 203.269531 273.921875 209.925781 276.070312 215.335938 280 C 220.765625 283.90625 224.921875 289.542969 227.011719 295.890625 C 227.539062 297.472656 227.941406 299.09375 228.214844 300.742188 C 228.351562 301.566406 228.457031 302.398438 228.527344 303.226562 L 228.585938 304.015625 L 81.859375 304.015625 L 81.882812 303.632812 L 81.9375 303.007812 C 82.089844 301.347656 82.375 299.695312 82.789062 298.074219 C 84.417969 291.597656 88.164062 285.679688 93.304688 281.402344 C 98.421875 277.101562 104.90625 274.46875 111.582031 274.023438 C 112.414062 273.957031 113.234375 273.949219 114.09375 273.941406 Z M 128.847656 269.957031 L 128.847656 201.800781 C 132.039062 204.476562 135.640625 206.679688 139.5 208.273438 C 144.464844 210.339844 149.851562 211.394531 155.222656 211.394531 C 160.59375 211.394531 165.980469 210.339844 170.941406 208.273438 C 174.800781 206.679688 178.398438 204.476562 181.597656 201.800781 L 181.597656 269.957031 Z M 181.445312 196.550781 C 178.011719 199.980469 173.898438 202.734375 169.410156 204.59375 C 164.933594 206.457031 160.082031 207.410156 155.222656 207.410156 C 150.359375 207.410156 145.511719 206.457031 141.027344 204.59375 C 136.542969 202.734375 132.429688 199.980469 129 196.550781 C 125.566406 193.113281 122.808594 189.003906 120.953125 184.515625 C 119.085938 180.035156 118.136719 175.183594 118.140625 170.324219 C 118.136719 165.464844 119.085938 160.609375 120.953125 156.128906 C 122.808594 151.644531 125.566406 147.53125 129 144.097656 C 132.429688 140.667969 136.542969 137.90625 141.027344 136.050781 C 145.511719 134.1875 150.355469 133.234375 155.222656 133.238281 C 160.082031 133.234375 164.933594 134.1875 169.410156 136.050781 C 173.898438 137.90625 178.011719 140.667969 181.445312 144.097656 C 184.878906 147.53125 187.632812 151.644531 189.488281 156.128906 C 191.355469 160.609375 192.3125 165.464844 192.3125 170.324219 C 192.3125 175.183594 191.355469 180.035156 189.488281 184.515625 C 187.632812 189.003906 184.878906 193.113281 181.445312 196.550781 M 231.257812 197.847656 L 231.257812 239.394531 L 185.589844 239.394531 L 185.589844 197.976562 C 188.773438 194.476562 191.363281 190.425781 193.175781 186.046875 C 195.242188 181.078125 196.300781 175.695312 196.296875 170.324219 C 196.300781 164.949219 195.242188 159.566406 193.175781 154.597656 C 191.117188 149.632812 188.066406 145.078125 184.261719 141.28125 C 180.464844 137.476562 175.914062 134.429688 170.941406 132.367188 C 165.980469 130.300781 160.59375 129.246094 155.222656 129.25 C 149.851562 129.246094 144.464844 130.300781 139.5 132.367188 C 134.527344 134.429688 129.976562 137.476562 126.179688 141.28125 C 122.375 145.078125 119.324219 149.632812 117.269531 154.597656 C 115.199219 159.566406 114.148438 164.949219 114.148438 170.324219 C 114.148438 175.695312 115.199219 181.078125 117.269531 186.046875 C 119.078125 190.425781 121.664062 194.476562 124.855469 197.976562 L 124.855469 214.03125 L 62.363281 137.597656 L 5.503906 137.597656 C 4.625 135.570312 4.027344 133.472656 3.992188 131.445312 L 3.988281 115.695312 L 3.988281 86.121094 L 158.449219 86.121094 Z M 173.464844 57.761719 L 173.464844 41.105469 L 249.046875 41.105469 L 244.238281 49.433594 L 249.046875 57.761719 L 173.464844 57.761719 "/>
</g>
<path style=" stroke:none;fill-rule:nonzero;fill:rgb(13.729858%,12.159729%,12.548828%);fill-opacity:1;" d="M 37.652344 98.253906 C 34.183594 95.316406 29.5 93.851562 24.980469 94.273438 C 20.449219 94.652344 16.109375 96.917969 13.210938 100.421875 C 10.269531 103.886719 8.808594 108.566406 9.234375 113.09375 C 9.613281 117.621094 11.875 121.96875 15.382812 124.867188 C 18.847656 127.800781 23.523438 129.265625 28.046875 128.84375 C 32.574219 128.460938 36.921875 126.199219 39.816406 122.695312 L 38.292969 121.421875 L 39.816406 122.695312 C 42.757812 119.230469 44.222656 114.550781 43.796875 110.023438 C 43.421875 105.496094 41.15625 101.152344 37.652344 98.253906 M 36.761719 120.136719 C 34.523438 122.839844 31.195312 124.574219 27.695312 124.871094 C 24.203125 125.195312 20.617188 124.074219 17.941406 121.808594 C 15.238281 119.566406 13.5 116.242188 13.207031 112.738281 C 12.882812 109.242188 14 105.664062 16.265625 102.980469 C 18.507812 100.277344 21.835938 98.546875 25.332031 98.246094 C 28.828125 97.925781 32.410156 99.046875 35.09375 101.308594 C 37.792969 103.550781 39.53125 106.878906 39.828125 110.375 C 40.148438 113.875 39.03125 117.453125 36.761719 120.136719 "/>
<path style=" stroke:none;fill-rule:nonzero;fill:rgb(13.729858%,12.159729%,12.548828%);fill-opacity:1;" d="M 27.109375 114.289062 C 26.328125 115.222656 24.933594 115.351562 23.996094 114.5625 C 23.0625 113.777344 22.941406 112.390625 23.726562 111.457031 L 30.816406 102.984375 C 26.984375 101.074219 22.207031 101.957031 19.335938 105.382812 C 15.984375 109.394531 16.515625 115.363281 20.523438 118.71875 C 24.535156 122.070312 30.503906 121.546875 33.855469 117.535156 C 36.722656 114.109375 36.753906 109.246094 34.199219 105.816406 L 27.109375 114.289062 "/>
<path style=" stroke:none;fill-rule:nonzero;fill:rgb(13.729858%,12.159729%,12.548828%);fill-opacity:1;" d="M 127.382812 60.40625 C 123.640625 60.425781 119.910156 58.882812 117.28125 56.222656 C 114.625 53.59375 113.078125 49.867188 113.101562 46.128906 C 113.078125 42.386719 114.625 38.660156 117.28125 36.03125 C 119.90625 33.371094 123.636719 31.824219 127.382812 31.84375 C 131.117188 31.824219 134.847656 33.371094 137.472656 36.023438 C 140.132812 38.660156 141.675781 42.386719 141.65625 46.125 C 141.683594 49.867188 140.132812 53.59375 137.476562 56.222656 C 134.847656 58.882812 131.117188 60.425781 127.382812 60.40625 M 134.679688 38.824219 C 132.765625 36.894531 130.097656 35.785156 127.382812 35.800781 C 124.664062 35.785156 121.988281 36.894531 120.078125 38.824219 C 118.152344 40.734375 117.042969 43.414062 117.054688 46.128906 C 117.042969 48.839844 118.152344 51.515625 120.078125 53.425781 C 121.988281 55.355469 124.664062 56.464844 127.382812 56.449219 C 130.097656 56.464844 132.769531 55.355469 134.679688 53.425781 C 136.609375 51.515625 137.71875 48.839844 137.707031 46.125 C 137.71875 43.410156 136.609375 40.734375 134.679688 38.824219 "/>
<path style=" stroke:none;fill-rule:nonzero;fill:rgb(13.729858%,12.159729%,12.548828%);fill-opacity:1;" d="M 127.378906 52.660156 C 123.707031 52.660156 120.726562 49.683594 120.726562 46.007812 C 120.726562 42.945312 122.800781 40.359375 125.621094 39.589844 L 125.621094 46.945312 L 129.136719 46.945312 L 129.136719 39.589844 C 131.960938 40.359375 134.03125 42.945312 134.03125 46.007812 C 134.03125 49.683594 131.058594 52.660156 127.378906 52.660156 "/>
<path style=" stroke:none;fill-rule:nonzero;fill:rgb(13.729858%,12.159729%,12.548828%);fill-opacity:1;" d="M 76.855469 60.40625 C 73.117188 60.425781 69.386719 58.882812 66.757812 56.222656 C 64.101562 53.59375 62.554688 49.867188 62.574219 46.128906 C 62.554688 42.386719 64.101562 38.660156 66.757812 36.03125 C 69.382812 33.371094 73.113281 31.824219 76.855469 31.84375 C 80.589844 31.824219 84.320312 33.371094 86.949219 36.023438 C 89.605469 38.660156 91.148438 42.386719 91.132812 46.125 C 91.152344 49.867188 89.605469 53.59375 86.953125 56.222656 C 84.320312 58.882812 80.589844 60.425781 76.855469 60.40625 M 84.15625 38.824219 C 82.238281 36.894531 79.570312 35.785156 76.855469 35.800781 C 74.140625 35.785156 71.464844 36.894531 69.550781 38.824219 C 67.628906 40.734375 66.519531 43.414062 66.53125 46.128906 C 66.519531 48.839844 67.628906 51.515625 69.550781 53.425781 C 71.464844 55.355469 74.140625 56.464844 76.855469 56.449219 C 79.570312 56.464844 82.242188 55.355469 84.15625 53.425781 C 86.082031 51.515625 87.195312 48.839844 87.175781 46.125 C 87.195312 43.410156 86.082031 40.734375 84.15625 38.824219 "/>
<path style=" stroke:none;fill-rule:nonzero;fill:rgb(13.729858%,12.159729%,12.548828%);fill-opacity:1;" d="M 76.851562 52.660156 C 73.179688 52.660156 70.203125 49.683594 70.203125 46.007812 C 70.203125 42.945312 72.277344 40.359375 75.097656 39.589844 L 75.097656 46.945312 L 78.609375 46.945312 L 78.609375 39.589844 C 81.433594 40.359375 83.507812 42.945312 83.507812 46.007812 C 83.507812 49.683594 80.53125 52.660156 76.851562 52.660156 "/>
</g>
</svg>
