<?xml version="1.0" encoding="UTF-8"?>
<svg xmlns="http://www.w3.org/2000/svg" xmlns:xlink="http://www.w3.org/1999/xlink" width="290pt" height="315pt" viewBox="0 0 290 315" version="1.1">
<defs>
<clipPath id="clip1">
  <path d="M 0 0.160156 L 289.710938 0.160156 L 289.710938 315 L 0 315 Z M 0 0.160156 "/>
</clipPath>
</defs>
<g id="surface1">
<path style=" stroke:none;fill-rule:nonzero;fill:rgb(13.729858%,12.159729%,12.548828%);fill-opacity:1;" d="M 174.398438 38.136719 C 178.242188 38.160156 182.078125 36.570312 184.777344 33.839844 C 187.511719 31.136719 189.097656 27.300781 189.078125 23.460938 C 189.097656 19.617188 187.511719 15.78125 184.777344 13.078125 C 182.078125 10.347656 178.242188 8.753906 174.402344 8.777344 C 170.554688 8.753906 166.722656 10.34375 164.019531 13.078125 C 161.289062 15.78125 159.699219 19.613281 159.71875 23.457031 C 159.695312 27.300781 161.289062 31.136719 164.015625 33.835938 C 166.722656 36.570312 170.554688 38.15625 174.398438 38.136719 M 166.890625 15.949219 C 168.863281 13.972656 171.609375 12.828125 174.402344 12.84375 C 177.191406 12.828125 179.9375 13.972656 181.90625 15.949219 C 183.886719 17.917969 185.027344 20.667969 185.015625 23.460938 C 185.027344 26.246094 183.886719 28.996094 181.90625 30.964844 C 179.9375 32.945312 177.191406 34.085938 174.398438 34.074219 C 171.609375 34.085938 168.855469 32.945312 166.890625 30.964844 C 164.914062 28.996094 163.769531 26.246094 163.785156 23.457031 C 163.769531 20.667969 164.914062 17.917969 166.890625 15.949219 "/>
<path style=" stroke:none;fill-rule:nonzero;fill:rgb(13.729858%,12.159729%,12.548828%);fill-opacity:1;" d="M 174.402344 30.175781 C 178.179688 30.175781 181.238281 27.113281 181.238281 23.335938 C 181.238281 20.1875 179.105469 17.53125 176.207031 16.738281 L 176.207031 24.300781 L 172.59375 24.300781 L 172.59375 16.738281 C 169.691406 17.53125 167.558594 20.1875 167.558594 23.335938 C 167.558594 27.113281 170.621094 30.175781 174.402344 30.175781 "/>
<path style=" stroke:none;fill-rule:nonzero;fill:rgb(13.729858%,12.159729%,12.548828%);fill-opacity:1;" d="M 203.839844 148.160156 C 207.097656 149.507812 210.078125 151.507812 212.566406 153.996094 C 215.054688 156.484375 217.050781 159.464844 218.402344 162.722656 C 219.753906 165.972656 220.445312 169.5 220.445312 173.015625 C 220.445312 176.535156 219.753906 180.058594 218.402344 183.3125 C 217.050781 186.566406 215.054688 189.546875 212.566406 192.035156 C 210.078125 194.527344 207.097656 196.523438 203.839844 197.871094 C 200.585938 199.226562 197.0625 199.917969 193.542969 199.914062 C 190.03125 199.917969 186.503906 199.226562 183.246094 197.871094 C 179.992188 196.523438 177.011719 194.527344 174.523438 192.035156 C 172.03125 189.546875 170.035156 186.566406 168.6875 183.3125 C 167.335938 180.058594 166.648438 176.53125 166.648438 173.015625 C 166.648438 169.5 167.335938 165.972656 168.6875 162.722656 C 170.035156 159.464844 172.03125 156.480469 174.527344 153.996094 C 177.015625 151.507812 179.992188 149.507812 183.246094 148.160156 C 186.503906 146.808594 190.03125 146.117188 193.542969 146.117188 C 197.0625 146.117188 200.585938 146.808594 203.839844 148.160156 M 177.433594 156.902344 C 173.183594 161.117188 170.726562 167.035156 170.757812 173.015625 C 170.726562 178.996094 173.183594 184.914062 177.433594 189.128906 C 181.644531 193.375 187.5625 195.832031 193.542969 195.804688 C 199.527344 195.832031 205.445312 193.375 209.65625 189.128906 C 213.90625 184.914062 216.363281 178.996094 216.332031 173.015625 C 216.363281 167.035156 213.90625 161.117188 209.65625 156.902344 C 205.445312 152.65625 199.527344 150.199219 193.542969 150.230469 C 187.5625 150.199219 181.644531 152.65625 177.433594 156.902344 "/>
<g clip-path="url(#clip1)" clip-rule="nonzero">
<path style=" stroke:none;fill-rule:nonzero;fill:rgb(13.729858%,12.159729%,12.548828%);fill-opacity:1;" d="M 0 111.636719 L 0 101.238281 L 29.445312 101.238281 L 29.445312 111.0625 L 36.820312 111.0625 L 44.265625 102.507812 C 43.261719 101.242188 42.429688 99.847656 41.820312 98.351562 C 39.894531 93.730469 40.058594 88.300781 42.34375 83.8125 C 42.902344 82.6875 43.597656 81.628906 44.398438 80.660156 C 44.800781 80.179688 45.226562 79.714844 45.679688 79.28125 C 45.90625 79.058594 46.136719 78.851562 46.375 78.644531 L 47 78.101562 L 52.015625 73.777344 L 62.042969 65.136719 L 100.917969 31.628906 C 99.511719 28.679688 98.761719 25.414062 98.765625 22.15625 C 98.761719 18.214844 99.839844 14.261719 101.875 10.875 C 103.898438 7.484375 106.847656 4.664062 110.324219 2.789062 C 112.0625 1.851562 113.929688 1.152344 115.855469 0.710938 C 116.816406 0.496094 117.792969 0.335938 118.773438 0.25 C 119.746094 0.152344 120.785156 0.160156 121.640625 0.160156 L 228.976562 0.160156 C 229.828125 0.160156 230.871094 0.152344 231.839844 0.25 C 232.820312 0.335938 233.796875 0.496094 234.761719 0.710938 C 236.683594 1.152344 238.550781 1.851562 240.289062 2.789062 C 243.765625 4.664062 246.714844 7.484375 248.738281 10.875 C 250.773438 14.257812 251.855469 18.214844 251.847656 22.15625 C 251.855469 26.09375 250.773438 30.050781 248.738281 33.433594 C 246.714844 36.824219 243.765625 39.644531 240.289062 41.519531 C 238.550781 42.457031 236.683594 43.15625 234.761719 43.597656 C 233.796875 43.816406 232.824219 43.972656 231.839844 44.058594 C 230.871094 44.15625 229.828125 44.152344 228.976562 44.152344 L 220.445312 44.152344 L 220.445312 51.667969 L 259.769531 51.667969 L 261.316406 52.777344 L 262.324219 53.527344 C 262.996094 54.03125 263.648438 54.554688 264.300781 55.082031 C 265.597656 56.144531 266.859375 57.253906 268.082031 58.40625 C 270.519531 60.710938 272.792969 63.191406 274.875 65.828125 C 279.035156 71.09375 282.425781 76.96875 284.894531 83.214844 C 289.859375 95.707031 291 109.640625 288.253906 122.785156 C 285.535156 135.945312 278.816406 148.222656 269.265625 157.660156 C 260.125 166.753906 248.382812 173.199219 235.785156 176.003906 C 235.464844 180.535156 234.433594 185.027344 232.6875 189.230469 C 230.816406 193.742188 228.148438 197.925781 224.863281 201.535156 L 224.863281 275.761719 L 235.953125 275.761719 C 236.894531 275.765625 237.882812 275.785156 238.839844 275.859375 C 246.570312 276.371094 254.109375 279.429688 260.039062 284.410156 C 265.988281 289.371094 270.332031 296.230469 272.230469 303.75 C 272.703125 305.625 273.039062 307.542969 273.21875 309.472656 L 273.277344 310.191406 L 273.332031 311.167969 C 273.363281 312.074219 273.378906 312.976562 273.390625 313.878906 L 273.398438 314.5625 L 273.40625 314.898438 C 273.429688 314.980469 273.351562 314.960938 273.296875 314.960938 L 273.125 314.964844 L 271.765625 314.976562 L 269.121094 315 L 118.207031 315 L 115.804688 314.984375 L 113.765625 314.960938 C 113.6875 314.984375 113.667969 314.945312 113.6875 314.875 L 113.6875 314.703125 L 113.691406 314.363281 L 113.738281 311.652344 C 113.738281 311.421875 113.753906 311.195312 113.765625 310.96875 L 113.796875 310.449219 C 113.808594 310.210938 113.828125 309.964844 113.851562 309.722656 C 113.929688 308.761719 114.054688 307.800781 114.210938 306.847656 C 114.523438 304.933594 114.992188 303.046875 115.601562 301.210938 C 118.035156 293.84375 122.851562 287.3125 129.140625 282.785156 C 135.40625 278.230469 143.148438 275.742188 150.894531 275.761719 L 162.230469 275.761719 L 162.230469 201.535156 C 158.941406 197.925781 156.273438 193.742188 154.402344 189.230469 C 152.273438 184.105469 151.183594 178.554688 151.1875 173.015625 C 151.183594 167.476562 152.273438 161.925781 154.402344 156.804688 C 156.527344 151.679688 159.671875 146.984375 163.589844 143.0625 C 167.515625 139.144531 172.207031 136 177.332031 133.875 C 178.726562 133.296875 180.148438 132.800781 181.597656 132.378906 L 181.597656 51.667969 L 187.695312 51.667969 L 187.695312 44.152344 L 134.441406 44.152344 C 134.042969 45.988281 133.347656 47.765625 132.378906 49.382812 C 131.730469 50.457031 130.964844 51.460938 130.105469 52.371094 C 129.679688 52.816406 129.203125 53.261719 128.757812 53.644531 L 127.5 54.726562 L 117.472656 63.367188 L 97.417969 80.65625 L 77.363281 97.941406 L 72.351562 102.265625 L 69.84375 104.425781 L 69.214844 104.964844 C 68.996094 105.152344 68.742188 105.367188 68.5 105.554688 C 68.003906 105.941406 67.488281 106.300781 66.953125 106.628906 C 63.472656 108.792969 59.234375 109.554688 55.230469 108.917969 L 43.359375 121.546875 L 29.445312 121.546875 L 29.445312 130.679688 L 0 130.679688 L 0 120.28125 L 4.230469 120.28125 L 4.230469 126.449219 L 25.210938 126.449219 L 25.210938 105.46875 L 4.230469 105.46875 L 4.230469 111.636719 Z M 150.894531 279.875 C 143.992188 279.855469 137.125 282.066406 131.546875 286.121094 C 125.953125 290.148438 121.664062 295.964844 119.503906 302.507812 C 118.964844 304.140625 118.542969 305.816406 118.269531 307.515625 C 118.128906 308.367188 118.015625 309.21875 117.949219 310.078125 L 117.886719 310.890625 L 269.199219 310.890625 L 269.199219 310.886719 L 269.175781 310.492188 L 269.121094 309.847656 C 268.964844 308.132812 268.667969 306.429688 268.246094 304.765625 C 266.558594 298.085938 262.695312 291.980469 257.398438 287.566406 C 252.121094 283.132812 245.429688 280.417969 238.550781 279.960938 C 237.6875 279.894531 236.84375 279.875 235.953125 279.875 Z M 220.75 275.761719 L 220.75 205.472656 C 217.449219 208.242188 213.734375 210.511719 209.753906 212.160156 C 205.269531 214.027344 200.453125 215.089844 195.605469 215.328125 L 195.605469 275.761719 Z M 191.488281 275.761719 L 191.488281 215.328125 C 189.140625 215.210938 186.804688 214.890625 184.503906 214.390625 L 184.503906 275.761719 Z M 180.390625 275.761719 L 180.390625 213.277344 C 179.359375 212.941406 178.335938 212.574219 177.332031 212.160156 C 173.351562 210.511719 169.640625 208.242188 166.34375 205.472656 L 166.34375 275.761719 Z M 178.90625 137.675781 C 174.28125 139.589844 170.042969 142.429688 166.503906 145.972656 C 162.957031 149.515625 160.117188 153.753906 158.203125 158.378906 C 156.277344 163 155.296875 168.007812 155.296875 173.015625 C 155.296875 178.03125 156.277344 183.03125 158.203125 187.65625 C 160.117188 192.28125 162.957031 196.519531 166.503906 200.0625 C 170.042969 203.601562 174.28125 206.441406 178.90625 208.355469 C 183.53125 210.277344 188.53125 211.265625 193.542969 211.265625 C 198.554688 211.265625 203.558594 210.277344 208.179688 208.355469 C 212.804688 206.441406 217.046875 203.601562 220.589844 200.0625 C 224.128906 196.519531 226.96875 192.28125 228.886719 187.65625 C 230.808594 183.035156 231.789062 178.03125 231.789062 173.015625 C 231.789062 168.007812 230.808594 163 228.886719 158.378906 C 226.96875 153.753906 224.128906 149.515625 220.589844 145.972656 C 217.046875 142.429688 212.804688 139.589844 208.179688 137.675781 C 203.558594 135.753906 198.554688 134.769531 193.542969 134.773438 C 188.53125 134.769531 183.53125 135.753906 178.90625 137.675781 M 185.707031 55.78125 L 185.707031 131.394531 C 188.292969 130.910156 190.921875 130.65625 193.542969 130.660156 C 199.085938 130.65625 204.632812 131.746094 209.757812 133.875 C 214.886719 136 219.578125 139.144531 223.496094 143.0625 C 227.414062 146.984375 230.5625 151.679688 232.6875 156.804688 C 234.65625 161.539062 235.722656 166.644531 235.871094 171.769531 C 247.335938 169.019531 258.007812 163.0625 266.375 154.738281 C 275.359375 145.863281 281.675781 134.316406 284.230469 121.945312 C 286.8125 109.585938 285.738281 96.460938 281.066406 84.726562 C 278.75 78.855469 275.558594 73.328125 271.644531 68.375 C 269.691406 65.898438 267.554688 63.5625 265.257812 61.394531 C 264.109375 60.3125 262.921875 59.265625 261.703125 58.265625 C 261.089844 57.773438 260.46875 57.277344 259.839844 56.804688 L 258.890625 56.097656 L 258.445312 55.777344 L 258.449219 55.78125 Z M 216.332031 44.152344 L 191.804688 44.152344 L 191.804688 51.667969 L 216.332031 51.667969 Z M 175.304688 40.035156 L 228.976562 40.035156 C 229.910156 40.039062 230.664062 40.042969 231.472656 39.960938 C 232.269531 39.894531 233.066406 39.761719 233.847656 39.589844 C 235.410156 39.230469 236.925781 38.664062 238.335938 37.898438 C 241.160156 36.378906 243.5625 34.078125 245.207031 31.320312 C 246.863281 28.570312 247.738281 25.371094 247.734375 22.15625 C 247.738281 18.9375 246.863281 15.742188 245.207031 12.988281 C 243.5625 10.230469 241.160156 7.929688 238.335938 6.410156 C 236.925781 5.644531 235.410156 5.082031 233.847656 4.722656 C 233.066406 4.546875 232.269531 4.417969 231.472656 4.347656 C 230.664062 4.269531 229.910156 4.269531 228.976562 4.273438 L 121.640625 4.273438 C 120.703125 4.269531 119.953125 4.269531 119.140625 4.347656 C 118.339844 4.417969 117.550781 4.546875 116.765625 4.722656 C 115.207031 5.078125 113.691406 5.644531 112.277344 6.410156 C 109.453125 7.929688 107.046875 10.230469 105.40625 12.988281 C 103.75 15.742188 102.875 18.9375 102.882812 22.15625 C 102.875 25.371094 103.75 28.570312 105.40625 31.320312 C 107.046875 34.078125 109.453125 36.378906 112.277344 37.898438 C 113.691406 38.664062 115.207031 39.230469 116.769531 39.589844 C 117.550781 39.765625 118.339844 39.894531 119.140625 39.960938 C 119.953125 40.042969 120.703125 40.039062 121.640625 40.035156 Z M 64.796875 103.125 C 65.207031 102.878906 65.597656 102.605469 65.96875 102.3125 C 66.160156 102.160156 66.332031 102.023438 66.53125 101.851562 L 67.15625 101.3125 L 69.664062 99.148438 L 74.679688 94.828125 L 94.734375 77.542969 L 114.789062 60.253906 L 124.816406 51.613281 L 126.070312 50.53125 C 126.457031 50.195312 126.789062 49.886719 127.121094 49.535156 C 127.777344 48.84375 128.363281 48.082031 128.851562 47.265625 C 129.4375 46.292969 129.871094 45.242188 130.183594 44.152344 L 121.640625 44.152344 C 120.785156 44.152344 119.746094 44.15625 118.773438 44.058594 C 117.792969 43.972656 116.816406 43.816406 115.855469 43.597656 C 113.929688 43.15625 112.0625 42.457031 110.324219 41.519531 C 107.476562 39.984375 104.988281 37.804688 103.070312 35.203125 L 64.726562 68.253906 L 54.703125 76.894531 L 49.6875 81.214844 L 49.0625 81.753906 C 48.882812 81.910156 48.707031 82.074219 48.535156 82.238281 C 48.195312 82.566406 47.871094 82.917969 47.570312 83.28125 C 46.964844 84.011719 46.441406 84.8125 46.015625 85.660156 C 44.28125 89.058594 44.144531 93.25 45.625 96.78125 C 47.066406 100.328125 50.125 103.164062 53.773438 104.347656 C 57.410156 105.566406 61.570312 105.136719 64.796875 103.125 M 29.445312 117.433594 L 41.578125 117.433594 L 50.820312 107.609375 C 49.523438 107.027344 48.308594 106.28125 47.191406 105.410156 L 38.695312 115.175781 L 29.445312 115.175781 L 29.445312 117.433594 "/>
</g>
<path style=" stroke:none;fill-rule:nonzero;fill:rgb(13.729858%,12.159729%,12.548828%);fill-opacity:1;" d="M 121.964844 17.9375 L 125.648438 24.707031 C 125.84375 25.070312 126.300781 25.203125 126.660156 25.007812 C 127.027344 24.808594 127.160156 24.355469 126.960938 23.992188 L 123.277344 17.222656 L 125.167969 16.195312 L 130.121094 19.21875 L 129.972656 25.019531 L 124.878906 27.792969 L 119.929688 24.765625 L 120.074219 18.96875 L 121.964844 17.9375 "/>
<path style=" stroke:none;fill-rule:nonzero;fill:rgb(13.729858%,12.159729%,12.548828%);fill-opacity:1;" d="M 113.550781 28.523438 C 111.882812 25.496094 111.488281 21.785156 112.484375 18.476562 C 113.445312 15.160156 115.789062 12.253906 118.832031 10.617188 C 121.859375 8.953125 125.570312 8.5625 128.875 9.554688 C 132.195312 10.515625 135.09375 12.855469 136.734375 15.902344 C 138.402344 18.929688 138.792969 22.636719 137.800781 25.945312 C 136.839844 29.265625 134.496094 32.167969 131.453125 33.804688 C 128.425781 35.472656 124.714844 35.863281 121.410156 34.871094 C 118.089844 33.90625 115.1875 31.5625 113.550781 28.523438 M 129.484375 30.191406 C 131.585938 29.058594 133.1875 27.078125 133.855469 24.78125 C 134.539062 22.492188 134.273438 19.960938 133.121094 17.867188 C 131.984375 15.765625 130.007812 14.167969 127.710938 13.496094 C 125.425781 12.816406 122.890625 13.082031 120.796875 14.234375 C 118.695312 15.367188 117.097656 17.34375 116.429688 19.640625 C 115.746094 21.929688 116.015625 24.460938 117.164062 26.554688 C 118.300781 28.660156 120.277344 30.253906 122.570312 30.925781 C 124.859375 31.609375 127.390625 31.34375 129.484375 30.191406 "/>
<path style=" stroke:none;fill-rule:nonzero;fill:rgb(13.729858%,12.159729%,12.548828%);fill-opacity:1;" d="M 221.332031 18.296875 L 225.019531 25.066406 C 225.21875 25.429688 225.671875 25.5625 226.03125 25.367188 C 226.398438 25.167969 226.53125 24.714844 226.332031 24.351562 L 222.648438 17.582031 L 224.539062 16.554688 L 229.488281 19.578125 L 229.34375 25.378906 L 224.25 28.152344 L 219.300781 25.128906 L 219.445312 19.328125 L 221.332031 18.296875 "/>
<path style=" stroke:none;fill-rule:nonzero;fill:rgb(13.729858%,12.159729%,12.548828%);fill-opacity:1;" d="M 218.199219 10.980469 C 221.230469 9.308594 224.941406 8.917969 228.246094 9.910156 C 231.5625 10.871094 234.46875 13.214844 236.105469 16.261719 C 237.773438 19.289062 238.167969 22.996094 237.167969 26.308594 C 236.207031 29.625 233.867188 32.527344 230.820312 34.164062 C 227.796875 35.832031 224.085938 36.222656 220.777344 35.230469 C 217.460938 34.269531 214.554688 31.925781 212.921875 28.882812 C 211.253906 25.855469 210.859375 22.144531 211.855469 18.835938 C 212.816406 15.519531 215.160156 12.613281 218.199219 10.980469 M 216.535156 26.910156 C 217.667969 29.019531 219.648438 30.617188 221.941406 31.285156 C 224.230469 31.96875 226.765625 31.699219 228.855469 30.550781 C 230.960938 29.414062 232.554688 27.433594 233.222656 25.140625 C 233.910156 22.851562 233.644531 20.320312 232.492188 18.230469 C 231.359375 16.125 229.375 14.523438 227.085938 13.855469 C 224.796875 13.175781 222.261719 13.441406 220.167969 14.59375 C 218.066406 15.726562 216.46875 17.707031 215.800781 20 C 215.117188 22.289062 215.382812 24.820312 216.535156 26.910156 "/>
</g>
</svg>
