<?xml version="1.0" encoding="UTF-8"?>
<svg xmlns="http://www.w3.org/2000/svg" xmlns:xlink="http://www.w3.org/1999/xlink" width="310pt" height="329pt" viewBox="0 0 310 329" version="1.1">
<defs>
<clipPath id="clip1">
  <path d="M 0 0.394531 L 309.585938 0.394531 L 309.585938 329 L 0 329 Z M 0 0.394531 "/>
</clipPath>
</defs>
<g id="surface1">
<path style=" stroke:none;fill-rule:nonzero;fill:rgb(13.729858%,12.159729%,12.548828%);fill-opacity:1;" d="M 261.410156 177.585938 C 257.738281 177.117188 254.160156 175.898438 250.953125 174.0625 C 247.75 172.214844 244.894531 169.738281 242.640625 166.800781 C 240.378906 163.867188 238.703125 160.488281 237.738281 156.914062 C 236.773438 153.34375 236.507812 149.574219 236.988281 145.902344 C 237.457031 142.226562 238.671875 138.648438 240.515625 135.441406 L 242.390625 136.519531 L 240.515625 135.441406 C 242.355469 132.238281 244.832031 129.382812 247.773438 127.121094 C 250.703125 124.859375 254.089844 123.191406 257.660156 122.226562 C 261.230469 121.257812 264.996094 120.996094 268.671875 121.476562 C 272.34375 121.941406 275.921875 123.160156 279.132812 125 C 282.339844 126.839844 285.1875 129.316406 287.445312 132.257812 C 289.714844 135.191406 291.382812 138.574219 292.347656 142.144531 C 293.3125 145.71875 293.574219 149.480469 293.097656 153.15625 C 292.628906 156.835938 291.414062 160.410156 289.570312 163.617188 C 287.730469 166.824219 285.25 169.675781 282.316406 171.933594 C 279.382812 174.199219 276 175.867188 272.425781 176.832031 C 268.855469 177.804688 265.09375 178.0625 261.410156 177.585938 M 285.820312 161.464844 C 288.980469 156.023438 289.839844 149.339844 288.171875 143.273438 C 286.558594 137.195312 282.445312 131.855469 276.976562 128.753906 C 271.53125 125.589844 264.855469 124.730469 258.785156 126.398438 C 252.710938 128.015625 247.367188 132.121094 244.261719 137.597656 C 241.101562 143.039062 240.246094 149.722656 241.910156 155.78125 C 243.53125 161.863281 247.640625 167.203125 253.109375 170.3125 C 258.550781 173.46875 265.234375 174.324219 271.296875 172.660156 C 277.375 171.042969 282.714844 166.933594 285.820312 161.464844 "/>
<g clip-path="url(#clip1)" clip-rule="nonzero">
<path style=" stroke:none;fill-rule:nonzero;fill:rgb(13.729858%,12.159729%,12.548828%);fill-opacity:1;" d="M 0 14.75 L 0 3.8125 L 28.796875 3.8125 L 28.796875 0.394531 L 136.230469 0.394531 L 136.230469 18.65625 L 179.742188 18.65625 L 179.742188 55.972656 L 278.007812 106.925781 C 281.21875 107.90625 284.316406 109.238281 287.222656 110.902344 C 292.277344 113.804688 296.765625 117.703125 300.320312 122.328125 C 303.886719 126.949219 306.515625 132.273438 308.039062 137.902344 C 309.5625 143.527344 309.972656 149.453125 309.222656 155.238281 C 308.480469 161.027344 306.570312 166.660156 303.667969 171.707031 C 300.765625 176.761719 296.867188 181.257812 292.242188 184.808594 C 288.175781 187.949219 283.554688 190.363281 278.667969 191.929688 L 239.796875 259.621094 L 251.21875 266.171875 L 251.21875 329 L 95.589844 329 L 95.589844 273.535156 C 95.578125 271.53125 95.652344 269.433594 95.890625 267.382812 C 96.355469 263.265625 97.421875 259.09375 99.496094 255.304688 C 101.542969 251.515625 104.691406 248.230469 108.46875 246.085938 C 110.347656 245.003906 112.359375 244.183594 114.433594 243.613281 C 115.460938 243.332031 116.511719 243.109375 117.578125 242.949219 C 117.945312 242.894531 118.316406 242.863281 118.683594 242.824219 L 118.683594 236.203125 C 118.699219 236.050781 118.652344 235.886719 118.714844 235.75 L 118.953125 235.347656 L 119.363281 234.648438 C 119.699219 234.089844 120.054688 233.53125 120.417969 232.988281 C 121.148438 231.902344 121.933594 230.847656 122.773438 229.835938 C 124.445312 227.804688 126.324219 225.953125 128.371094 224.308594 C 132.464844 221.011719 137.234375 218.570312 142.292969 217.152344 C 147.339844 215.726562 152.683594 215.324219 157.894531 216.003906 C 163.101562 216.667969 168.191406 218.441406 172.679688 221.070312 L 182.683594 226.820312 L 221.554688 159.136719 C 220.949219 156.394531 220.609375 153.601562 220.527344 150.800781 L 133.492188 100.636719 L 66.636719 100.636719 L 66.636719 38.191406 L 28.796875 38.191406 L 28.796875 34.773438 L 0 34.773438 L 0 23.839844 L 4.453125 23.839844 L 4.453125 30.320312 L 26.511719 30.320312 L 26.511719 8.261719 L 4.453125 8.261719 L 4.453125 14.75 Z M 118.683594 267.296875 L 118.683594 247.171875 C 118.527344 247.191406 118.371094 247.203125 118.21875 247.226562 C 117.328125 247.363281 116.441406 247.546875 115.574219 247.785156 C 113.835938 248.265625 112.160156 248.945312 110.621094 249.835938 C 107.527344 251.597656 104.996094 254.222656 103.285156 257.375 C 101.558594 260.535156 100.605469 264.15625 100.183594 267.867188 C 99.972656 269.738281 99.898438 271.589844 99.914062 273.535156 L 99.914062 324.671875 L 118.683594 324.671875 Z M 289.605469 181.386719 C 293.773438 178.171875 297.289062 174.125 299.917969 169.554688 C 302.542969 164.988281 304.261719 159.910156 304.933594 154.691406 C 305.609375 149.472656 305.234375 144.117188 303.863281 139.03125 C 302.492188 133.949219 300.113281 129.136719 296.894531 124.96875 C 293.691406 120.796875 289.640625 117.28125 285.070312 114.65625 C 280.5 112.027344 275.425781 110.308594 270.199219 109.636719 C 264.984375 108.964844 259.628906 109.332031 254.546875 110.710938 C 249.460938 112.085938 244.648438 114.460938 240.484375 117.671875 C 236.3125 120.882812 232.792969 124.929688 230.171875 129.5 C 227.542969 134.070312 225.816406 139.144531 225.152344 144.371094 C 224.480469 149.585938 224.847656 154.941406 226.222656 160.023438 C 227.597656 165.113281 229.972656 169.921875 233.1875 174.09375 C 236.398438 178.261719 240.445312 181.777344 245.015625 184.40625 C 249.585938 187.027344 254.660156 188.75 259.886719 189.417969 C 265.105469 190.097656 270.453125 189.722656 275.542969 188.347656 C 280.628906 186.976562 285.433594 184.597656 289.605469 181.386719 M 241.011719 187.035156 C 237.332031 184.671875 233.988281 181.769531 231.148438 178.4375 L 198.234375 235.75 L 198.496094 235.898438 L 209.359375 242.144531 Z M 213.109375 244.292969 L 223.519531 250.269531 L 256.296875 193.199219 C 252.289062 192.394531 248.394531 191.046875 244.765625 189.183594 Z M 272.855469 193.367188 C 268.910156 194.070312 264.882812 194.242188 260.894531 193.871094 L 227.269531 252.421875 L 236.046875 257.460938 Z M 123.007812 236.988281 L 123.007812 236.984375 Z M 143.464844 221.3125 L 143.464844 221.316406 C 138.960938 222.578125 134.71875 224.753906 131.082031 227.679688 C 129.265625 229.136719 127.59375 230.789062 126.105469 232.589844 C 125.359375 233.488281 124.660156 234.429688 124.011719 235.394531 C 123.683594 235.882812 123.375 236.375 123.074219 236.878906 L 123.015625 236.96875 C 123.007812 236.984375 123.007812 236.976562 123.007812 236.976562 L 123.007812 324.671875 L 246.890625 324.671875 L 246.890625 268.679688 L 232.851562 260.617188 L 232.851562 313.863281 L 143.464844 313.863281 Z M 170.523438 224.820312 C 166.453125 222.433594 161.984375 220.890625 157.347656 220.289062 C 154.171875 219.878906 150.949219 219.929688 147.789062 220.394531 L 147.789062 309.539062 L 228.523438 309.539062 L 228.523438 258.125 L 196.347656 239.648438 Z M 186.433594 228.96875 L 194.484375 233.597656 L 228.300781 174.710938 C 226.210938 171.660156 224.515625 168.351562 223.238281 164.878906 Z M 220.644531 145.875 C 220.703125 145.183594 220.773438 144.5 220.859375 143.8125 C 221.601562 138.03125 223.519531 132.398438 226.417969 127.351562 C 229.316406 122.292969 233.21875 117.804688 237.84375 114.25 C 242.464844 110.683594 247.789062 108.054688 253.414062 106.535156 C 257.152344 105.523438 261.023438 105.011719 264.894531 104.996094 L 179.742188 60.84375 L 179.742188 100.636719 L 142.152344 100.636719 Z M 70.964844 96.3125 L 175.414062 96.3125 L 175.414062 22.976562 L 70.964844 22.976562 Z M 33.121094 33.867188 L 66.636719 33.867188 L 66.636719 18.65625 L 131.90625 18.65625 L 131.90625 4.71875 L 33.121094 4.71875 L 33.121094 33.867188 "/>
</g>
<path style=" stroke:none;fill-rule:nonzero;fill:rgb(13.729858%,12.159729%,12.548828%);fill-opacity:1;" d="M 93.386719 58.558594 L 88.179688 55.375 L 88.335938 49.277344 L 90.324219 48.195312 L 94.195312 55.3125 C 94.40625 55.695312 94.882812 55.835938 95.265625 55.628906 C 95.644531 55.421875 95.785156 54.945312 95.578125 54.558594 L 91.707031 47.445312 L 93.691406 46.359375 L 98.898438 49.542969 L 98.742188 55.644531 L 93.386719 58.558594 "/>
<path style=" stroke:none;fill-rule:nonzero;fill:rgb(13.729858%,12.159729%,12.548828%);fill-opacity:1;" d="M 100.296875 64.878906 C 97.113281 66.628906 93.214844 67.046875 89.738281 65.996094 C 86.25 64.992188 83.199219 62.527344 81.476562 59.324219 C 79.722656 56.144531 79.308594 52.242188 80.355469 48.761719 C 81.367188 45.277344 83.828125 42.21875 87.03125 40.5 C 90.210938 38.746094 94.113281 38.335938 97.589844 39.378906 C 101.078125 40.390625 104.136719 42.855469 105.851562 46.054688 C 107.609375 49.234375 108.019531 53.140625 106.976562 56.617188 C 105.964844 60.105469 103.5 63.15625 100.296875 64.878906 M 102.054688 48.125 C 100.863281 45.910156 98.777344 44.230469 96.367188 43.523438 C 93.960938 42.808594 91.300781 43.089844 89.097656 44.296875 C 86.886719 45.492188 85.203125 47.574219 84.503906 49.984375 C 83.785156 52.394531 84.066406 55.054688 85.273438 57.261719 C 86.46875 59.46875 88.546875 61.144531 90.960938 61.851562 C 93.367188 62.570312 96.03125 62.285156 98.234375 61.078125 C 100.441406 59.890625 102.125 57.804688 102.824219 55.394531 C 103.546875 52.984375 103.265625 50.320312 102.054688 48.125 "/>
<path style=" stroke:none;fill-rule:nonzero;fill:rgb(13.729858%,12.159729%,12.548828%);fill-opacity:1;" d="M 148.875 57.070312 L 148.40625 50.988281 L 153.441406 47.535156 L 155.476562 48.519531 L 151.980469 55.824219 C 151.792969 56.222656 151.957031 56.6875 152.347656 56.878906 C 152.746094 57.0625 153.210938 56.898438 153.398438 56.507812 L 156.898438 49.199219 L 158.945312 50.171875 L 159.40625 56.253906 L 154.378906 59.703125 L 148.875 57.070312 "/>
<path style=" stroke:none;fill-rule:nonzero;fill:rgb(13.729858%,12.159729%,12.548828%);fill-opacity:1;" d="M 158.402344 66.945312 C 154.988281 68.171875 151.066406 67.960938 147.800781 66.375 C 144.515625 64.824219 141.898438 61.898438 140.707031 58.46875 C 139.480469 55.046875 139.695312 51.132812 141.277344 47.863281 C 142.832031 44.578125 145.757812 41.957031 149.1875 40.769531 C 152.601562 39.546875 156.523438 39.753906 159.789062 41.34375 C 163.074219 42.894531 165.699219 45.8125 166.882812 49.25 C 168.109375 52.664062 167.898438 56.585938 166.3125 59.851562 C 164.761719 63.140625 161.839844 65.757812 158.402344 66.945312 M 162.808594 50.6875 C 161.976562 48.316406 160.195312 46.320312 157.921875 45.242188 C 155.660156 44.148438 152.988281 44.003906 150.621094 44.847656 C 148.25 45.675781 146.257812 47.460938 145.183594 49.730469 L 143.230469 48.796875 L 145.179688 49.734375 C 144.089844 51.996094 143.945312 54.664062 144.785156 57.03125 C 145.613281 59.40625 147.398438 61.398438 149.667969 62.476562 C 151.933594 63.570312 154.605469 63.710938 156.96875 62.867188 C 159.34375 62.039062 161.332031 60.253906 162.414062 57.984375 C 163.503906 55.722656 163.644531 53.050781 162.808594 50.6875 "/>
<path style=" stroke:none;fill-rule:nonzero;fill:rgb(13.729858%,12.159729%,12.548828%);fill-opacity:1;" d="M 80.390625 81.796875 L 80.390625 78.296875 L 166.023438 78.296875 L 166.023438 81.796875 L 80.390625 81.796875 "/>
</g>
</svg>
