<?xml version="1.0" encoding="UTF-8"?>
<svg xmlns="http://www.w3.org/2000/svg" xmlns:xlink="http://www.w3.org/1999/xlink" width="2740pt" height="100pt" viewBox="0 0 2740 100" version="1.1">
<g id="surface1">
<path style=" stroke:none;fill-rule:nonzero;fill:rgb(3.579712%,4.124451%,4.595947%);fill-opacity:1;" d="M 100 100 L 62.367188 100 L 49.925781 87.554688 L 37.480469 100 L 0 100 L 12.445312 0 L 87.40625 0 L 100 100 "/>
<path style=" stroke:none;fill-rule:nonzero;fill:rgb(3.579712%,4.124451%,4.595947%);fill-opacity:1;" d="M 110 100 L 110 0 L 197.40625 0 L 210 12.59375 L 210 37.480469 L 197.40625 50.074219 L 210 62.519531 L 210 87.554688 L 197.40625 100 L 110 100 "/>
<path style=" stroke:none;fill-rule:nonzero;fill:rgb(3.579712%,4.124451%,4.595947%);fill-opacity:1;" d="M 232.445312 100 L 220 87.554688 L 220 12.59375 L 232.445312 0 L 320 0 L 320 37.480469 L 307.40625 50.074219 L 320 62.519531 L 320 100 L 232.445312 100 "/>
<path style=" stroke:none;fill-rule:nonzero;fill:rgb(3.579712%,4.124451%,4.595947%);fill-opacity:1;" d="M 430 87.554688 L 417.40625 100 L 330 100 L 330 0 L 417.40625 0 L 430 12.59375 L 430 87.554688 "/>
<path style=" stroke:none;fill-rule:nonzero;fill:rgb(3.579712%,4.124451%,4.595947%);fill-opacity:1;" d="M 440 0 L 514.960938 0 L 514.960938 25.035156 L 527.40625 25.035156 L 527.40625 50.074219 L 540 50.074219 L 540 100 L 440 100 L 440 0 "/>
<path style=" stroke:none;fill-rule:nonzero;fill:rgb(3.579712%,4.124451%,4.595947%);fill-opacity:1;" d="M 650 0 L 650 49.925781 L 637.40625 49.925781 L 637.40625 74.960938 L 624.960938 74.960938 L 624.960938 100 L 550 100 L 550 0 L 650 0 "/>
<path style=" stroke:none;fill-rule:nonzero;fill:rgb(3.579712%,4.124451%,4.595947%);fill-opacity:1;" d="M 672.445312 100 L 660 87.554688 L 660 12.59375 L 672.445312 0 L 747.40625 0 L 747.40625 37.480469 L 760 50.074219 L 760 100 L 672.445312 100 "/>
<path style=" stroke:none;fill-rule:nonzero;fill:rgb(3.579712%,4.124451%,4.595947%);fill-opacity:1;" d="M 870 100 L 832.519531 100 L 819.925781 87.554688 L 807.480469 100 L 770 100 L 770 0 L 807.480469 0 L 819.925781 12.59375 L 832.519531 0 L 870 0 L 870 100 "/>
<path style=" stroke:none;fill-rule:nonzero;fill:rgb(3.579712%,4.124451%,4.595947%);fill-opacity:1;" d="M 892.519531 100 L 892.519531 0 L 967.480469 0 L 967.480469 100 L 892.519531 100 "/>
<path style=" stroke:none;fill-rule:nonzero;fill:rgb(3.579712%,4.124451%,4.595947%);fill-opacity:1;" d="M 1002.441406 0 L 1090 0 L 1090 87.554688 L 1077.410156 100 L 1002.441406 100 L 990 87.554688 L 990 37.480469 L 1002.441406 37.480469 L 1002.441406 0 "/>
<path style=" stroke:none;fill-rule:nonzero;fill:rgb(3.579712%,4.124451%,4.595947%);fill-opacity:1;" d="M 1187.410156 50.074219 L 1200 62.519531 L 1200 100 L 1162.519531 100 L 1149.921875 87.554688 L 1137.480469 100 L 1100 100 L 1100 0 L 1137.480469 0 L 1149.921875 12.59375 L 1162.519531 0 L 1200 0 L 1200 37.480469 L 1187.410156 50.074219 "/>
<path style=" stroke:none;fill-rule:nonzero;fill:rgb(3.579712%,4.124451%,4.595947%);fill-opacity:1;" d="M 1210 0 L 1297.410156 0 L 1297.410156 37.480469 L 1310 37.480469 L 1310 100 L 1210 100 L 1210 0 "/>
<path style=" stroke:none;fill-rule:nonzero;fill:rgb(3.579712%,4.124451%,4.595947%);fill-opacity:1;" d="M 1320 100 L 1320 0 L 1357.480469 0 L 1369.921875 12.59375 L 1382.519531 0 L 1420 0 L 1420 100 L 1320 100 "/>
<path style=" stroke:none;fill-rule:nonzero;fill:rgb(3.579712%,4.124451%,4.595947%);fill-opacity:1;" d="M 1530 100 L 1492.519531 100 L 1467.480469 87.554688 L 1455.039062 100 L 1430 100 L 1430 0 L 1467.480469 0 L 1492.519531 12.59375 L 1504.960938 0 L 1530 0 L 1530 100 "/>
<path style=" stroke:none;fill-rule:nonzero;fill:rgb(3.579712%,4.124451%,4.595947%);fill-opacity:1;" d="M 1640 87.554688 L 1627.410156 100 L 1552.441406 100 L 1540 87.554688 L 1540 12.59375 L 1552.441406 0 L 1627.410156 0 L 1640 12.59375 L 1640 87.554688 "/>
<path style=" stroke:none;fill-rule:nonzero;fill:rgb(3.579712%,4.124451%,4.595947%);fill-opacity:1;" d="M 1737.410156 74.960938 L 1737.410156 100 L 1650 100 L 1650 0 L 1737.410156 0 L 1750 12.59375 L 1750 62.519531 L 1737.410156 74.960938 "/>
<path style=" stroke:none;fill-rule:nonzero;fill:rgb(3.579712%,4.124451%,4.595947%);fill-opacity:1;" d="M 1860 100 L 1760 100 L 1760 0 L 1847.410156 0 L 1860 12.59375 L 1860 50.074219 L 1847.410156 62.519531 L 1860 74.960938 L 1860 100 "/>
<path style=" stroke:none;fill-rule:nonzero;fill:rgb(3.579712%,4.124451%,4.595947%);fill-opacity:1;" d="M 1957.410156 100 L 1870 100 L 1870 74.960938 L 1882.441406 62.519531 L 1870 50.074219 L 1870 12.59375 L 1882.441406 0 L 1970 0 L 1970 25.035156 L 1957.410156 37.480469 L 1970 50.074219 L 1970 87.554688 L 1957.410156 100 "/>
<path style=" stroke:none;fill-rule:nonzero;fill:rgb(3.579712%,4.124451%,4.595947%);fill-opacity:1;" d="M 2067.410156 100 L 1992.441406 100 L 1992.441406 50.074219 L 1980 50.074219 L 1980 0 L 2080 0 L 2080 50.074219 L 2067.410156 50.074219 L 2067.410156 100 "/>
<path style=" stroke:none;fill-rule:nonzero;fill:rgb(3.579712%,4.124451%,4.595947%);fill-opacity:1;" d="M 2177.410156 100 L 2102.441406 100 L 2090 87.554688 L 2090 0 L 2127.480469 0 L 2139.921875 12.59375 L 2152.519531 0 L 2190 0 L 2190 87.554688 L 2177.410156 100 "/>
<path style=" stroke:none;fill-rule:nonzero;fill:rgb(3.579712%,4.124451%,4.595947%);fill-opacity:1;" d="M 2287.410156 100 L 2212.441406 100 L 2200 0 L 2237.480469 0 L 2249.921875 12.59375 L 2262.519531 0 L 2300 0 L 2287.410156 100 "/>
<path style=" stroke:none;fill-rule:nonzero;fill:rgb(3.579712%,4.124451%,4.595947%);fill-opacity:1;" d="M 2397.398438 100 L 2372.519531 100 L 2359.921875 87.554688 L 2347.480469 100 L 2322.441406 100 L 2310 87.554688 L 2310 0 L 2347.480469 0 L 2359.921875 12.59375 L 2372.519531 0 L 2410 0 L 2410 87.554688 L 2397.398438 100 "/>
<path style=" stroke:none;fill-rule:nonzero;fill:rgb(3.579712%,4.124451%,4.595947%);fill-opacity:1;" d="M 2520 100 L 2482.519531 100 L 2469.921875 87.554688 L 2457.480469 100 L 2420 100 L 2420 62.519531 L 2432.441406 50.074219 L 2420 37.480469 L 2420 0 L 2457.480469 0 L 2469.921875 12.59375 L 2482.519531 0 L 2520 0 L 2520 37.480469 L 2507.398438 50.074219 L 2520 62.519531 L 2520 100 "/>
<path style=" stroke:none;fill-rule:nonzero;fill:rgb(3.579712%,4.124451%,4.595947%);fill-opacity:1;" d="M 2617.398438 100 L 2542.441406 100 L 2542.441406 62.519531 L 2530 50.074219 L 2530 0 L 2567.480469 0 L 2579.921875 12.59375 L 2592.519531 0 L 2630 0 L 2630 50.074219 L 2617.398438 62.519531 L 2617.398438 100 "/>
<path style=" stroke:none;fill-rule:nonzero;fill:rgb(3.579712%,4.124451%,4.595947%);fill-opacity:1;" d="M 2740 100 L 2640 100 L 2640 50.074219 L 2652.441406 37.480469 L 2640 25.035156 L 2640 0 L 2740 0 L 2740 50.074219 L 2727.398438 62.519531 L 2740 74.960938 L 2740 100 "/>
</g>
</svg>
