<?xml version="1.0" encoding="UTF-8"?>
<svg xmlns="http://www.w3.org/2000/svg" xmlns:xlink="http://www.w3.org/1999/xlink" width="793pt" height="326pt" viewBox="0 0 793 326" version="1.1">
<g id="surface1">
<path style=" stroke:none;fill-rule:nonzero;fill:rgb(13.729858%,12.159729%,12.548828%);fill-opacity:1;" d="M 422.226562 155.921875 L 413.625 133.023438 C 411.527344 127.421875 409.027344 124.320312 403.027344 123.121094 C 411.625 121.621094 418.425781 116.121094 418.425781 106.921875 C 418.425781 93.621094 407.125 89.222656 395.726562 89.222656 L 368.527344 89.222656 L 368.527344 155.921875 L 383.027344 155.921875 L 383.027344 128.320312 L 388.425781 128.320312 C 395.726562 128.320312 397.226562 130.320312 399.527344 136.820312 L 406.425781 155.921875 Z M 403.527344 108.421875 C 403.527344 116.320312 396.425781 118.421875 389.625 118.421875 L 382.925781 118.421875 L 382.925781 99.121094 L 390.027344 99.121094 C 397.226562 99.121094 403.527344 100.621094 403.527344 108.421875 M 491.625 122.621094 C 491.625 101.820312 480.125 88.222656 458.824219 88.222656 C 437.925781 88.222656 426.125 102.320312 426.125 122.621094 C 426.125 143.421875 437.425781 157.023438 458.824219 157.023438 C 479.824219 157.023438 491.625 143.121094 491.625 122.621094 M 476.125 122.621094 C 476.125 133.722656 472.125 146.722656 458.824219 146.722656 C 445.925781 146.722656 441.625 133.421875 441.625 122.621094 C 441.625 111.820312 445.824219 98.519531 458.824219 98.519531 C 472.125 98.519531 476.125 111.523438 476.125 122.621094 M 551.824219 137.121094 C 551.824219 128.121094 545.425781 122.722656 537.023438 121.320312 C 545.125 119.523438 550.125 114.222656 550.125 105.722656 C 550.125 92.921875 539.023438 89.222656 528.125 89.222656 L 500.925781 89.222656 L 500.925781 155.921875 L 525.324219 155.921875 C 538.425781 155.921875 551.824219 152.921875 551.824219 137.121094 M 535.425781 107.523438 C 535.425781 115.320312 528.824219 117.421875 522.222656 117.421875 L 515.125 117.421875 L 515.125 98.320312 L 523.425781 98.320312 C 529.425781 98.320312 535.425781 100.523438 535.425781 107.523438 M 536.824219 136.523438 C 536.824219 144.820312 528.925781 146.820312 522.125 146.820312 L 515.125 146.820312 L 515.125 125.921875 L 521.523438 125.921875 C 528.824219 125.921875 536.824219 127.523438 536.824219 136.523438 M 607.921875 155.921875 L 607.921875 145.722656 L 578.023438 145.722656 L 578.023438 127.023438 L 605.722656 127.023438 L 605.722656 116.921875 L 578.023438 116.921875 L 578.023438 99.421875 L 607.023438 99.421875 L 607.023438 89.222656 L 563.523438 89.222656 L 563.523438 155.921875 Z M 673.023438 155.921875 L 664.421875 133.023438 C 662.324219 127.421875 659.824219 124.320312 653.824219 123.121094 C 662.421875 121.621094 669.222656 116.121094 669.222656 106.921875 C 669.222656 93.621094 657.921875 89.222656 646.523438 89.222656 L 619.324219 89.222656 L 619.324219 155.921875 L 633.824219 155.921875 L 633.824219 128.320312 L 639.222656 128.320312 C 646.523438 128.320312 648.023438 130.320312 650.324219 136.820312 L 657.222656 155.921875 Z M 654.324219 108.421875 C 654.324219 116.320312 647.222656 118.421875 640.421875 118.421875 L 633.722656 118.421875 L 633.722656 99.121094 L 640.824219 99.121094 C 648.023438 99.121094 654.324219 100.621094 654.324219 108.421875 M 730.625 101.023438 L 730.625 89.222656 L 673.921875 89.222656 L 673.921875 101.023438 L 694.824219 101.023438 L 694.824219 155.921875 L 709.722656 155.921875 L 709.722656 101.023438 Z M 792.914062 155.921875 L 767.414062 89.222656 L 748.011719 89.222656 L 722.613281 155.921875 L 737.210938 155.921875 L 743.210938 139.222656 L 771.613281 139.222656 L 777.511719 155.921875 Z M 768.511719 129.121094 L 746.210938 129.121094 L 757.511719 98.621094 Z M 768.511719 129.121094 "/>
<path style=" stroke:none;fill-rule:nonzero;fill:rgb(13.729858%,12.159729%,12.548828%);fill-opacity:1;" d="M 425.027344 39.621094 C 425.027344 21.222656 416.125 5.222656 395.824219 5.222656 C 376.125 5.222656 366.625 21.722656 366.625 39.621094 C 366.625 58.121094 375.425781 74.019531 395.824219 74.019531 C 415.625 74.019531 425.027344 57.621094 425.027344 39.621094 M 418.726562 39.621094 C 418.726562 53.820312 412.027344 68.421875 395.824219 68.421875 C 379.925781 68.421875 372.925781 53.621094 372.925781 39.621094 C 372.925781 25.621094 379.824219 10.820312 395.824219 10.820312 C 412.027344 10.820312 418.726562 25.421875 418.726562 39.621094 M 475.625 24.820312 C 475.625 12.421875 466.425781 6.222656 454.625 6.222656 L 439.226562 6.222656 L 439.226562 72.921875 L 445.226562 72.921875 L 445.226562 43.820312 L 454.023438 43.820312 C 464.824219 43.820312 475.625 38.121094 475.625 24.820312 M 469.324219 24.921875 C 469.324219 37.121094 460.125 38.421875 450.226562 38.421875 L 445.226562 38.421875 L 445.226562 11.621094 L 455.523438 11.621094 C 463.925781 11.621094 469.324219 16.421875 469.324219 24.921875 M 520.425781 72.921875 L 520.425781 67.519531 L 493.425781 67.519531 L 493.425781 41.222656 L 517.925781 41.222656 L 517.925781 36.019531 L 493.425781 36.019531 L 493.425781 11.621094 L 519.324219 11.621094 L 519.324219 6.222656 L 487.425781 6.222656 L 487.425781 72.921875 Z M 582.222656 72.921875 L 582.222656 6.222656 L 576.421875 6.222656 L 576.421875 65.820312 L 542.222656 6.222656 L 534.023438 6.222656 L 534.023438 72.921875 L 539.824219 72.921875 L 539.824219 13.320312 L 574.023438 72.921875 L 582.222656 72.921875 "/>
<path style=" stroke:none;fill-rule:nonzero;fill:rgb(13.729858%,12.159729%,12.548828%);fill-opacity:1;" d="M 155.90625 19.640625 L 136.269531 0.0078125 L 19.398438 0.0078125 L 0 19.640625 L 0 136.511719 L 19.398438 155.910156 L 136.269531 155.910156 L 155.90625 136.511719 L 155.90625 19.640625 "/>
<path style=" stroke:none;fill-rule:nonzero;fill:rgb(13.729858%,12.159729%,12.548828%);fill-opacity:1;" d="M 0 170.097656 L 0 326 L 155.902344 326 L 155.902344 248.164062 L 136.269531 248.164062 L 136.269531 209.128906 L 116.871094 209.128906 L 116.871094 170.097656 L 0 170.097656 "/>
<path style=" stroke:none;fill-rule:nonzero;fill:rgb(13.729858%,12.159729%,12.548828%);fill-opacity:1;" d="M 286.949219 170.097656 L 267.550781 189.730469 L 228.515625 170.097656 L 170.078125 170.097656 L 170.078125 326 L 209.113281 326 L 228.515625 306.601562 L 267.550781 326 L 325.984375 326 L 325.984375 170.097656 L 286.949219 170.097656 "/>
<path style=" stroke:none;fill-rule:nonzero;fill:rgb(13.729858%,12.159729%,12.548828%);fill-opacity:1;" d="M 325.984375 97.484375 L 325.984375 19.652344 L 306.351562 0.015625 L 170.078125 0.015625 L 170.078125 155.921875 L 306.351562 155.921875 L 306.351562 116.886719 L 325.984375 97.484375 "/>
</g>
</svg>
