<?xml version="1.0" encoding="UTF-8"?>
<svg xmlns="http://www.w3.org/2000/svg" xmlns:xlink="http://www.w3.org/1999/xlink" width="793pt" height="326pt" viewBox="0 0 793 326" version="1.1">
<defs>
<clipPath id="clip1">
  <path d="M 0 0.015625 L 326 0.015625 L 326 326 L 0 326 Z M 0 0.015625 "/>
</clipPath>
<clipPath id="clip2">
  <path d="M 368 5 L 792.890625 5 L 792.890625 75 L 368 75 Z M 368 5 "/>
</clipPath>
</defs>
<g id="surface1">
<g clip-path="url(#clip1)" clip-rule="nonzero">
<path style=" stroke:none;fill-rule:nonzero;fill:rgb(99.291992%,86.499023%,1.412964%);fill-opacity:1;" d="M 0 0.015625 L 0 326 L 325.984375 326 L 325.984375 244.382812 L 284.929688 203.816406 L 325.984375 163.253906 L 325.984375 41.070312 L 284.929688 0.015625 L 0 0.015625 "/>
</g>
<path style=" stroke:none;fill-rule:nonzero;fill:rgb(13.729858%,12.159729%,12.548828%);fill-opacity:1;" d="M 376.003906 89.222656 L 370.003906 89.222656 L 370.003906 155.921875 L 376.003906 155.921875 Z M 441.804688 155.921875 L 441.804688 89.222656 L 436.003906 89.222656 L 436.003906 148.820312 L 401.804688 89.222656 L 393.601562 89.222656 L 393.601562 155.921875 L 399.402344 155.921875 L 399.402344 96.320312 L 433.601562 155.921875 Z M 465.402344 89.222656 L 459.402344 89.222656 L 459.402344 155.921875 L 465.402344 155.921875 Z M 520.300781 94.621094 L 520.300781 89.222656 L 475.199219 89.222656 L 475.199219 94.621094 L 494.699219 94.621094 L 494.699219 155.921875 L 500.699219 155.921875 L 500.699219 94.621094 Z M 536.101562 89.222656 L 530.101562 89.222656 L 530.101562 155.921875 L 536.101562 155.921875 Z M 605.898438 155.921875 L 578.898438 89.222656 L 572.398438 89.222656 L 545.5 155.921875 L 551.199219 155.921875 L 558.601562 137.421875 L 592.5 137.421875 L 599.699219 155.921875 Z M 590.398438 132.121094 L 560.699219 132.121094 L 575.601562 94.820312 Z M 647.789062 94.621094 L 647.789062 89.222656 L 602.691406 89.222656 L 602.691406 94.621094 L 622.191406 94.621094 L 622.191406 155.921875 L 628.191406 155.921875 L 628.191406 94.621094 Z M 663.589844 89.222656 L 657.589844 89.222656 L 657.589844 155.921875 L 663.589844 155.921875 Z M 729.589844 89.222656 L 723.6875 89.222656 L 701.488281 150.222656 L 679.488281 89.222656 L 673.1875 89.222656 L 698.1875 155.921875 L 704.488281 155.921875 Z M 772.1875 155.921875 L 772.1875 150.519531 L 745.1875 150.519531 L 745.1875 124.222656 L 769.6875 124.222656 L 769.6875 119.019531 L 745.1875 119.019531 L 745.1875 94.621094 L 771.085938 94.621094 L 771.085938 89.222656 L 739.1875 89.222656 L 739.1875 155.921875 L 772.1875 155.921875 "/>
<g clip-path="url(#clip2)" clip-rule="nonzero">
<path style=" stroke:none;fill-rule:nonzero;fill:rgb(13.729858%,12.159729%,12.548828%);fill-opacity:1;" d="M 422.203125 72.921875 L 413.605469 50.023438 C 411.503906 44.421875 409.003906 41.320312 403.003906 40.121094 C 411.605469 38.621094 418.402344 33.121094 418.402344 23.921875 C 418.402344 10.621094 407.105469 6.222656 395.703125 6.222656 L 368.503906 6.222656 L 368.503906 72.921875 L 383.003906 72.921875 L 383.003906 45.320312 L 388.402344 45.320312 C 395.703125 45.320312 397.203125 47.320312 399.503906 53.820312 L 406.402344 72.921875 Z M 403.503906 25.421875 C 403.503906 33.320312 396.402344 35.421875 389.605469 35.421875 L 382.902344 35.421875 L 382.902344 16.121094 L 390.003906 16.121094 C 397.203125 16.121094 403.503906 17.621094 403.503906 25.421875 M 491.605469 39.621094 C 491.605469 18.820312 480.105469 5.222656 458.804688 5.222656 C 437.902344 5.222656 426.105469 19.320312 426.105469 39.621094 C 426.105469 60.421875 437.402344 74.023438 458.804688 74.023438 C 479.804688 74.023438 491.605469 60.121094 491.605469 39.621094 M 476.105469 39.621094 C 476.105469 50.722656 472.105469 63.722656 458.804688 63.722656 C 445.902344 63.722656 441.605469 50.421875 441.605469 39.621094 C 441.605469 28.820312 445.804688 15.523438 458.804688 15.523438 C 472.105469 15.523438 476.105469 28.523438 476.105469 39.621094 M 551.800781 54.121094 C 551.800781 45.121094 545.402344 39.722656 537.003906 38.320312 C 545.101562 36.523438 550.101562 31.222656 550.101562 22.722656 C 550.101562 9.921875 539.003906 6.222656 528.101562 6.222656 L 500.902344 6.222656 L 500.902344 72.921875 L 525.300781 72.921875 C 538.402344 72.921875 551.800781 69.921875 551.800781 54.121094 M 535.402344 24.523438 C 535.402344 32.320312 528.800781 34.421875 522.203125 34.421875 L 515.101562 34.421875 L 515.101562 15.320312 L 523.402344 15.320312 C 529.402344 15.320312 535.402344 17.523438 535.402344 24.523438 M 536.800781 53.523438 C 536.800781 61.820312 528.902344 63.820312 522.101562 63.820312 L 515.101562 63.820312 L 515.101562 42.921875 L 521.503906 42.921875 C 528.800781 42.921875 536.800781 44.523438 536.800781 53.523438 M 607.902344 72.921875 L 607.902344 62.722656 L 578.003906 62.722656 L 578.003906 44.023438 L 605.703125 44.023438 L 605.703125 33.921875 L 578.003906 33.921875 L 578.003906 16.421875 L 607.003906 16.421875 L 607.003906 6.222656 L 563.503906 6.222656 L 563.503906 72.921875 Z M 673 72.921875 L 664.398438 50.023438 C 662.300781 44.421875 659.800781 41.320312 653.800781 40.121094 C 662.398438 38.621094 669.199219 33.121094 669.199219 23.921875 C 669.199219 10.621094 657.898438 6.222656 646.5 6.222656 L 619.300781 6.222656 L 619.300781 72.921875 L 633.800781 72.921875 L 633.800781 45.320312 L 639.199219 45.320312 C 646.5 45.320312 648 47.320312 650.300781 53.820312 L 657.199219 72.921875 Z M 654.300781 25.421875 C 654.300781 33.320312 647.199219 35.421875 640.398438 35.421875 L 633.699219 35.421875 L 633.699219 16.121094 L 640.800781 16.121094 C 648 16.121094 654.300781 17.621094 654.300781 25.421875 M 730.601562 18.023438 L 730.601562 6.222656 L 673.898438 6.222656 L 673.898438 18.023438 L 694.800781 18.023438 L 694.800781 72.921875 L 709.699219 72.921875 L 709.699219 18.023438 Z M 792.890625 72.921875 L 767.390625 6.222656 L 747.992188 6.222656 L 722.589844 72.921875 L 737.191406 72.921875 L 743.191406 56.222656 L 771.589844 56.222656 L 777.492188 72.921875 Z M 768.492188 46.121094 L 746.191406 46.121094 L 757.492188 15.621094 Z M 768.492188 46.121094 "/>
</g>
</g>
</svg>
