<?xml version="1.0" encoding="UTF-8"?>
<svg xmlns="http://www.w3.org/2000/svg" xmlns:xlink="http://www.w3.org/1999/xlink" width="127pt" height="162pt" viewBox="0 0 127 162" version="1.1">
<defs>
<clipPath id="clip1">
  <path d="M 69 105 L 126.097656 105 L 126.097656 162 L 69 162 Z M 69 105 "/>
</clipPath>
<clipPath id="clip2">
  <path d="M 19 0.757812 L 29 0.757812 L 29 15 L 19 15 Z M 19 0.757812 "/>
</clipPath>
<clipPath id="clip3">
  <path d="M 99 0.757812 L 109 0.757812 L 109 15 L 99 15 Z M 99 0.757812 "/>
</clipPath>
</defs>
<g id="surface1">
<g clip-path="url(#clip1)" clip-rule="nonzero">
<path style=" stroke:none;fill-rule:nonzero;fill:rgb(13.729858%,12.159729%,12.548828%);fill-opacity:1;" d="M 71.976562 144.636719 C 70.5625 141.234375 69.839844 137.550781 69.839844 133.871094 C 69.839844 130.191406 70.5625 126.507812 71.976562 123.105469 C 73.386719 119.699219 75.476562 116.582031 78.078125 113.980469 C 80.683594 111.375 83.796875 109.285156 87.203125 107.878906 C 90.605469 106.464844 94.289062 105.738281 97.96875 105.742188 C 101.648438 105.738281 105.335938 106.464844 108.734375 107.878906 C 112.140625 109.285156 115.257812 111.375 117.859375 113.980469 C 120.464844 116.582031 122.554688 119.699219 123.960938 123.105469 C 125.375 126.507812 126.101562 130.191406 126.097656 133.871094 C 126.101562 137.550781 125.378906 141.234375 123.964844 144.636719 C 122.554688 148.039062 120.464844 151.15625 117.859375 153.761719 C 115.257812 156.363281 112.140625 158.453125 108.738281 159.863281 C 105.335938 161.277344 101.652344 162 97.96875 162 C 94.289062 162 90.605469 161.277344 87.203125 159.863281 C 83.800781 158.453125 80.683594 156.363281 78.078125 153.761719 C 75.476562 151.15625 73.386719 148.039062 71.976562 144.636719 M 87.820312 158.375 C 91.027344 159.707031 94.496094 160.390625 97.96875 160.390625 C 101.445312 160.390625 104.914062 159.707031 108.121094 158.375 C 111.328125 157.046875 114.265625 155.078125 116.722656 152.621094 C 119.175781 150.167969 121.148438 147.226562 122.476562 144.019531 C 123.808594 140.8125 124.488281 137.34375 124.488281 133.871094 C 124.488281 130.394531 123.808594 126.925781 122.476562 123.71875 C 121.148438 120.511719 119.175781 117.574219 116.722656 115.117188 C 114.265625 112.660156 111.324219 110.691406 108.117188 109.363281 C 104.914062 108.03125 101.441406 107.351562 97.96875 107.351562 C 94.496094 107.351562 91.027344 108.03125 87.820312 109.363281 C 84.613281 110.691406 81.671875 112.664062 79.21875 115.117188 C 76.761719 117.574219 74.792969 120.515625 73.464844 123.722656 C 72.128906 126.929688 71.449219 130.398438 71.449219 133.871094 C 71.449219 137.347656 72.128906 140.816406 73.464844 144.023438 C 74.792969 147.230469 76.761719 150.167969 79.21875 152.621094 C 81.671875 155.078125 84.613281 157.050781 87.820312 158.375 "/>
</g>
<path style=" stroke:none;fill-rule:nonzero;fill:rgb(13.729858%,12.159729%,12.548828%);fill-opacity:1;" d="M 97.96875 120.699219 C 101.421875 120.679688 104.855469 122.105469 107.28125 124.558594 C 109.734375 126.984375 111.160156 130.417969 111.140625 133.867188 C 111.160156 137.320312 109.734375 140.753906 107.28125 143.183594 C 104.855469 145.636719 101.421875 147.0625 97.96875 147.039062 C 94.519531 147.0625 91.085938 145.636719 88.65625 143.183594 C 86.207031 140.757812 84.78125 137.320312 84.800781 133.871094 C 84.78125 130.417969 86.207031 126.984375 88.65625 124.558594 C 91.085938 122.105469 94.515625 120.679688 97.96875 120.699219 M 89.796875 142.046875 C 91.933594 144.199219 94.9375 145.445312 97.96875 145.433594 C 101.003906 145.445312 104.007812 144.199219 106.144531 142.046875 C 108.300781 139.90625 109.546875 136.902344 109.53125 133.871094 C 109.546875 130.835938 108.300781 127.832031 106.144531 125.695312 C 104.007812 123.539062 101.003906 122.292969 97.96875 122.308594 C 94.933594 122.292969 91.929688 123.539062 89.796875 125.695312 C 87.640625 127.832031 86.394531 130.835938 86.410156 133.871094 C 86.394531 136.90625 87.640625 139.910156 89.796875 142.046875 "/>
<path style=" stroke:none;fill-rule:nonzero;fill:rgb(13.729858%,12.159729%,12.548828%);fill-opacity:1;" d="M 97.96875 129.582031 C 99.089844 129.578125 100.214844 130.039062 101.003906 130.839844 C 101.800781 131.628906 102.265625 132.75 102.257812 133.871094 C 102.265625 134.992188 101.800781 136.113281 101.003906 136.902344 C 100.214844 137.703125 99.089844 138.164062 97.96875 138.160156 C 96.847656 138.164062 95.726562 137.703125 94.9375 136.902344 C 94.140625 136.113281 93.675781 134.992188 93.679688 133.871094 C 93.675781 132.75 94.140625 131.628906 94.9375 130.839844 C 95.726562 130.039062 96.847656 129.578125 97.96875 129.582031 M 96.074219 135.765625 C 96.574219 136.265625 97.265625 136.554688 97.96875 136.550781 C 98.675781 136.554688 99.367188 136.265625 99.863281 135.765625 C 100.363281 135.269531 100.652344 134.578125 100.648438 133.871094 C 100.652344 133.164062 100.363281 132.472656 99.863281 131.976562 C 99.367188 131.476562 98.675781 131.1875 97.96875 131.191406 C 97.265625 131.1875 96.574219 131.476562 96.074219 131.976562 C 95.574219 132.472656 95.289062 133.164062 95.289062 133.871094 C 95.289062 134.578125 95.574219 135.269531 96.074219 135.765625 "/>
<path style=" stroke:none;fill-rule:nonzero;fill:rgb(13.729858%,12.159729%,12.548828%);fill-opacity:1;" d="M 113.191406 103.527344 C 112.507812 102.863281 111.597656 102.5 110.609375 102.527344 L 13.621094 102.527344 C 12.632812 102.5 11.726562 102.863281 11.042969 103.527344 C 10.363281 104.183594 9.96875 105.113281 9.972656 106.054688 L 8.363281 106.054688 C 8.355469 104.6875 8.933594 103.320312 9.917969 102.375 C 10.886719 101.410156 12.296875 100.878906 13.621094 100.917969 L 14.957031 100.917969 L 14.957031 89.003906 L 18.472656 89.003906 L 18.472656 88.996094 C 18.566406 88.777344 18.679688 88.570312 18.820312 88.378906 C 19.101562 88.003906 19.480469 87.699219 19.914062 87.515625 C 20.132812 87.421875 20.359375 87.351562 20.59375 87.324219 C 20.710938 87.300781 20.828125 87.296875 20.945312 87.292969 L 31.773438 87.292969 C 32.078125 85.226562 33.429688 83.359375 35.300781 82.433594 C 36.238281 81.960938 37.324219 81.722656 38.347656 81.742188 L 46.226562 81.742188 C 46.246094 81.757812 46.265625 81.785156 46.285156 81.804688 L 46.398438 81.9375 C 46.78125 82.382812 46.796875 82.394531 46.984375 82.578125 C 48.210938 83.796875 49.734375 84.699219 51.382812 85.195312 C 54.683594 86.214844 58.460938 85.496094 61.144531 83.320312 C 61.476562 83.042969 61.804688 82.761719 62.097656 82.453125 L 62.214844 82.335938 L 62.414062 82.109375 L 62.617188 81.886719 C 62.6875 81.816406 62.734375 81.710938 62.871094 81.742188 L 63.859375 81.742188 C 64.882812 81.722656 65.96875 81.960938 66.90625 82.433594 C 68.777344 83.359375 70.128906 85.226562 70.433594 87.292969 L 79.015625 87.292969 C 79.132812 87.296875 79.25 87.300781 79.367188 87.324219 C 79.601562 87.351562 79.832031 87.421875 80.046875 87.515625 C 80.484375 87.699219 80.863281 88.003906 81.144531 88.378906 C 81.285156 88.570312 81.398438 88.777344 81.488281 88.996094 L 81.492188 89.003906 L 86.410156 89.003906 L 86.410156 100.917969 L 110.609375 100.917969 C 111.933594 100.878906 113.347656 101.410156 114.3125 102.375 C 115.300781 103.320312 115.878906 104.6875 115.867188 106.054688 L 114.257812 106.054688 C 114.265625 105.113281 113.867188 104.183594 113.191406 103.527344 M 66.183594 83.875 C 65.464844 83.515625 64.695312 83.339844 63.859375 83.351562 L 63.460938 83.351562 L 63.410156 83.410156 L 63.25 83.574219 C 62.90625 83.933594 62.53125 84.261719 62.148438 84.574219 C 59.058594 87.085938 54.714844 87.910156 50.917969 86.734375 C 49.019531 86.164062 47.261719 85.121094 45.855469 83.726562 C 45.707031 83.59375 45.410156 83.261719 45.496094 83.351562 L 38.347656 83.351562 C 37.515625 83.339844 36.742188 83.515625 36.023438 83.875 C 34.6875 84.535156 33.707031 85.835938 33.410156 87.292969 L 68.796875 87.292969 C 68.5 85.835938 67.519531 84.535156 66.183594 83.875 M 84.800781 90.613281 L 80.167969 90.613281 C 80.117188 90.28125 80.074219 89.894531 79.992188 89.589844 C 79.953125 89.503906 79.910156 89.417969 79.851562 89.339844 C 79.738281 89.191406 79.585938 89.066406 79.410156 88.992188 C 79.324219 88.957031 79.230469 88.925781 79.136719 88.914062 C 79.09375 88.90625 79.042969 88.90625 78.996094 88.90625 L 78.757812 88.902344 L 21.203125 88.902344 L 20.96875 88.90625 C 20.917969 88.90625 20.871094 88.90625 20.824219 88.914062 C 20.730469 88.925781 20.640625 88.957031 20.554688 88.992188 C 20.378906 89.066406 20.226562 89.191406 20.109375 89.34375 C 20.054688 89.417969 20.007812 89.503906 19.972656 89.589844 C 19.886719 89.894531 19.84375 90.28125 19.796875 90.613281 L 16.570312 90.613281 L 16.570312 100.917969 L 84.800781 100.917969 L 84.800781 90.613281 "/>
<path style=" stroke:none;fill-rule:nonzero;fill:rgb(13.729858%,12.159729%,12.548828%);fill-opacity:1;" d="M 2.136719 123.105469 C 3.546875 119.699219 5.636719 116.582031 8.238281 113.980469 C 10.84375 111.375 13.960938 109.285156 17.363281 107.878906 C 20.765625 106.464844 24.449219 105.738281 28.128906 105.742188 C 31.808594 105.738281 35.496094 106.464844 38.894531 107.878906 C 42.300781 109.285156 45.417969 111.375 48.019531 113.980469 C 50.625 116.585938 52.714844 119.703125 54.125 123.105469 C 55.535156 126.507812 56.261719 130.191406 56.257812 133.871094 C 56.261719 137.554688 55.535156 141.234375 54.125 144.640625 C 52.714844 148.039062 50.625 151.15625 48.019531 153.761719 C 45.417969 156.367188 42.300781 158.457031 38.894531 159.863281 C 35.492188 161.277344 31.808594 162.003906 28.128906 162 C 24.449219 162.003906 20.765625 161.277344 17.363281 159.863281 C 13.960938 158.457031 10.84375 156.367188 8.238281 153.761719 C 5.636719 151.15625 3.546875 148.039062 2.136719 144.636719 C 0.722656 141.234375 0 137.550781 0 133.871094 C 0 130.191406 0.722656 126.507812 2.136719 123.105469 M 3.625 144.023438 C 4.949219 147.230469 6.921875 150.167969 9.378906 152.625 C 11.832031 155.078125 14.773438 157.050781 17.980469 158.375 C 21.183594 159.710938 24.65625 160.394531 28.128906 160.390625 C 31.601562 160.394531 35.074219 159.710938 38.277344 158.378906 C 41.488281 157.050781 44.425781 155.078125 46.882812 152.625 C 49.335938 150.167969 51.308594 147.230469 52.636719 144.023438 C 53.96875 140.816406 54.652344 137.347656 54.648438 133.871094 C 54.652344 130.398438 53.96875 126.929688 52.636719 123.722656 C 51.308594 120.515625 49.339844 117.574219 46.882812 115.117188 C 44.425781 112.664062 41.488281 110.695312 38.28125 109.363281 C 35.074219 108.03125 31.605469 107.351562 28.128906 107.351562 C 24.65625 107.351562 21.1875 108.03125 17.980469 109.363281 C 14.773438 110.691406 11.832031 112.664062 9.378906 115.117188 C 6.921875 117.574219 4.949219 120.515625 3.625 123.722656 C 2.289062 126.925781 1.609375 130.398438 1.609375 133.871094 C 1.609375 137.347656 2.289062 140.816406 3.625 144.023438 "/>
<path style=" stroke:none;fill-rule:nonzero;fill:rgb(13.729858%,12.159729%,12.548828%);fill-opacity:1;" d="M 28.128906 120.703125 C 31.582031 120.683594 35.015625 122.105469 37.445312 124.558594 C 39.894531 126.988281 41.320312 130.421875 41.300781 133.871094 C 41.320312 137.324219 39.894531 140.757812 37.441406 143.183594 C 35.011719 145.636719 31.582031 147.0625 28.128906 147.042969 C 24.675781 147.0625 21.246094 145.636719 18.816406 143.183594 C 16.363281 140.757812 14.941406 137.324219 14.957031 133.871094 C 14.941406 130.417969 16.363281 126.984375 18.816406 124.558594 C 21.246094 122.105469 24.679688 120.683594 28.128906 120.703125 M 19.953125 142.046875 C 22.089844 144.203125 25.09375 145.449219 28.128906 145.433594 C 31.164062 145.449219 34.167969 144.203125 36.304688 142.046875 C 38.457031 139.910156 39.707031 136.90625 39.691406 133.871094 C 39.707031 130.835938 38.460938 127.835938 36.304688 125.699219 C 34.167969 123.542969 31.164062 122.292969 28.128906 122.308594 C 25.09375 122.292969 22.089844 123.542969 19.957031 125.695312 C 17.800781 127.832031 16.550781 130.835938 16.570312 133.871094 C 16.550781 136.90625 17.800781 139.910156 19.953125 142.046875 "/>
<path style=" stroke:none;fill-rule:nonzero;fill:rgb(13.729858%,12.159729%,12.548828%);fill-opacity:1;" d="M 28.128906 129.582031 C 29.25 129.578125 30.375 130.039062 31.164062 130.839844 C 31.960938 131.628906 32.425781 132.75 32.417969 133.871094 C 32.425781 134.992188 31.960938 136.113281 31.164062 136.902344 C 30.375 137.703125 29.25 138.164062 28.128906 138.160156 C 27.007812 138.164062 25.886719 137.703125 25.097656 136.902344 C 24.300781 136.113281 23.835938 134.992188 23.839844 133.871094 C 23.835938 132.75 24.300781 131.628906 25.097656 130.839844 C 25.886719 130.039062 27.007812 129.578125 28.128906 129.582031 M 26.234375 135.765625 C 26.734375 136.265625 27.425781 136.554688 28.128906 136.550781 C 28.835938 136.554688 29.527344 136.265625 30.023438 135.765625 C 30.523438 135.269531 30.808594 134.578125 30.808594 133.871094 C 30.808594 133.164062 30.523438 132.472656 30.023438 131.976562 C 29.527344 131.476562 28.835938 131.1875 28.128906 131.191406 C 27.425781 131.1875 26.734375 131.476562 26.234375 131.976562 C 25.734375 132.472656 25.449219 133.164062 25.449219 133.871094 C 25.449219 134.578125 25.734375 135.269531 26.234375 135.765625 "/>
<path style=" stroke:none;fill-rule:nonzero;fill:rgb(13.729858%,12.159729%,12.548828%);fill-opacity:1;" d="M 33.6875 97.097656 L 21.46875 97.097656 C 21.105469 97.105469 20.59375 97.046875 20.191406 96.890625 C 19.765625 96.734375 19.378906 96.492188 19.054688 96.183594 C 18.402344 95.574219 18.011719 94.679688 18.019531 93.78125 L 19.628906 93.78125 C 19.621094 94.726562 20.441406 95.550781 21.46875 95.484375 L 78.496094 95.484375 C 79.519531 95.550781 80.34375 94.726562 80.332031 93.78125 L 81.945312 93.78125 C 81.949219 94.679688 81.5625 95.574219 80.90625 96.183594 C 80.582031 96.492188 80.195312 96.734375 79.773438 96.890625 C 79.371094 97.046875 78.859375 97.105469 78.496094 97.097656 L 33.6875 97.097656 "/>
<path style=" stroke:none;fill-rule:nonzero;fill:rgb(13.729858%,12.159729%,12.548828%);fill-opacity:1;" d="M 56.8125 77.871094 C 56.042969 78.625 54.957031 79.054688 53.875 79.03125 C 52.796875 79.019531 51.722656 78.550781 50.976562 77.773438 C 50.222656 77 49.792969 75.914062 49.816406 74.832031 C 49.828125 73.753906 50.292969 72.679688 51.074219 71.933594 L 51.632812 72.511719 L 51.074219 71.933594 C 51.847656 71.179688 52.933594 70.75 54.011719 70.773438 C 55.09375 70.785156 56.164062 71.253906 56.914062 72.03125 C 57.667969 72.804688 58.097656 73.890625 58.074219 74.972656 C 58.058594 76.050781 57.59375 77.121094 56.8125 77.871094 M 55.753906 73.152344 C 55.296875 72.671875 54.652344 72.394531 53.988281 72.382812 C 53.324219 72.371094 52.667969 72.628906 52.191406 73.089844 C 51.714844 73.550781 51.433594 74.195312 51.425781 74.859375 C 51.414062 75.523438 51.671875 76.175781 52.132812 76.652344 C 52.59375 77.132812 53.238281 77.410156 53.902344 77.421875 C 54.566406 77.433594 55.21875 77.175781 55.695312 76.714844 C 56.171875 76.253906 56.453125 75.609375 56.464844 74.945312 C 56.476562 74.28125 56.21875 73.628906 55.753906 73.152344 "/>
<path style=" stroke:none;fill-rule:nonzero;fill:rgb(13.729858%,12.159729%,12.548828%);fill-opacity:1;" d="M 58.207031 71.4375 C 57.59375 70.835938 57.609375 69.746094 58.246094 69.164062 C 58.847656 68.550781 59.9375 68.566406 60.515625 69.203125 C 61.132812 69.804688 61.113281 70.894531 60.480469 71.472656 C 59.878906 72.089844 58.789062 72.070312 58.207031 71.4375 M 59.9375 69.761719 C 59.648438 69.445312 59.105469 69.433594 58.804688 69.742188 L 58.523438 69.453125 L 58.804688 69.742188 C 58.488281 70.03125 58.480469 70.578125 58.785156 70.878906 C 59.074219 71.195312 59.621094 71.203125 59.921875 70.898438 C 60.234375 70.605469 60.246094 70.0625 59.9375 69.761719 "/>
<path style=" stroke:none;fill-rule:nonzero;fill:rgb(13.729858%,12.159729%,12.548828%);fill-opacity:1;" d="M 48.335938 71.410156 C 47.722656 70.808594 47.738281 69.722656 48.371094 69.140625 C 48.976562 68.527344 50.0625 68.542969 50.644531 69.175781 C 51.257812 69.78125 51.242188 70.867188 50.609375 71.449219 C 50.007812 72.0625 48.914062 72.046875 48.335938 71.410156 M 50.066406 69.734375 C 49.777344 69.421875 49.230469 69.410156 48.933594 69.71875 C 48.617188 70.007812 48.605469 70.550781 48.914062 70.851562 C 49.203125 71.171875 49.746094 71.179688 50.046875 70.871094 C 50.363281 70.582031 50.371094 70.035156 50.066406 69.734375 "/>
<path style=" stroke:none;fill-rule:nonzero;fill:rgb(13.729858%,12.159729%,12.548828%);fill-opacity:1;" d="M 59.84375 77.964844 C 60.457031 78.566406 60.441406 79.65625 59.808594 80.238281 C 59.203125 80.851562 58.117188 80.835938 57.535156 80.203125 C 56.921875 79.597656 56.9375 78.507812 57.574219 77.925781 C 58.175781 77.3125 59.265625 77.332031 59.84375 77.964844 M 58.113281 79.640625 C 58.402344 79.957031 58.949219 79.96875 59.246094 79.660156 C 59.566406 79.371094 59.574219 78.824219 59.265625 78.527344 C 58.976562 78.210938 58.433594 78.199219 58.132812 78.507812 C 57.816406 78.796875 57.808594 79.339844 58.113281 79.640625 "/>
<path style=" stroke:none;fill-rule:nonzero;fill:rgb(13.729858%,12.159729%,12.548828%);fill-opacity:1;" d="M 94.488281 38.609375 C 93.71875 38.613281 92.949219 38.296875 92.410156 37.753906 C 91.863281 37.210938 91.542969 36.441406 91.546875 35.671875 C 91.542969 34.90625 91.863281 34.136719 92.40625 33.597656 C 92.945312 33.046875 93.714844 32.730469 94.484375 32.734375 C 95.253906 32.730469 96.023438 33.046875 96.5625 33.59375 C 97.109375 34.132812 97.425781 34.902344 97.425781 35.671875 C 97.429688 36.4375 97.109375 37.210938 96.5625 37.75 C 96.023438 38.296875 95.253906 38.613281 94.488281 38.609375 M 94.484375 34.34375 C 93.777344 34.324219 93.136719 34.960938 93.15625 35.671875 C 93.136719 36.382812 93.777344 37.019531 94.488281 37.003906 C 95.195312 37.019531 95.835938 36.378906 95.8125 35.671875 C 95.832031 34.960938 95.195312 34.324219 94.484375 34.34375 "/>
<path style=" stroke:none;fill-rule:nonzero;fill:rgb(13.729858%,12.159729%,12.548828%);fill-opacity:1;" d="M 72.515625 152.335938 L 53.796875 152.335938 L 53.796875 150.644531 L 72.515625 150.644531 L 72.515625 152.335938 "/>
<path style=" stroke:none;fill-rule:nonzero;fill:rgb(13.729858%,12.159729%,12.548828%);fill-opacity:1;" d="M 69.277344 148.6875 L 57.003906 148.6875 L 57.003906 146.992188 L 69.277344 146.992188 L 69.277344 148.6875 "/>
<path style=" stroke:none;fill-rule:nonzero;fill:rgb(13.729858%,12.159729%,12.548828%);fill-opacity:1;" d="M 63.421875 11.113281 C 65.171875 10.769531 67.039062 11.050781 68.605469 11.910156 C 68.644531 11.929688 68.679688 11.960938 68.71875 11.980469 C 69.011719 11.527344 69.332031 11.09375 69.679688 10.679688 C 69.578125 10.617188 69.480469 10.550781 69.375 10.496094 C 67.480469 9.460938 65.226562 9.121094 63.113281 9.535156 C 61.960938 9.757812 60.863281 10.210938 59.878906 10.839844 C 60.21875 11.257812 60.523438 11.699219 60.808594 12.15625 C 61.609375 11.652344 62.492188 11.292969 63.421875 11.113281 "/>
<path style=" stroke:none;fill-rule:nonzero;fill:rgb(13.729858%,12.159729%,12.548828%);fill-opacity:1;" d="M 69.0625 26.453125 L 60.355469 26.453125 C 59.945312 27.027344 59.5 27.570312 59.003906 28.0625 L 70.417969 28.0625 C 69.921875 27.570312 69.472656 27.027344 69.0625 26.453125 "/>
<path style=" stroke:none;fill-rule:nonzero;fill:rgb(13.729858%,12.159729%,12.548828%);fill-opacity:1;" d="M 28.8125 22.941406 L 36.910156 22.941406 C 36.511719 21.648438 36.3125 20.316406 36.3125 18.96875 C 36.3125 17.617188 36.511719 16.285156 36.910156 14.992188 L 28.8125 14.992188 Z M 39.074219 24.441406 L 27.3125 24.441406 L 27.3125 13.492188 L 39.074219 13.492188 L 38.667969 14.519531 C 38.097656 15.953125 37.8125 17.449219 37.8125 18.96875 C 37.8125 20.484375 38.097656 21.980469 38.667969 23.414062 L 39.074219 24.441406 "/>
<path style=" stroke:none;fill-rule:nonzero;fill:rgb(13.729858%,12.159729%,12.548828%);fill-opacity:1;" d="M 92.507812 22.941406 L 99.691406 22.941406 L 99.691406 14.992188 L 92.507812 14.992188 C 92.90625 16.285156 93.109375 17.617188 93.109375 18.96875 C 93.109375 20.316406 92.90625 21.648438 92.507812 22.941406 Z M 101.191406 24.441406 L 90.347656 24.441406 L 90.753906 23.414062 C 91.320312 21.980469 91.609375 20.484375 91.609375 18.96875 C 91.609375 17.449219 91.320312 15.953125 90.753906 14.519531 L 90.347656 13.492188 L 101.191406 13.492188 L 101.191406 24.441406 "/>
<g clip-path="url(#clip2)" clip-rule="nonzero">
<path style=" stroke:none;fill-rule:nonzero;fill:rgb(13.729858%,12.159729%,12.548828%);fill-opacity:1;" d="M 20.9375 13.277344 L 27.042969 13.277344 L 27.042969 2.257812 L 23.429688 2.257812 Z M 28.542969 14.777344 L 19.058594 14.777344 L 22.234375 0.757812 L 28.542969 0.757812 L 28.542969 14.777344 "/>
</g>
<g clip-path="url(#clip3)" clip-rule="nonzero">
<path style=" stroke:none;fill-rule:nonzero;fill:rgb(13.729858%,12.159729%,12.548828%);fill-opacity:1;" d="M 100.792969 13.375 L 106.902344 13.375 L 104.40625 2.355469 L 100.792969 2.355469 Z M 108.777344 14.875 L 99.292969 14.875 L 99.292969 0.855469 L 105.605469 0.855469 L 108.777344 14.875 "/>
</g>
<path style=" stroke:none;fill-rule:nonzero;fill:rgb(13.729858%,12.159729%,12.548828%);fill-opacity:1;" d="M 49.917969 6.859375 C 43.242188 6.859375 37.8125 12.292969 37.8125 18.96875 C 37.8125 25.644531 43.242188 31.074219 49.917969 31.074219 C 56.59375 31.074219 62.027344 25.644531 62.027344 18.96875 C 62.027344 12.292969 56.59375 6.859375 49.917969 6.859375 Z M 49.917969 32.574219 C 42.417969 32.574219 36.3125 26.472656 36.3125 18.96875 C 36.3125 11.464844 42.417969 5.359375 49.917969 5.359375 C 57.421875 5.359375 63.527344 11.464844 63.527344 18.96875 C 63.527344 26.472656 57.421875 32.574219 49.917969 32.574219 "/>
<path style=" stroke:none;fill-rule:nonzero;fill:rgb(13.729858%,12.159729%,12.548828%);fill-opacity:1;" d="M 79.5 6.859375 C 72.824219 6.859375 67.394531 12.292969 67.394531 18.96875 C 67.394531 25.644531 72.824219 31.074219 79.5 31.074219 C 86.175781 31.074219 91.609375 25.644531 91.609375 18.96875 C 91.609375 12.292969 86.175781 6.859375 79.5 6.859375 Z M 79.5 32.574219 C 72 32.574219 65.894531 26.472656 65.894531 18.96875 C 65.894531 11.464844 72 5.359375 79.5 5.359375 C 87.003906 5.359375 93.109375 11.464844 93.109375 18.96875 C 93.109375 26.472656 87.003906 32.574219 79.5 32.574219 "/>
<path style=" stroke:none;fill-rule:nonzero;fill:rgb(13.729858%,12.159729%,12.548828%);fill-opacity:1;" d="M 49.917969 23.808594 C 51.339844 23.816406 52.75 23.230469 53.75 22.222656 C 54.757812 21.226562 55.34375 19.8125 55.335938 18.394531 C 55.34375 16.976562 54.757812 15.558594 53.75 14.5625 C 52.75 13.554688 51.339844 12.96875 49.917969 12.976562 C 48.5 12.96875 47.085938 13.554688 46.089844 14.5625 C 45.082031 15.558594 44.496094 16.972656 44.503906 18.390625 C 44.492188 19.8125 45.082031 21.226562 46.089844 22.222656 C 47.085938 23.230469 48.5 23.816406 49.917969 23.808594 M 47.148438 15.621094 C 47.875 14.890625 48.890625 14.46875 49.917969 14.476562 C 50.949219 14.46875 51.964844 14.890625 52.6875 15.621094 C 53.417969 16.347656 53.839844 17.363281 53.835938 18.394531 C 53.839844 19.421875 53.417969 20.4375 52.6875 21.160156 C 51.964844 21.894531 50.949219 22.3125 49.917969 22.308594 C 48.886719 22.3125 47.875 21.894531 47.148438 21.160156 C 46.417969 20.4375 45.996094 19.421875 46 18.390625 C 45.996094 17.363281 46.417969 16.347656 47.148438 15.621094 "/>
<path style=" stroke:none;fill-rule:nonzero;fill:rgb(13.729858%,12.159729%,12.548828%);fill-opacity:1;" d="M 49.917969 20.871094 C 51.3125 20.871094 52.441406 19.742188 52.441406 18.347656 C 52.441406 17.183594 51.65625 16.207031 50.585938 15.914062 L 50.585938 18.703125 L 49.25 18.703125 L 49.25 15.914062 C 48.179688 16.207031 47.394531 17.183594 47.394531 18.347656 C 47.394531 19.742188 48.527344 20.871094 49.917969 20.871094 "/>
<path style=" stroke:none;fill-rule:nonzero;fill:rgb(13.729858%,12.159729%,12.548828%);fill-opacity:1;" d="M 79.5 23.753906 C 80.921875 23.761719 82.335938 23.175781 83.332031 22.167969 C 84.339844 21.167969 84.925781 19.753906 84.917969 18.335938 C 84.925781 16.917969 84.339844 15.503906 83.332031 14.507812 C 82.335938 13.496094 80.921875 12.910156 79.5 12.921875 C 78.082031 12.910156 76.667969 13.496094 75.671875 14.507812 C 74.664062 15.503906 74.078125 16.917969 74.085938 18.335938 C 74.078125 19.753906 74.664062 21.167969 75.671875 22.164062 C 76.667969 23.175781 78.082031 23.761719 79.5 23.753906 M 76.730469 15.566406 C 77.457031 14.835938 78.472656 14.414062 79.5 14.417969 C 80.53125 14.414062 81.546875 14.835938 82.269531 15.566406 C 83.003906 16.292969 83.421875 17.308594 83.417969 18.335938 C 83.421875 19.367188 83.003906 20.382812 82.269531 21.105469 C 81.546875 21.835938 80.53125 22.257812 79.5 22.253906 C 78.472656 22.257812 77.457031 21.835938 76.730469 21.105469 C 76 20.378906 75.578125 19.367188 75.585938 18.335938 C 75.578125 17.308594 76 16.292969 76.730469 15.566406 "/>
<path style=" stroke:none;fill-rule:nonzero;fill:rgb(13.729858%,12.159729%,12.548828%);fill-opacity:1;" d="M 79.5 20.816406 C 80.894531 20.816406 82.027344 19.683594 82.027344 18.292969 C 82.027344 17.128906 81.238281 16.148438 80.167969 15.859375 L 80.167969 18.648438 L 78.835938 18.648438 L 78.835938 15.859375 C 77.765625 16.148438 76.976562 17.128906 76.976562 18.292969 C 76.976562 19.683594 78.109375 20.816406 79.5 20.816406 "/>
<path style=" stroke:none;fill-rule:nonzero;fill:rgb(13.729858%,12.159729%,12.548828%);fill-opacity:1;" d="M 98.445312 37.621094 C 98.269531 37.925781 98.050781 38.203125 97.804688 38.453125 L 96.917969 39.316406 L 86.101562 49.769531 L 71.683594 63.710938 L 64.472656 70.683594 L 63.570312 71.554688 L 63.207031 71.910156 L 62.980469 72.128906 C 62.949219 72.164062 62.890625 72.195312 62.878906 72.238281 L 62.90625 72.394531 L 63.011719 73.011719 L 63.054688 73.308594 C 63.144531 74.066406 63.140625 74.839844 63.027344 75.597656 C 62.808594 77.109375 62.183594 78.5625 61.21875 79.746094 C 60.257812 80.9375 58.976562 81.863281 57.542969 82.398438 C 56.113281 82.941406 54.535156 83.078125 53.03125 82.816406 C 50 82.320312 47.355469 80.050781 46.382812 77.140625 C 45.363281 74.246094 46.050781 70.832031 48.136719 68.578125 C 50.171875 66.269531 53.496094 65.25 56.480469 65.972656 L 57.226562 65.769531 L 86.0625 37.882812 L 89.667969 34.398438 L 91.46875 32.65625 C 91.789062 32.34375 92.015625 32.121094 92.316406 31.917969 C 92.605469 31.722656 92.917969 31.554688 93.246094 31.433594 C 94.5625 30.929688 96.128906 31.136719 97.261719 31.972656 C 98.414062 32.792969 99.101562 34.203125 99.035156 35.617188 C 99.007812 36.320312 98.804688 37.015625 98.445312 37.621094 Z M 98.207031 30.667969 C 96.640625 29.515625 94.496094 29.230469 92.679688 29.925781 C 92.578125 29.960938 92.480469 30.015625 92.378906 30.058594 L 89.222656 27.367188 C 88.871094 27.773438 88.492188 28.15625 88.089844 28.515625 L 90.945312 30.953125 C 90.726562 31.144531 90.519531 31.335938 90.351562 31.5 L 88.550781 33.242188 L 86.503906 35.21875 L 82.191406 31.539062 C 81.488281 31.6875 80.761719 31.769531 80.019531 31.800781 L 85.339844 36.34375 L 84.945312 36.726562 L 56.394531 64.332031 C 54.761719 64.027344 53.0625 64.101562 51.472656 64.597656 C 49.738281 65.132812 48.152344 66.148438 46.945312 67.496094 C 45.71875 68.835938 44.878906 70.519531 44.515625 72.296875 C 44.148438 74.074219 44.273438 75.945312 44.863281 77.664062 C 46.015625 81.121094 49.152344 83.808594 52.753906 84.402344 C 54.539062 84.714844 56.410156 84.550781 58.109375 83.910156 C 59.8125 83.269531 61.332031 82.167969 62.46875 80.757812 C 63.613281 79.347656 64.363281 77.621094 64.621094 75.828125 C 64.753906 74.929688 64.761719 74.015625 64.652344 73.113281 L 64.609375 72.789062 L 64.691406 72.710938 L 65.59375 71.839844 L 72.804688 64.867188 L 87.222656 50.929688 L 94.433594 43.957031 L 98.039062 40.472656 L 98.949219 39.585938 C 99.289062 39.242188 99.589844 38.855469 99.832031 38.4375 C 100.324219 37.605469 100.605469 36.644531 100.640625 35.679688 C 100.738281 33.742188 99.785156 31.789062 98.207031 30.667969 "/>
</g>
</svg>
