<?xml version="1.0" encoding="UTF-8"?>
<svg xmlns="http://www.w3.org/2000/svg" xmlns:xlink="http://www.w3.org/1999/xlink" width="127pt" height="162pt" viewBox="0 0 127 162" version="1.1">
<defs>
<clipPath id="clip1">
  <path d="M 69 105 L 126.097656 105 L 126.097656 162 L 69 162 Z M 69 105 "/>
</clipPath>
<clipPath id="clip2">
  <path d="M 19 0.757812 L 29 0.757812 L 29 15 L 19 15 Z M 19 0.757812 "/>
</clipPath>
<clipPath id="clip3">
  <path d="M 99 0.757812 L 109 0.757812 L 109 15 L 99 15 Z M 99 0.757812 "/>
</clipPath>
</defs>
<g id="surface1">
<g clip-path="url(#clip1)" clip-rule="nonzero">
<path style=" stroke:none;fill-rule:nonzero;fill:rgb(13.729858%,12.159729%,12.548828%);fill-opacity:1;" d="M 97.976562 105.742188 C 97.972656 105.742188 97.972656 105.742188 97.96875 105.742188 C 97.96875 105.742188 97.964844 105.742188 97.964844 105.742188 C 94.285156 105.742188 90.601562 106.464844 87.203125 107.878906 C 83.796875 109.285156 80.679688 111.375 78.078125 113.980469 C 75.472656 116.582031 73.386719 119.699219 71.976562 123.105469 C 70.5625 126.507812 69.839844 130.191406 69.839844 133.871094 C 69.839844 137.550781 70.5625 141.234375 71.976562 144.636719 C 73.386719 148.039062 75.476562 151.15625 78.078125 153.761719 C 80.683594 156.363281 83.796875 158.453125 87.203125 159.863281 C 90.601562 161.277344 94.285156 162 97.964844 162 C 97.964844 162 97.96875 162 97.96875 162 C 97.972656 162 97.972656 162 97.976562 162 C 101.65625 162 105.335938 161.273438 108.734375 159.863281 C 112.140625 158.453125 115.257812 156.363281 117.859375 153.761719 C 120.464844 151.15625 122.554688 148.039062 123.964844 144.636719 C 125.378906 141.234375 126.101562 137.550781 126.097656 133.871094 C 126.101562 130.191406 125.375 126.507812 123.960938 123.105469 C 122.554688 119.699219 120.464844 116.582031 117.859375 113.980469 C 115.257812 111.375 112.140625 109.285156 108.734375 107.878906 C 105.335938 106.464844 101.652344 105.742188 97.976562 105.742188 M 97.96875 107.351562 C 97.972656 107.351562 97.972656 107.351562 97.976562 107.351562 C 101.445312 107.351562 104.914062 108.03125 108.117188 109.363281 C 111.324219 110.691406 114.265625 112.660156 116.722656 115.117188 C 119.175781 117.574219 121.148438 120.511719 122.476562 123.71875 C 123.808594 126.925781 124.488281 130.394531 124.488281 133.871094 C 124.488281 137.34375 123.808594 140.8125 122.476562 144.019531 C 121.148438 147.226562 119.175781 150.167969 116.722656 152.621094 C 114.265625 155.078125 111.328125 157.046875 108.121094 158.375 C 104.914062 159.707031 101.449219 160.390625 97.976562 160.390625 C 97.972656 160.390625 97.972656 160.390625 97.96875 160.390625 C 97.96875 160.390625 97.964844 160.390625 97.964844 160.390625 C 94.492188 160.390625 91.023438 159.707031 87.820312 158.375 C 87.230469 158.132812 86.648438 157.867188 86.078125 157.578125 C 83.546875 156.308594 81.21875 154.625 79.21875 152.621094 C 76.761719 150.167969 74.789062 147.230469 73.464844 144.023438 C 73.132812 143.230469 72.84375 142.417969 72.59375 141.597656 C 71.835938 139.097656 71.449219 136.484375 71.449219 133.871094 C 71.449219 130.398438 72.128906 126.929688 73.464844 123.722656 C 74.789062 120.515625 76.761719 117.574219 79.21875 115.117188 C 81.671875 112.664062 84.609375 110.691406 87.820312 109.363281 C 91.023438 108.03125 94.488281 107.351562 97.964844 107.351562 C 97.964844 107.351562 97.96875 107.351562 97.96875 107.351562 "/>
</g>
<path style=" stroke:none;fill-rule:nonzero;fill:rgb(13.729858%,12.159729%,12.548828%);fill-opacity:1;" d="M 98.035156 120.699219 C 98.015625 120.699219 97.992188 120.699219 97.96875 120.699219 C 97.945312 120.699219 97.925781 120.699219 97.902344 120.699219 C 94.472656 120.699219 91.070312 122.121094 88.65625 124.558594 C 86.207031 126.984375 84.78125 130.417969 84.796875 133.871094 C 84.78125 137.320312 86.207031 140.757812 88.65625 143.183594 C 91.070312 145.617188 94.46875 147.039062 97.898438 147.039062 C 97.921875 147.039062 97.945312 147.039062 97.96875 147.039062 C 97.996094 147.039062 98.019531 147.039062 98.042969 147.039062 C 101.472656 147.039062 104.871094 145.617188 107.28125 143.183594 C 109.734375 140.753906 111.160156 137.320312 111.140625 133.867188 C 111.160156 130.417969 109.734375 126.984375 107.28125 124.558594 C 104.867188 122.121094 101.464844 120.699219 98.035156 120.699219 M 97.96875 122.308594 C 97.984375 122.308594 98.003906 122.308594 98.023438 122.308594 C 101.039062 122.308594 104.019531 123.554688 106.144531 125.695312 C 108.300781 127.832031 109.546875 130.835938 109.53125 133.871094 C 109.546875 136.902344 108.300781 139.90625 106.144531 142.046875 C 104.019531 144.1875 101.039062 145.433594 98.023438 145.433594 C 98.007812 145.433594 97.988281 145.433594 97.96875 145.433594 C 97.953125 145.433594 97.933594 145.433594 97.917969 145.433594 C 94.902344 145.433594 91.917969 144.1875 89.792969 142.046875 C 87.640625 139.910156 86.394531 136.90625 86.410156 133.871094 C 86.394531 130.835938 87.640625 127.832031 89.792969 125.695312 C 91.917969 123.554688 94.902344 122.308594 97.914062 122.308594 C 97.933594 122.308594 97.953125 122.308594 97.96875 122.308594 "/>
<path style=" stroke:none;fill-rule:nonzero;fill:rgb(13.729858%,12.159729%,12.548828%);fill-opacity:1;" d="M 97.992188 129.582031 C 97.984375 129.582031 97.976562 129.582031 97.96875 129.582031 C 97.964844 129.582031 97.957031 129.582031 97.949219 129.582031 C 96.835938 129.582031 95.71875 130.046875 94.9375 130.839844 C 94.140625 131.628906 93.675781 132.75 93.679688 133.871094 C 93.675781 134.992188 94.140625 136.113281 94.9375 136.902344 C 95.71875 137.695312 96.835938 138.160156 97.949219 138.160156 C 97.957031 138.160156 97.964844 138.160156 97.96875 138.160156 C 97.976562 138.160156 97.984375 138.160156 97.992188 138.160156 C 99.105469 138.160156 100.21875 137.695312 101.003906 136.902344 C 101.800781 136.113281 102.265625 134.992188 102.257812 133.871094 C 102.265625 132.75 101.800781 131.628906 101.003906 130.839844 C 100.21875 130.042969 99.105469 129.582031 97.992188 129.582031 M 97.96875 131.191406 C 97.972656 131.191406 97.972656 131.191406 97.976562 131.191406 C 98.679688 131.191406 99.367188 131.476562 99.863281 131.976562 C 100.363281 132.472656 100.652344 133.164062 100.648438 133.871094 C 100.652344 134.578125 100.363281 135.269531 99.863281 135.765625 C 99.367188 136.265625 98.679688 136.550781 97.976562 136.550781 C 97.972656 136.550781 97.972656 136.550781 97.96875 136.550781 C 97.96875 136.550781 97.964844 136.550781 97.964844 136.550781 C 97.261719 136.550781 96.570312 136.265625 96.074219 135.765625 C 95.574219 135.269531 95.285156 134.578125 95.289062 133.871094 C 95.285156 133.164062 95.574219 132.472656 96.074219 131.976562 C 96.570312 131.476562 97.261719 131.191406 97.964844 131.191406 C 97.964844 131.191406 97.96875 131.191406 97.96875 131.191406 "/>
<path style=" stroke:none;fill-rule:nonzero;fill:rgb(13.729858%,12.159729%,12.548828%);fill-opacity:1;" d="M 62.824219 81.738281 C 62.722656 81.738281 62.679688 81.828125 62.617188 81.886719 L 62.414062 82.109375 L 62.214844 82.335938 L 62.097656 82.453125 C 61.804688 82.761719 61.472656 83.042969 61.144531 83.320312 C 59.265625 84.84375 56.855469 85.652344 54.449219 85.652344 C 53.410156 85.652344 52.375 85.503906 51.382812 85.195312 C 49.730469 84.699219 48.210938 83.796875 46.984375 82.578125 C 46.796875 82.394531 46.777344 82.382812 46.398438 81.9375 L 46.285156 81.804688 L 46.226562 81.742188 L 38.347656 81.742188 C 38.304688 81.742188 38.265625 81.742188 38.222656 81.742188 C 37.238281 81.742188 36.199219 81.976562 35.300781 82.433594 C 33.429688 83.359375 32.078125 85.226562 31.773438 87.292969 L 20.945312 87.292969 C 20.828125 87.296875 20.710938 87.300781 20.59375 87.324219 C 20.359375 87.351562 20.132812 87.421875 19.914062 87.515625 C 19.480469 87.699219 19.101562 88.003906 18.820312 88.378906 C 18.679688 88.570312 18.566406 88.777344 18.472656 88.996094 L 18.472656 89.003906 L 14.957031 89.003906 L 14.957031 100.917969 L 13.621094 100.917969 C 13.574219 100.914062 13.53125 100.914062 13.484375 100.914062 C 12.203125 100.914062 10.851562 101.445312 9.917969 102.375 C 8.933594 103.320312 8.355469 104.6875 8.363281 106.054688 L 9.972656 106.054688 C 9.96875 105.113281 10.359375 104.183594 11.042969 103.527344 C 11.703125 102.886719 12.570312 102.527344 13.519531 102.527344 C 13.554688 102.527344 13.585938 102.527344 13.621094 102.527344 L 110.609375 102.527344 C 110.640625 102.527344 110.675781 102.527344 110.710938 102.527344 C 111.660156 102.527344 112.527344 102.886719 113.1875 103.527344 C 113.867188 104.183594 114.261719 105.113281 114.257812 106.054688 L 115.867188 106.054688 C 115.878906 104.6875 115.300781 103.320312 114.3125 102.375 C 113.378906 101.445312 112.03125 100.914062 110.746094 100.914062 C 110.699219 100.914062 110.652344 100.914062 110.609375 100.917969 L 86.410156 100.917969 L 86.410156 89.003906 L 81.488281 89.003906 L 81.488281 88.996094 C 81.398438 88.777344 81.285156 88.570312 81.144531 88.378906 C 80.859375 88.003906 80.480469 87.699219 80.046875 87.515625 C 79.832031 87.421875 79.601562 87.351562 79.367188 87.324219 C 79.25 87.300781 79.132812 87.296875 79.015625 87.292969 L 70.433594 87.292969 C 70.128906 85.226562 68.777344 83.359375 66.90625 82.433594 C 66.007812 81.976562 64.96875 81.742188 63.984375 81.742188 C 63.941406 81.742188 63.902344 81.742188 63.859375 81.742188 L 62.871094 81.742188 C 62.851562 81.738281 62.839844 81.738281 62.824219 81.738281 M 54.445312 87.261719 C 57.214844 87.261719 59.988281 86.332031 62.148438 84.574219 C 62.53125 84.261719 62.90625 83.933594 63.25 83.574219 L 63.410156 83.410156 L 63.460938 83.351562 L 63.859375 83.351562 C 63.890625 83.351562 63.921875 83.351562 63.953125 83.351562 C 64.75 83.351562 65.492188 83.527344 66.183594 83.875 C 67.519531 84.535156 68.5 85.835938 68.796875 87.292969 L 33.410156 87.292969 C 33.707031 85.835938 34.6875 84.535156 36.023438 83.875 C 36.714844 83.527344 37.460938 83.351562 38.257812 83.351562 C 38.285156 83.351562 38.316406 83.351562 38.347656 83.351562 L 45.492188 83.351562 C 45.546875 83.410156 45.742188 83.625 45.855469 83.726562 C 47.261719 85.121094 49.019531 86.164062 50.917969 86.734375 C 52.058594 87.089844 53.25 87.261719 54.445312 87.261719 M 16.570312 100.917969 L 16.570312 90.613281 L 19.796875 90.613281 C 19.84375 90.28125 19.886719 89.894531 19.96875 89.589844 L 20.109375 89.34375 C 20.222656 89.191406 20.378906 89.066406 20.550781 88.992188 C 20.640625 88.957031 20.730469 88.925781 20.824219 88.914062 L 20.96875 88.90625 L 21.207031 88.902344 L 78.757812 88.902344 L 78.996094 88.90625 L 79.136719 88.914062 C 79.230469 88.925781 79.324219 88.957031 79.410156 88.992188 C 79.585938 89.066406 79.738281 89.191406 79.851562 89.339844 L 79.992188 89.589844 C 80.074219 89.894531 80.117188 90.28125 80.167969 90.613281 L 84.796875 90.613281 L 84.796875 100.917969 L 16.570312 100.917969 "/>
<path style=" stroke:none;fill-rule:nonzero;fill:rgb(13.729858%,12.159729%,12.548828%);fill-opacity:1;" d="M 28.144531 105.742188 C 28.140625 105.742188 28.136719 105.742188 28.128906 105.742188 C 28.125 105.742188 28.121094 105.742188 28.113281 105.742188 C 24.4375 105.742188 20.761719 106.464844 17.363281 107.878906 C 13.960938 109.285156 10.839844 111.375 8.238281 113.980469 C 5.636719 116.582031 3.542969 119.699219 2.136719 123.105469 C 0.722656 126.507812 -0.00390625 130.191406 0 133.871094 C -0.00390625 137.550781 0.722656 141.234375 2.136719 144.636719 C 3.542969 148.039062 5.636719 151.15625 8.238281 153.761719 C 10.839844 156.367188 13.960938 158.457031 17.363281 159.863281 C 20.757812 161.277344 24.4375 162 28.113281 162 C 28.117188 162 28.125 162 28.128906 162 C 28.132812 162 28.140625 162 28.144531 162 C 31.820312 162 35.5 161.277344 38.894531 159.863281 C 42.300781 158.457031 45.417969 156.367188 48.019531 153.761719 C 50.625 151.15625 52.714844 148.039062 54.121094 144.640625 C 55.535156 141.234375 56.261719 137.554688 56.257812 133.871094 C 56.261719 130.191406 55.535156 126.507812 54.121094 123.105469 C 52.714844 119.703125 50.625 116.585938 48.019531 113.980469 C 45.417969 111.375 42.300781 109.285156 38.894531 107.878906 C 35.5 106.464844 31.820312 105.742188 28.144531 105.742188 M 28.128906 107.351562 C 28.132812 107.351562 28.136719 107.351562 28.136719 107.351562 C 31.609375 107.351562 35.078125 108.03125 38.28125 109.363281 C 41.488281 110.691406 44.425781 112.664062 46.882812 115.117188 C 49.339844 117.574219 51.308594 120.515625 52.636719 123.722656 C 53.96875 126.929688 54.648438 130.398438 54.648438 133.871094 C 54.648438 137.347656 53.96875 140.816406 52.636719 144.023438 C 51.308594 147.230469 49.335938 150.167969 46.882812 152.625 C 44.425781 155.078125 41.488281 157.050781 38.277344 158.378906 C 35.078125 159.707031 31.605469 160.390625 28.136719 160.390625 C 28.132812 160.390625 28.132812 160.390625 28.128906 160.390625 C 28.125 160.390625 28.125 160.390625 28.121094 160.390625 C 24.652344 160.390625 21.183594 159.707031 17.976562 158.375 C 14.773438 157.050781 11.832031 155.078125 9.378906 152.625 C 6.921875 150.167969 4.949219 147.230469 3.625 144.023438 C 2.289062 140.816406 1.609375 137.347656 1.609375 133.871094 C 1.609375 130.398438 2.289062 126.925781 3.625 123.722656 C 4.949219 120.515625 6.921875 117.574219 9.378906 115.117188 C 11.832031 112.664062 14.773438 110.691406 17.980469 109.363281 C 21.183594 108.03125 24.652344 107.351562 28.121094 107.351562 C 28.125 107.351562 28.128906 107.351562 28.128906 107.351562 "/>
<path style=" stroke:none;fill-rule:nonzero;fill:rgb(13.729858%,12.159729%,12.548828%);fill-opacity:1;" d="M 28.199219 120.703125 C 28.175781 120.703125 28.152344 120.703125 28.128906 120.703125 C 28.105469 120.703125 28.085938 120.703125 28.0625 120.703125 C 24.632812 120.703125 21.230469 122.121094 18.816406 124.558594 C 16.363281 126.984375 14.941406 130.417969 14.957031 133.871094 C 14.941406 137.324219 16.363281 140.757812 18.816406 143.183594 C 21.226562 145.617188 24.632812 147.042969 28.058594 147.042969 C 28.082031 147.042969 28.105469 147.042969 28.128906 147.042969 C 28.152344 147.042969 28.175781 147.042969 28.199219 147.042969 C 31.628906 147.042969 35.03125 145.621094 37.441406 143.183594 C 39.894531 140.757812 41.320312 137.324219 41.300781 133.871094 C 41.320312 130.421875 39.894531 126.988281 37.445312 124.558594 C 35.03125 122.121094 31.628906 120.703125 28.199219 120.703125 M 28.128906 122.308594 C 28.148438 122.308594 28.164062 122.308594 28.183594 122.308594 C 31.199219 122.308594 34.179688 123.554688 36.304688 125.699219 C 38.460938 127.835938 39.707031 130.835938 39.691406 133.871094 C 39.707031 136.90625 38.460938 139.910156 36.304688 142.046875 C 34.179688 144.1875 31.199219 145.433594 28.183594 145.433594 C 28.167969 145.433594 28.148438 145.433594 28.128906 145.433594 C 28.109375 145.433594 28.089844 145.433594 28.074219 145.433594 C 25.058594 145.433594 22.078125 144.1875 19.953125 142.046875 C 17.800781 139.910156 16.550781 136.90625 16.570312 133.871094 C 16.550781 130.835938 17.800781 127.832031 19.957031 125.695312 C 22.078125 123.554688 25.058594 122.308594 28.078125 122.308594 C 28.09375 122.308594 28.113281 122.308594 28.128906 122.308594 "/>
<path style=" stroke:none;fill-rule:nonzero;fill:rgb(13.729858%,12.159729%,12.548828%);fill-opacity:1;" d="M 28.152344 129.582031 C 28.144531 129.582031 28.136719 129.582031 28.128906 129.582031 C 28.121094 129.582031 28.117188 129.582031 28.109375 129.582031 C 26.992188 129.582031 25.882812 130.046875 25.097656 130.839844 C 24.300781 131.628906 23.835938 132.75 23.839844 133.871094 C 23.835938 134.992188 24.300781 136.113281 25.097656 136.902344 C 25.882812 137.695312 26.992188 138.160156 28.109375 138.160156 C 28.117188 138.160156 28.121094 138.160156 28.128906 138.160156 C 28.136719 138.160156 28.144531 138.160156 28.152344 138.160156 C 29.265625 138.160156 30.378906 137.695312 31.164062 136.902344 C 31.960938 136.113281 32.425781 134.992188 32.417969 133.871094 C 32.425781 132.75 31.960938 131.628906 31.164062 130.839844 C 30.378906 130.042969 29.265625 129.582031 28.152344 129.582031 M 28.128906 131.191406 C 28.132812 131.191406 28.132812 131.191406 28.136719 131.191406 C 28.839844 131.191406 29.527344 131.476562 30.023438 131.976562 C 30.523438 132.472656 30.808594 133.164062 30.808594 133.871094 C 30.808594 134.578125 30.523438 135.269531 30.023438 135.765625 C 29.527344 136.265625 28.839844 136.550781 28.136719 136.550781 C 28.136719 136.550781 28.132812 136.550781 28.128906 136.550781 C 28.128906 136.550781 28.125 136.550781 28.121094 136.550781 C 27.417969 136.550781 26.730469 136.265625 26.234375 135.765625 C 25.734375 135.269531 25.449219 134.578125 25.449219 133.871094 C 25.449219 133.164062 25.734375 132.472656 26.234375 131.976562 C 26.730469 131.476562 27.417969 131.191406 28.121094 131.191406 C 28.125 131.191406 28.128906 131.191406 28.128906 131.191406 "/>
<path style=" stroke:none;fill-rule:nonzero;fill:rgb(13.729858%,12.159729%,12.548828%);fill-opacity:1;" d="M 81.945312 93.78125 L 80.332031 93.78125 C 80.34375 94.691406 79.582031 95.488281 78.609375 95.488281 C 78.574219 95.488281 78.535156 95.488281 78.496094 95.484375 L 21.46875 95.484375 C 21.429688 95.488281 21.390625 95.488281 21.351562 95.488281 C 20.382812 95.488281 19.621094 94.691406 19.628906 93.78125 L 18.019531 93.78125 C 18.011719 94.679688 18.402344 95.574219 19.054688 96.183594 C 19.378906 96.492188 19.765625 96.734375 20.191406 96.890625 C 20.566406 97.035156 21.039062 97.097656 21.394531 97.097656 C 21.417969 97.097656 21.445312 97.097656 21.46875 97.09375 L 78.496094 97.09375 C 78.519531 97.097656 78.542969 97.097656 78.570312 97.097656 C 78.925781 97.097656 79.398438 97.035156 79.773438 96.890625 C 80.195312 96.734375 80.582031 96.492188 80.90625 96.183594 C 81.5625 95.574219 81.949219 94.679688 81.945312 93.78125 "/>
<path style=" stroke:none;fill-rule:nonzero;fill:rgb(13.729858%,12.159729%,12.548828%);fill-opacity:1;" d="M 89.800781 27.859375 C 89.449219 28.269531 89.074219 28.652344 88.675781 29.015625 L 90.945312 30.953125 C 90.722656 31.144531 90.519531 31.335938 90.351562 31.5 L 88.546875 33.242188 L 86.503906 35.21875 L 82.902344 32.144531 C 82.238281 32.316406 81.550781 32.441406 80.847656 32.507812 L 85.339844 36.34375 L 84.945312 36.726562 L 56.394531 64.332031 C 55.75 64.210938 55.097656 64.148438 54.445312 64.148438 C 53.441406 64.148438 52.4375 64.296875 51.472656 64.59375 C 49.738281 65.132812 48.152344 66.148438 46.945312 67.496094 C 45.71875 68.835938 44.878906 70.519531 44.515625 72.296875 C 44.148438 74.074219 44.273438 75.945312 44.863281 77.664062 C 46.015625 81.121094 49.152344 83.808594 52.753906 84.402344 C 53.339844 84.503906 53.929688 84.554688 54.523438 84.554688 C 55.742188 84.554688 56.964844 84.339844 58.109375 83.90625 C 59.8125 83.269531 61.332031 82.167969 62.46875 80.757812 C 63.613281 79.347656 64.363281 77.621094 64.621094 75.828125 C 64.753906 74.929688 64.761719 74.015625 64.652344 73.113281 L 64.605469 72.789062 L 64.691406 72.710938 L 65.59375 71.839844 L 72.800781 64.867188 L 87.222656 50.929688 L 94.429688 43.957031 L 98.035156 40.472656 L 98.949219 39.585938 C 99.289062 39.242188 99.589844 38.855469 99.832031 38.4375 C 100.324219 37.605469 100.605469 36.644531 100.640625 35.679688 C 100.738281 33.742188 99.785156 31.789062 98.207031 30.667969 C 97.207031 29.933594 95.972656 29.550781 94.738281 29.550781 C 94.039062 29.550781 93.339844 29.671875 92.679688 29.925781 C 92.578125 29.960938 92.476562 30.015625 92.378906 30.058594 L 89.800781 27.859375 M 56.480469 65.972656 L 57.222656 65.769531 L 86.0625 37.882812 L 89.667969 34.398438 L 91.46875 32.65625 C 91.789062 32.34375 92.015625 32.121094 92.316406 31.917969 C 92.605469 31.722656 92.914062 31.554688 93.246094 31.433594 C 93.722656 31.25 94.230469 31.160156 94.742188 31.160156 C 95.640625 31.160156 96.539062 31.4375 97.261719 31.972656 C 98.414062 32.792969 99.101562 34.203125 99.035156 35.617188 C 99.007812 36.320312 98.800781 37.015625 98.445312 37.621094 C 98.269531 37.925781 98.050781 38.203125 97.800781 38.453125 L 96.917969 39.316406 L 86.101562 49.769531 L 71.683594 63.710938 L 64.472656 70.683594 L 63.574219 71.554688 L 63.207031 71.910156 L 62.980469 72.128906 L 62.878906 72.238281 L 62.90625 72.394531 L 63.011719 73.011719 L 63.054688 73.308594 C 63.144531 74.066406 63.140625 74.839844 63.027344 75.59375 C 62.808594 77.109375 62.183594 78.5625 61.21875 79.746094 C 60.257812 80.9375 58.972656 81.863281 57.542969 82.402344 C 56.585938 82.765625 55.554688 82.945312 54.527344 82.945312 C 54.027344 82.945312 53.523438 82.902344 53.03125 82.816406 C 50 82.320312 47.355469 80.050781 46.382812 77.140625 C 45.363281 74.246094 46.050781 70.832031 48.136719 68.578125 C 49.738281 66.761719 52.132812 65.742188 54.539062 65.742188 C 55.191406 65.742188 55.84375 65.820312 56.480469 65.972656 "/>
<path style=" stroke:none;fill-rule:nonzero;fill:rgb(13.729858%,12.159729%,12.548828%);fill-opacity:1;" d="M 53.925781 70.773438 C 52.875 70.773438 51.828125 71.199219 51.074219 71.933594 L 51.628906 72.507812 L 51.632812 72.511719 L 51.628906 72.507812 L 51.074219 71.933594 C 50.292969 72.679688 49.828125 73.753906 49.816406 74.832031 C 49.792969 75.914062 50.222656 77 50.976562 77.773438 C 51.722656 78.550781 52.792969 79.019531 53.875 79.03125 C 53.902344 79.03125 53.933594 79.03125 53.960938 79.03125 C 55.011719 79.03125 56.0625 78.601562 56.8125 77.871094 C 57.59375 77.121094 58.058594 76.050781 58.074219 74.96875 C 58.09375 73.890625 57.667969 72.804688 56.910156 72.03125 C 56.164062 71.253906 55.09375 70.785156 54.011719 70.773438 C 53.984375 70.773438 53.953125 70.773438 53.925781 70.773438 M 53.945312 77.421875 C 53.929688 77.421875 53.914062 77.421875 53.902344 77.421875 C 53.238281 77.410156 52.59375 77.132812 52.132812 76.652344 C 51.671875 76.175781 51.414062 75.523438 51.425781 74.859375 C 51.433594 74.195312 51.714844 73.550781 52.191406 73.089844 C 52.65625 72.640625 53.292969 72.382812 53.941406 72.382812 C 53.957031 72.382812 53.972656 72.382812 53.988281 72.382812 C 54.648438 72.394531 55.296875 72.671875 55.753906 73.152344 C 56.21875 73.628906 56.476562 74.28125 56.464844 74.945312 C 56.453125 75.609375 56.171875 76.253906 55.695312 76.714844 C 55.230469 77.164062 54.59375 77.421875 53.945312 77.421875 "/>
<path style=" stroke:none;fill-rule:nonzero;fill:rgb(13.729858%,12.159729%,12.548828%);fill-opacity:1;" d="M 59.363281 68.714844 C 58.949219 68.714844 58.539062 68.863281 58.246094 69.164062 C 57.609375 69.746094 57.59375 70.835938 58.207031 71.4375 C 58.503906 71.761719 58.933594 71.921875 59.363281 71.921875 C 59.773438 71.921875 60.183594 71.773438 60.480469 71.472656 C 61.113281 70.894531 61.132812 69.804688 60.515625 69.203125 C 60.222656 68.878906 59.792969 68.714844 59.363281 68.714844 M 59.363281 71.121094 C 59.148438 71.121094 58.933594 71.039062 58.785156 70.878906 C 58.480469 70.578125 58.488281 70.03125 58.804688 69.742188 L 58.523438 69.453125 L 58.804688 69.742188 C 58.953125 69.59375 59.15625 69.519531 59.359375 69.519531 C 59.574219 69.519531 59.789062 69.597656 59.9375 69.761719 C 60.246094 70.0625 60.234375 70.605469 59.921875 70.898438 C 59.773438 71.046875 59.570312 71.121094 59.363281 71.121094 "/>
<path style=" stroke:none;fill-rule:nonzero;fill:rgb(13.729858%,12.159729%,12.548828%);fill-opacity:1;" d="M 49.488281 68.691406 C 49.078125 68.691406 48.667969 68.839844 48.371094 69.140625 C 47.738281 69.722656 47.722656 70.808594 48.335938 71.410156 C 48.632812 71.738281 49.0625 71.898438 49.492188 71.898438 C 49.902344 71.898438 50.3125 71.75 50.605469 71.449219 C 51.242188 70.867188 51.257812 69.78125 50.644531 69.175781 C 50.347656 68.851562 49.917969 68.691406 49.488281 68.691406 M 49.492188 71.097656 C 49.277344 71.097656 49.0625 71.015625 48.914062 70.851562 C 48.605469 70.550781 48.617188 70.007812 48.933594 69.71875 C 49.078125 69.570312 49.285156 69.492188 49.488281 69.492188 C 49.703125 69.492188 49.917969 69.574219 50.066406 69.734375 C 50.371094 70.035156 50.363281 70.582031 50.046875 70.871094 C 49.902344 71.023438 49.695312 71.097656 49.492188 71.097656 "/>
<path style=" stroke:none;fill-rule:nonzero;fill:rgb(13.729858%,12.159729%,12.548828%);fill-opacity:1;" d="M 58.6875 77.476562 C 58.277344 77.476562 57.867188 77.628906 57.574219 77.925781 C 56.9375 78.507812 56.921875 79.597656 57.535156 80.203125 C 57.832031 80.527344 58.261719 80.6875 58.691406 80.6875 C 59.101562 80.6875 59.511719 80.539062 59.808594 80.238281 C 60.441406 79.65625 60.457031 78.566406 59.84375 77.964844 C 59.546875 77.640625 59.117188 77.476562 58.6875 77.476562 M 58.691406 79.886719 C 58.476562 79.886719 58.261719 79.804688 58.113281 79.640625 C 57.808594 79.339844 57.816406 78.796875 58.132812 78.507812 C 58.277344 78.355469 58.484375 78.28125 58.6875 78.28125 C 58.902344 78.28125 59.117188 78.363281 59.265625 78.527344 C 59.574219 78.824219 59.566406 79.371094 59.246094 79.660156 C 59.101562 79.808594 58.898438 79.886719 58.691406 79.886719 "/>
<path style=" stroke:none;fill-rule:nonzero;fill:rgb(13.729858%,12.159729%,12.548828%);fill-opacity:1;" d="M 94.5 32.734375 C 94.492188 32.734375 94.488281 32.734375 94.484375 32.734375 C 94.480469 32.734375 94.476562 32.734375 94.46875 32.734375 C 93.707031 32.734375 92.945312 33.050781 92.40625 33.597656 C 91.859375 34.136719 91.542969 34.90625 91.546875 35.671875 C 91.542969 36.441406 91.863281 37.210938 92.410156 37.753906 C 92.945312 38.292969 93.710938 38.609375 94.472656 38.609375 C 94.476562 38.609375 94.480469 38.609375 94.488281 38.609375 C 94.492188 38.609375 94.496094 38.609375 94.5 38.609375 C 95.265625 38.609375 96.027344 38.289062 96.5625 37.746094 C 97.109375 37.210938 97.429688 36.4375 97.421875 35.671875 C 97.425781 34.902344 97.109375 34.132812 96.5625 33.59375 C 96.027344 33.050781 95.261719 32.734375 94.5 32.734375 M 94.484375 34.34375 C 94.496094 34.34375 94.507812 34.34375 94.519531 34.34375 C 95.214844 34.34375 95.832031 34.972656 95.8125 35.671875 C 95.835938 36.371094 95.214844 37.003906 94.515625 37.003906 C 94.507812 37.003906 94.496094 37.003906 94.484375 37.003906 C 94.476562 37.003906 94.464844 37.003906 94.457031 37.003906 C 93.757812 37.003906 93.140625 36.371094 93.15625 35.671875 C 93.140625 34.972656 93.757812 34.34375 94.457031 34.34375 C 94.464844 34.34375 94.476562 34.34375 94.484375 34.34375 "/>
<path style=" stroke:none;fill-rule:nonzero;fill:rgb(13.729858%,12.159729%,12.548828%);fill-opacity:1;" d="M 64.898438 9.363281 C 64.300781 9.363281 63.699219 9.421875 63.113281 9.535156 C 62.210938 9.710938 61.339844 10.019531 60.53125 10.449219 C 60.871094 10.871094 61.183594 11.316406 61.472656 11.777344 C 62.089844 11.46875 62.742188 11.246094 63.417969 11.113281 C 63.90625 11.019531 64.40625 10.972656 64.902344 10.972656 C 65.976562 10.972656 67.054688 11.195312 68.039062 11.628906 C 68.335938 11.167969 68.660156 10.726562 69.007812 10.304688 C 67.730469 9.683594 66.316406 9.363281 64.898438 9.363281 M 68.136719 26.453125 L 61.28125 26.453125 C 60.90625 27.023438 60.492188 27.5625 60.039062 28.0625 L 69.382812 28.0625 C 68.929688 27.5625 68.511719 27.023438 68.136719 26.453125 "/>
<path style=" stroke:none;fill-rule:nonzero;fill:rgb(13.729858%,12.159729%,12.548828%);fill-opacity:1;" d="M 53.792969 152.335938 L 72.515625 152.335938 L 72.515625 150.644531 L 53.792969 150.644531 Z M 53.792969 152.335938 "/>
<path style=" stroke:none;fill-rule:nonzero;fill:rgb(13.729858%,12.159729%,12.548828%);fill-opacity:1;" d="M 57.003906 148.6875 L 69.277344 148.6875 L 69.277344 146.992188 L 57.003906 146.992188 Z M 57.003906 148.6875 "/>
<path style=" stroke:none;fill-rule:nonzero;fill:rgb(13.729858%,12.159729%,12.548828%);fill-opacity:1;" d="M 37.457031 13.492188 L 28.542969 13.492188 L 28.542969 14.777344 L 27.3125 14.777344 L 27.3125 24.441406 L 37.457031 24.441406 C 37.242188 23.957031 37.058594 23.453125 36.902344 22.941406 L 28.8125 22.941406 L 28.8125 14.992188 L 36.902344 14.992188 C 37.058594 14.480469 37.246094 13.980469 37.457031 13.492188 M 28.8125 23.691406 L 28.8125 23.691406 M 28.0625 23.691406 L 28.8125 23.691406 L 28.0625 23.691406 "/>
<path style=" stroke:none;fill-rule:nonzero;fill:rgb(13.729858%,12.159729%,12.548828%);fill-opacity:1;" d="M 99.292969 13.492188 L 91.960938 13.492188 C 92.175781 13.980469 92.363281 14.480469 92.519531 14.992188 L 99.691406 14.992188 L 99.691406 22.941406 L 92.519531 22.941406 C 92.363281 23.453125 92.175781 23.957031 91.964844 24.441406 L 101.1875 24.441406 L 101.1875 14.875 L 99.292969 14.875 L 99.292969 13.492188 "/>
<g clip-path="url(#clip2)" clip-rule="nonzero">
<path style=" stroke:none;fill-rule:nonzero;fill:rgb(13.729858%,12.159729%,12.548828%);fill-opacity:1;" d="M 28.542969 0.757812 L 22.234375 0.757812 L 22.101562 1.339844 L 19.058594 14.777344 L 28.542969 14.777344 L 28.542969 0.757812 M 23.429688 2.257812 L 27.042969 2.257812 L 27.042969 13.277344 L 20.9375 13.277344 L 23.429688 2.257812 "/>
</g>
<g clip-path="url(#clip3)" clip-rule="nonzero">
<path style=" stroke:none;fill-rule:nonzero;fill:rgb(13.729858%,12.159729%,12.548828%);fill-opacity:1;" d="M 105.605469 0.855469 L 99.292969 0.855469 L 99.292969 14.875 L 108.777344 14.875 L 105.605469 0.855469 M 104.273438 1.769531 L 105.003906 1.605469 L 104.273438 1.769531 M 100.792969 13.375 L 100.792969 2.355469 L 104.40625 2.355469 L 106.902344 13.375 L 100.792969 13.375 "/>
</g>
<path style=" stroke:none;fill-rule:nonzero;fill:rgb(13.729858%,12.159729%,12.548828%);fill-opacity:1;" d="M 49.917969 5.359375 C 44.351562 5.359375 39.566406 8.703125 37.457031 13.492188 C 37.246094 13.980469 37.058594 14.480469 36.902344 14.992188 C 36.519531 16.25 36.3125 17.585938 36.3125 18.96875 C 36.3125 20.351562 36.519531 21.683594 36.902344 22.941406 C 37.058594 23.453125 37.242188 23.957031 37.457031 24.441406 C 39.566406 29.230469 44.351562 32.574219 49.917969 32.574219 C 53.9375 32.574219 57.546875 30.832031 60.039062 28.0625 C 60.492188 27.5625 60.90625 27.023438 61.28125 26.453125 C 62.699219 24.308594 63.527344 21.734375 63.527344 18.96875 C 63.527344 16.328125 62.773438 13.863281 61.472656 11.777344 C 61.183594 11.316406 60.871094 10.871094 60.53125 10.449219 C 58.039062 7.347656 54.210938 5.359375 49.917969 5.359375 M 49.917969 31.074219 C 46.574219 31.074219 43.550781 29.722656 41.359375 27.527344 C 39.164062 25.335938 37.8125 22.3125 37.8125 18.96875 C 37.8125 15.621094 39.164062 12.601562 41.359375 10.40625 C 43.550781 8.214844 46.574219 6.859375 49.917969 6.859375 C 53.265625 6.859375 56.285156 8.214844 58.480469 10.40625 C 60.671875 12.601562 62.027344 15.621094 62.027344 18.96875 C 62.027344 22.3125 60.671875 25.335938 58.480469 27.527344 C 56.285156 29.722656 53.265625 31.074219 49.917969 31.074219 "/>
<path style=" stroke:none;fill-rule:nonzero;fill:rgb(13.729858%,12.159729%,12.548828%);fill-opacity:1;" d="M 79.5 5.359375 C 75.277344 5.359375 71.503906 7.285156 69.007812 10.304688 C 68.660156 10.726562 68.335938 11.167969 68.039062 11.628906 C 66.683594 13.746094 65.894531 16.265625 65.894531 18.96875 C 65.894531 21.734375 66.71875 24.308594 68.136719 26.453125 C 68.511719 27.023438 68.929688 27.5625 69.382812 28.0625 C 71.871094 30.832031 75.484375 32.574219 79.5 32.574219 C 79.957031 32.574219 80.40625 32.550781 80.847656 32.507812 C 81.550781 32.441406 82.238281 32.316406 82.902344 32.144531 C 85.089844 31.585938 87.058594 30.492188 88.675781 29.015625 C 89.074219 28.652344 89.449219 28.269531 89.800781 27.859375 C 90.679688 26.839844 91.414062 25.691406 91.964844 24.441406 C 92.175781 23.957031 92.363281 23.453125 92.519531 22.941406 C 92.902344 21.683594 93.109375 20.351562 93.109375 18.96875 C 93.109375 17.585938 92.902344 16.25 92.519531 14.992188 C 92.363281 14.480469 92.175781 13.980469 91.960938 13.492188 C 89.855469 8.703125 85.070312 5.359375 79.5 5.359375 M 79.5 31.074219 C 76.15625 31.074219 73.132812 29.722656 70.941406 27.527344 C 68.746094 25.335938 67.394531 22.3125 67.394531 18.96875 C 67.394531 15.621094 68.746094 12.601562 70.941406 10.40625 C 73.132812 8.214844 76.15625 6.859375 79.5 6.859375 C 82.847656 6.859375 85.867188 8.214844 88.0625 10.40625 C 90.253906 12.601562 91.609375 15.621094 91.609375 18.96875 C 91.609375 22.3125 90.253906 25.335938 88.0625 27.527344 C 85.867188 29.722656 82.847656 31.074219 79.5 31.074219 "/>
<path style=" stroke:none;fill-rule:nonzero;fill:rgb(13.729858%,12.159729%,12.548828%);fill-opacity:1;" d="M 44.503906 23.808594 C 45.921875 23.816406 47.335938 23.230469 48.332031 22.222656 C 49.339844 21.226562 49.929688 19.8125 49.921875 18.394531 C 49.929688 16.976562 49.339844 15.558594 48.335938 14.5625 C 47.335938 13.554688 45.921875 12.96875 44.503906 12.976562 C 43.085938 12.96875 41.671875 13.554688 40.671875 14.5625 C 39.664062 15.558594 39.078125 16.972656 39.089844 18.390625 C 39.078125 19.8125 39.664062 21.226562 40.671875 22.222656 C 41.671875 23.230469 43.085938 23.816406 44.503906 23.808594 M 41.734375 15.621094 C 42.460938 14.890625 43.472656 14.46875 44.503906 14.476562 C 45.535156 14.46875 46.546875 14.890625 47.273438 15.621094 C 48.003906 16.347656 48.425781 17.363281 48.421875 18.394531 C 48.425781 19.421875 48.003906 20.4375 47.273438 21.160156 C 46.546875 21.894531 45.535156 22.3125 44.503906 22.308594 C 43.472656 22.3125 42.460938 21.894531 41.734375 21.160156 C 41.003906 20.4375 40.582031 19.421875 40.585938 18.390625 C 40.582031 17.363281 41.003906 16.347656 41.734375 15.621094 "/>
<path style=" stroke:none;fill-rule:nonzero;fill:rgb(13.729858%,12.159729%,12.548828%);fill-opacity:1;" d="M 44.503906 20.871094 C 45.898438 20.871094 47.027344 19.742188 47.027344 18.347656 C 47.027344 17.183594 46.242188 16.207031 45.171875 15.914062 L 45.171875 18.703125 L 43.835938 18.703125 L 43.835938 15.914062 C 42.765625 16.207031 41.980469 17.183594 41.980469 18.347656 C 41.980469 19.742188 43.109375 20.871094 44.503906 20.871094 "/>
<path style=" stroke:none;fill-rule:nonzero;fill:rgb(13.729858%,12.159729%,12.548828%);fill-opacity:1;" d="M 74.332031 23.753906 C 75.75 23.761719 77.164062 23.175781 78.160156 22.167969 C 79.167969 21.167969 79.753906 19.753906 79.746094 18.335938 C 79.753906 16.917969 79.167969 15.503906 78.160156 14.507812 C 77.164062 13.496094 75.75 12.910156 74.332031 12.921875 C 72.910156 12.910156 71.496094 13.496094 70.5 14.507812 C 69.492188 15.503906 68.90625 16.917969 68.914062 18.335938 C 68.90625 19.753906 69.492188 21.167969 70.5 22.164062 C 71.496094 23.175781 72.910156 23.761719 74.332031 23.753906 M 71.558594 15.566406 C 72.285156 14.835938 73.300781 14.414062 74.332031 14.417969 C 75.359375 14.414062 76.375 14.835938 77.097656 15.566406 C 77.832031 16.292969 78.253906 17.308594 78.246094 18.335938 C 78.253906 19.367188 77.832031 20.382812 77.097656 21.105469 C 76.375 21.835938 75.359375 22.257812 74.332031 22.253906 C 73.300781 22.257812 72.285156 21.835938 71.558594 21.105469 C 70.828125 20.378906 70.40625 19.367188 70.414062 18.335938 C 70.40625 17.308594 70.832031 16.292969 71.558594 15.566406 "/>
<path style=" stroke:none;fill-rule:nonzero;fill:rgb(13.729858%,12.159729%,12.548828%);fill-opacity:1;" d="M 74.332031 20.816406 C 75.722656 20.816406 76.855469 19.683594 76.855469 18.292969 C 76.855469 17.128906 76.066406 16.148438 74.996094 15.859375 L 74.996094 18.648438 L 73.664062 18.648438 L 73.664062 15.859375 C 72.59375 16.148438 71.804688 17.128906 71.804688 18.292969 C 71.804688 19.683594 72.9375 20.816406 74.332031 20.816406 "/>
</g>
</svg>
